%
M48
M72
T01C0.02362
T02C0.02756
T03C0.03150
T04C0.03200
T05C0.03937
T06C0.04000
T07C0.04331
T08C0.04724
T09C0.05906
T10C0.11811
T11C0.14173
%
T01
X80232Y278067
X80232Y264287
X80232Y255429
X80232Y246571
X98933Y246571
X98933Y255429
X105823Y264287
X95980Y270193
X149130Y267240
X154051Y254445
X217043Y296768
X217043Y312516
X249524Y314484
X249524Y298736
X234760Y281020
X237713Y274130
X264287Y274130
X270193Y269209
X280035Y281020
X274130Y284957
X288894Y288894
X282988Y252476
X270193Y250508
X270193Y232791
X263303Y230823
X263303Y225902
X256413Y204248
X272161Y176689
X283972Y156020
X271177Y135350
X295783Y96965
X306610Y96965
X306610Y84169
X305626Y78264
X304642Y61531
X284957Y78264
X278067Y71374
X239681Y79248
X326295Y90075
X376492Y139287
X384366Y117634
X384366Y104839
X384366Y92043
X382398Y182594
X366650Y184563
X340075Y205232
X334169Y197358
X325311Y192437
X329248Y182594
X306610Y192437
X301689Y187516
X301689Y197358
X305626Y213106
X339091Y223933
X344012Y237713
X359760Y229839
X332201Y270193
X340075Y285941
X352870Y295783
X352870Y311531
X353854Y330232
X326295Y296768
X281020Y344996
X275114Y362713
X307594Y359760
X232791Y354839
X230823Y239681
X70390Y74327
X27083Y79248
X19209Y79248
X109760Y16256
T02
X224642Y202240
X224642Y231768
X316453Y59563
X326295Y59563
X343028Y59563
X352870Y59563
T03
X232634Y147594
X272004Y147594
X247358Y206295
X247358Y216295
X247358Y226295
X248539Y71531
X248539Y61531
X248539Y51531
X278067Y51531
X278067Y61531
X278067Y71531
T04
X242791Y192516
X252791Y192516
X262791Y192516
X272791Y192516
X299484Y172240
X299484Y162240
X299484Y152240
X299484Y142240
X299484Y132240
X299484Y122240
X299484Y112240
X329484Y112240
X329484Y122240
X329484Y132240
X329484Y142240
X329484Y152240
X329484Y162240
X329484Y172240
X272791Y162516
X262791Y162516
X252791Y162516
X242791Y162516
X301453Y230587
X301453Y240587
X301453Y250587
X301453Y260587
X331453Y260587
X331453Y250587
X331453Y240587
X331453Y230587
X324563Y306138
X324563Y316138
X324563Y326138
X324563Y336138
X324563Y346138
X324563Y356138
X324563Y366138
X294563Y366138
X294563Y356138
X294563Y346138
X294563Y336138
X294563Y326138
X294563Y316138
X294563Y306138
T05
X224917Y126492
X234760Y126492
X244602Y126492
X242634Y103854
X252476Y103854
X232791Y103854
X362713Y125508
X372555Y125508
X382398Y125508
X374524Y333185
X374524Y343028
X374524Y352870
T06
X214917Y354169
X224917Y354169
X224917Y344169
X214917Y344169
X214917Y334169
X224917Y334169
X12161Y354169
X22161Y354169
X22161Y344169
X12161Y344169
X12161Y334169
X22161Y334169
X161768Y267240
X161768Y277240
X171768Y277240
X171768Y267240
X171768Y287240
X171768Y297240
X171768Y307240
X161768Y307240
X161768Y297240
X161768Y287240
X222319Y267398
X232319Y267398
X242319Y267398
X252319Y267398
X262319Y267398
X262319Y257398
X252319Y257398
X242319Y257398
X232319Y257398
X222319Y257398
X364524Y267240
X364524Y277240
X374524Y277240
X374524Y267240
X374524Y287240
X374524Y297240
X374524Y307240
X364524Y307240
X364524Y297240
X364524Y287240
X367161Y167988
X367161Y157988
X367161Y147988
X299051Y33067
X289051Y33067
X279051Y33067
X269051Y33067
X259051Y33067
X259051Y23067
X269051Y23067
X279051Y23067
X289051Y23067
X299051Y23067
T07
X47752Y39878
X47752Y51689
X47752Y65469
X47752Y98933
X47752Y110744
X96965Y110744
X96965Y98933
X96965Y65469
X96965Y51689
X96965Y39878
X96965Y6413
X146177Y6413
X146177Y39878
X146177Y51689
X146177Y65469
X146177Y98933
X146177Y110744
X47752Y193421
X47752Y205232
X47752Y238697
X47752Y6413
T08
X136335Y124524
X146177Y124524
X156020Y124524
X106807Y124524
X96965Y124524
X87122Y124524
X57594Y124524
X47752Y124524
X37909Y124524
X126492Y200311
X136335Y200311
X146177Y200311
X57594Y258382
X47752Y258382
X37909Y258382
X87122Y334169
X96965Y334169
X106807Y334169
T09
X79642Y361728
X114287Y361728
X65075Y285941
X30429Y285941
X30429Y152083
X65075Y152083
X79642Y152083
X114287Y152083
X128854Y152083
X163500Y152083
X153657Y227870
X119012Y227870
T10
X47752Y219012
X47752Y85154
X96965Y85154
X146177Y85154
X146177Y26098
X96965Y26098
X47752Y26098
T11
X18224Y52673
X175705Y52673
X18224Y379445
X175705Y379445
X220980Y379445
X378461Y379445
X378461Y52673
X220980Y52673
M30
