G75*
%MOIN*%
%OFA0B0*%
%FSLAX25Y25*%
%IPPOS*%
%LPD*%
%AMOC8*
5,1,8,0,0,1.08239X$1,22.5*
%
%ADD10C,0.00000*%
%ADD11C,0.00700*%
%ADD12C,0.00500*%
%ADD13C,0.00400*%
%ADD14C,0.01181*%
%ADD15C,0.00787*%
%ADD16C,0.00600*%
%ADD17C,0.01600*%
%ADD18C,0.00300*%
D10*
X0001492Y0017240D02*
X0001492Y0379445D01*
X0001497Y0379826D01*
X0001510Y0380206D01*
X0001533Y0380586D01*
X0001566Y0380965D01*
X0001607Y0381343D01*
X0001657Y0381720D01*
X0001717Y0382096D01*
X0001785Y0382471D01*
X0001863Y0382843D01*
X0001950Y0383214D01*
X0002045Y0383582D01*
X0002150Y0383948D01*
X0002263Y0384311D01*
X0002385Y0384672D01*
X0002515Y0385029D01*
X0002655Y0385383D01*
X0002802Y0385734D01*
X0002959Y0386081D01*
X0003123Y0386424D01*
X0003296Y0386763D01*
X0003477Y0387098D01*
X0003666Y0387429D01*
X0003863Y0387754D01*
X0004067Y0388075D01*
X0004280Y0388391D01*
X0004500Y0388701D01*
X0004727Y0389007D01*
X0004962Y0389306D01*
X0005204Y0389600D01*
X0005452Y0389888D01*
X0005708Y0390170D01*
X0005971Y0390445D01*
X0006240Y0390714D01*
X0006515Y0390977D01*
X0006797Y0391233D01*
X0007085Y0391481D01*
X0007379Y0391723D01*
X0007678Y0391958D01*
X0007984Y0392185D01*
X0008294Y0392405D01*
X0008610Y0392618D01*
X0008931Y0392822D01*
X0009256Y0393019D01*
X0009587Y0393208D01*
X0009922Y0393389D01*
X0010261Y0393562D01*
X0010604Y0393726D01*
X0010951Y0393883D01*
X0011302Y0394030D01*
X0011656Y0394170D01*
X0012013Y0394300D01*
X0012374Y0394422D01*
X0012737Y0394535D01*
X0013103Y0394640D01*
X0013471Y0394735D01*
X0013842Y0394822D01*
X0014214Y0394900D01*
X0014589Y0394968D01*
X0014965Y0395028D01*
X0015342Y0395078D01*
X0015720Y0395119D01*
X0016099Y0395152D01*
X0016479Y0395175D01*
X0016859Y0395188D01*
X0017240Y0395193D01*
X0176689Y0395193D01*
X0177070Y0395188D01*
X0177450Y0395175D01*
X0177830Y0395152D01*
X0178209Y0395119D01*
X0178587Y0395078D01*
X0178964Y0395028D01*
X0179340Y0394968D01*
X0179715Y0394900D01*
X0180087Y0394822D01*
X0180458Y0394735D01*
X0180826Y0394640D01*
X0181192Y0394535D01*
X0181555Y0394422D01*
X0181916Y0394300D01*
X0182273Y0394170D01*
X0182627Y0394030D01*
X0182978Y0393883D01*
X0183325Y0393726D01*
X0183668Y0393562D01*
X0184007Y0393389D01*
X0184342Y0393208D01*
X0184673Y0393019D01*
X0184998Y0392822D01*
X0185319Y0392618D01*
X0185635Y0392405D01*
X0185945Y0392185D01*
X0186251Y0391958D01*
X0186550Y0391723D01*
X0186844Y0391481D01*
X0187132Y0391233D01*
X0187414Y0390977D01*
X0187689Y0390714D01*
X0187958Y0390445D01*
X0188221Y0390170D01*
X0188477Y0389888D01*
X0188725Y0389600D01*
X0188967Y0389306D01*
X0189202Y0389007D01*
X0189429Y0388701D01*
X0189649Y0388391D01*
X0189862Y0388075D01*
X0190066Y0387754D01*
X0190263Y0387429D01*
X0190452Y0387098D01*
X0190633Y0386763D01*
X0190806Y0386424D01*
X0190970Y0386081D01*
X0191127Y0385734D01*
X0191274Y0385383D01*
X0191414Y0385029D01*
X0191544Y0384672D01*
X0191666Y0384311D01*
X0191779Y0383948D01*
X0191884Y0383582D01*
X0191979Y0383214D01*
X0192066Y0382843D01*
X0192144Y0382471D01*
X0192212Y0382096D01*
X0192272Y0381720D01*
X0192322Y0381343D01*
X0192363Y0380965D01*
X0192396Y0380586D01*
X0192419Y0380206D01*
X0192432Y0379826D01*
X0192437Y0379445D01*
X0192437Y0017240D01*
X0204248Y0017240D02*
X0204248Y0379445D01*
X0204253Y0379826D01*
X0204266Y0380206D01*
X0204289Y0380586D01*
X0204322Y0380965D01*
X0204363Y0381343D01*
X0204413Y0381720D01*
X0204473Y0382096D01*
X0204541Y0382471D01*
X0204619Y0382843D01*
X0204706Y0383214D01*
X0204801Y0383582D01*
X0204906Y0383948D01*
X0205019Y0384311D01*
X0205141Y0384672D01*
X0205271Y0385029D01*
X0205411Y0385383D01*
X0205558Y0385734D01*
X0205715Y0386081D01*
X0205879Y0386424D01*
X0206052Y0386763D01*
X0206233Y0387098D01*
X0206422Y0387429D01*
X0206619Y0387754D01*
X0206823Y0388075D01*
X0207036Y0388391D01*
X0207256Y0388701D01*
X0207483Y0389007D01*
X0207718Y0389306D01*
X0207960Y0389600D01*
X0208208Y0389888D01*
X0208464Y0390170D01*
X0208727Y0390445D01*
X0208996Y0390714D01*
X0209271Y0390977D01*
X0209553Y0391233D01*
X0209841Y0391481D01*
X0210135Y0391723D01*
X0210434Y0391958D01*
X0210740Y0392185D01*
X0211050Y0392405D01*
X0211366Y0392618D01*
X0211687Y0392822D01*
X0212012Y0393019D01*
X0212343Y0393208D01*
X0212678Y0393389D01*
X0213017Y0393562D01*
X0213360Y0393726D01*
X0213707Y0393883D01*
X0214058Y0394030D01*
X0214412Y0394170D01*
X0214769Y0394300D01*
X0215130Y0394422D01*
X0215493Y0394535D01*
X0215859Y0394640D01*
X0216227Y0394735D01*
X0216598Y0394822D01*
X0216970Y0394900D01*
X0217345Y0394968D01*
X0217721Y0395028D01*
X0218098Y0395078D01*
X0218476Y0395119D01*
X0218855Y0395152D01*
X0219235Y0395175D01*
X0219615Y0395188D01*
X0219996Y0395193D01*
X0379445Y0395193D01*
X0379826Y0395188D01*
X0380206Y0395175D01*
X0380586Y0395152D01*
X0380965Y0395119D01*
X0381343Y0395078D01*
X0381720Y0395028D01*
X0382096Y0394968D01*
X0382471Y0394900D01*
X0382843Y0394822D01*
X0383214Y0394735D01*
X0383582Y0394640D01*
X0383948Y0394535D01*
X0384311Y0394422D01*
X0384672Y0394300D01*
X0385029Y0394170D01*
X0385383Y0394030D01*
X0385734Y0393883D01*
X0386081Y0393726D01*
X0386424Y0393562D01*
X0386763Y0393389D01*
X0387098Y0393208D01*
X0387429Y0393019D01*
X0387754Y0392822D01*
X0388075Y0392618D01*
X0388391Y0392405D01*
X0388701Y0392185D01*
X0389007Y0391958D01*
X0389306Y0391723D01*
X0389600Y0391481D01*
X0389888Y0391233D01*
X0390170Y0390977D01*
X0390445Y0390714D01*
X0390714Y0390445D01*
X0390977Y0390170D01*
X0391233Y0389888D01*
X0391481Y0389600D01*
X0391723Y0389306D01*
X0391958Y0389007D01*
X0392185Y0388701D01*
X0392405Y0388391D01*
X0392618Y0388075D01*
X0392822Y0387754D01*
X0393019Y0387429D01*
X0393208Y0387098D01*
X0393389Y0386763D01*
X0393562Y0386424D01*
X0393726Y0386081D01*
X0393883Y0385734D01*
X0394030Y0385383D01*
X0394170Y0385029D01*
X0394300Y0384672D01*
X0394422Y0384311D01*
X0394535Y0383948D01*
X0394640Y0383582D01*
X0394735Y0383214D01*
X0394822Y0382843D01*
X0394900Y0382471D01*
X0394968Y0382096D01*
X0395028Y0381720D01*
X0395078Y0381343D01*
X0395119Y0380965D01*
X0395152Y0380586D01*
X0395175Y0380206D01*
X0395188Y0379826D01*
X0395193Y0379445D01*
X0395193Y0017240D01*
X0395188Y0016859D01*
X0395175Y0016479D01*
X0395152Y0016099D01*
X0395119Y0015720D01*
X0395078Y0015342D01*
X0395028Y0014965D01*
X0394968Y0014589D01*
X0394900Y0014214D01*
X0394822Y0013842D01*
X0394735Y0013471D01*
X0394640Y0013103D01*
X0394535Y0012737D01*
X0394422Y0012374D01*
X0394300Y0012013D01*
X0394170Y0011656D01*
X0394030Y0011302D01*
X0393883Y0010951D01*
X0393726Y0010604D01*
X0393562Y0010261D01*
X0393389Y0009922D01*
X0393208Y0009587D01*
X0393019Y0009256D01*
X0392822Y0008931D01*
X0392618Y0008610D01*
X0392405Y0008294D01*
X0392185Y0007984D01*
X0391958Y0007678D01*
X0391723Y0007379D01*
X0391481Y0007085D01*
X0391233Y0006797D01*
X0390977Y0006515D01*
X0390714Y0006240D01*
X0390445Y0005971D01*
X0390170Y0005708D01*
X0389888Y0005452D01*
X0389600Y0005204D01*
X0389306Y0004962D01*
X0389007Y0004727D01*
X0388701Y0004500D01*
X0388391Y0004280D01*
X0388075Y0004067D01*
X0387754Y0003863D01*
X0387429Y0003666D01*
X0387098Y0003477D01*
X0386763Y0003296D01*
X0386424Y0003123D01*
X0386081Y0002959D01*
X0385734Y0002802D01*
X0385383Y0002655D01*
X0385029Y0002515D01*
X0384672Y0002385D01*
X0384311Y0002263D01*
X0383948Y0002150D01*
X0383582Y0002045D01*
X0383214Y0001950D01*
X0382843Y0001863D01*
X0382471Y0001785D01*
X0382096Y0001717D01*
X0381720Y0001657D01*
X0381343Y0001607D01*
X0380965Y0001566D01*
X0380586Y0001533D01*
X0380206Y0001510D01*
X0379826Y0001497D01*
X0379445Y0001492D01*
X0219996Y0001492D01*
X0219615Y0001497D01*
X0219235Y0001510D01*
X0218855Y0001533D01*
X0218476Y0001566D01*
X0218098Y0001607D01*
X0217721Y0001657D01*
X0217345Y0001717D01*
X0216970Y0001785D01*
X0216598Y0001863D01*
X0216227Y0001950D01*
X0215859Y0002045D01*
X0215493Y0002150D01*
X0215130Y0002263D01*
X0214769Y0002385D01*
X0214412Y0002515D01*
X0214058Y0002655D01*
X0213707Y0002802D01*
X0213360Y0002959D01*
X0213017Y0003123D01*
X0212678Y0003296D01*
X0212343Y0003477D01*
X0212012Y0003666D01*
X0211687Y0003863D01*
X0211366Y0004067D01*
X0211050Y0004280D01*
X0210740Y0004500D01*
X0210434Y0004727D01*
X0210135Y0004962D01*
X0209841Y0005204D01*
X0209553Y0005452D01*
X0209271Y0005708D01*
X0208996Y0005971D01*
X0208727Y0006240D01*
X0208464Y0006515D01*
X0208208Y0006797D01*
X0207960Y0007085D01*
X0207718Y0007379D01*
X0207483Y0007678D01*
X0207256Y0007984D01*
X0207036Y0008294D01*
X0206823Y0008610D01*
X0206619Y0008931D01*
X0206422Y0009256D01*
X0206233Y0009587D01*
X0206052Y0009922D01*
X0205879Y0010261D01*
X0205715Y0010604D01*
X0205558Y0010951D01*
X0205411Y0011302D01*
X0205271Y0011656D01*
X0205141Y0012013D01*
X0205019Y0012374D01*
X0204906Y0012737D01*
X0204801Y0013103D01*
X0204706Y0013471D01*
X0204619Y0013842D01*
X0204541Y0014214D01*
X0204473Y0014589D01*
X0204413Y0014965D01*
X0204363Y0015342D01*
X0204322Y0015720D01*
X0204289Y0016099D01*
X0204266Y0016479D01*
X0204253Y0016859D01*
X0204248Y0017240D01*
X0192437Y0017240D02*
X0192432Y0016859D01*
X0192419Y0016479D01*
X0192396Y0016099D01*
X0192363Y0015720D01*
X0192322Y0015342D01*
X0192272Y0014965D01*
X0192212Y0014589D01*
X0192144Y0014214D01*
X0192066Y0013842D01*
X0191979Y0013471D01*
X0191884Y0013103D01*
X0191779Y0012737D01*
X0191666Y0012374D01*
X0191544Y0012013D01*
X0191414Y0011656D01*
X0191274Y0011302D01*
X0191127Y0010951D01*
X0190970Y0010604D01*
X0190806Y0010261D01*
X0190633Y0009922D01*
X0190452Y0009587D01*
X0190263Y0009256D01*
X0190066Y0008931D01*
X0189862Y0008610D01*
X0189649Y0008294D01*
X0189429Y0007984D01*
X0189202Y0007678D01*
X0188967Y0007379D01*
X0188725Y0007085D01*
X0188477Y0006797D01*
X0188221Y0006515D01*
X0187958Y0006240D01*
X0187689Y0005971D01*
X0187414Y0005708D01*
X0187132Y0005452D01*
X0186844Y0005204D01*
X0186550Y0004962D01*
X0186251Y0004727D01*
X0185945Y0004500D01*
X0185635Y0004280D01*
X0185319Y0004067D01*
X0184998Y0003863D01*
X0184673Y0003666D01*
X0184342Y0003477D01*
X0184007Y0003296D01*
X0183668Y0003123D01*
X0183325Y0002959D01*
X0182978Y0002802D01*
X0182627Y0002655D01*
X0182273Y0002515D01*
X0181916Y0002385D01*
X0181555Y0002263D01*
X0181192Y0002150D01*
X0180826Y0002045D01*
X0180458Y0001950D01*
X0180087Y0001863D01*
X0179715Y0001785D01*
X0179340Y0001717D01*
X0178964Y0001657D01*
X0178587Y0001607D01*
X0178209Y0001566D01*
X0177830Y0001533D01*
X0177450Y0001510D01*
X0177070Y0001497D01*
X0176689Y0001492D01*
X0017240Y0001492D01*
X0016859Y0001497D01*
X0016479Y0001510D01*
X0016099Y0001533D01*
X0015720Y0001566D01*
X0015342Y0001607D01*
X0014965Y0001657D01*
X0014589Y0001717D01*
X0014214Y0001785D01*
X0013842Y0001863D01*
X0013471Y0001950D01*
X0013103Y0002045D01*
X0012737Y0002150D01*
X0012374Y0002263D01*
X0012013Y0002385D01*
X0011656Y0002515D01*
X0011302Y0002655D01*
X0010951Y0002802D01*
X0010604Y0002959D01*
X0010261Y0003123D01*
X0009922Y0003296D01*
X0009587Y0003477D01*
X0009256Y0003666D01*
X0008931Y0003863D01*
X0008610Y0004067D01*
X0008294Y0004280D01*
X0007984Y0004500D01*
X0007678Y0004727D01*
X0007379Y0004962D01*
X0007085Y0005204D01*
X0006797Y0005452D01*
X0006515Y0005708D01*
X0006240Y0005971D01*
X0005971Y0006240D01*
X0005708Y0006515D01*
X0005452Y0006797D01*
X0005204Y0007085D01*
X0004962Y0007379D01*
X0004727Y0007678D01*
X0004500Y0007984D01*
X0004280Y0008294D01*
X0004067Y0008610D01*
X0003863Y0008931D01*
X0003666Y0009256D01*
X0003477Y0009587D01*
X0003296Y0009922D01*
X0003123Y0010261D01*
X0002959Y0010604D01*
X0002802Y0010951D01*
X0002655Y0011302D01*
X0002515Y0011656D01*
X0002385Y0012013D01*
X0002263Y0012374D01*
X0002150Y0012737D01*
X0002045Y0013103D01*
X0001950Y0013471D01*
X0001863Y0013842D01*
X0001785Y0014214D01*
X0001717Y0014589D01*
X0001657Y0014965D01*
X0001607Y0015342D01*
X0001566Y0015720D01*
X0001533Y0016099D01*
X0001510Y0016479D01*
X0001497Y0016859D01*
X0001492Y0017240D01*
X0041846Y0026098D02*
X0041848Y0026251D01*
X0041854Y0026405D01*
X0041864Y0026558D01*
X0041878Y0026710D01*
X0041896Y0026863D01*
X0041918Y0027014D01*
X0041943Y0027165D01*
X0041973Y0027316D01*
X0042007Y0027466D01*
X0042044Y0027614D01*
X0042085Y0027762D01*
X0042130Y0027908D01*
X0042179Y0028054D01*
X0042232Y0028198D01*
X0042288Y0028340D01*
X0042348Y0028481D01*
X0042412Y0028621D01*
X0042479Y0028759D01*
X0042550Y0028895D01*
X0042625Y0029029D01*
X0042702Y0029161D01*
X0042784Y0029291D01*
X0042868Y0029419D01*
X0042956Y0029545D01*
X0043047Y0029668D01*
X0043141Y0029789D01*
X0043239Y0029907D01*
X0043339Y0030023D01*
X0043443Y0030136D01*
X0043549Y0030247D01*
X0043658Y0030355D01*
X0043770Y0030460D01*
X0043884Y0030561D01*
X0044002Y0030660D01*
X0044121Y0030756D01*
X0044243Y0030849D01*
X0044368Y0030938D01*
X0044495Y0031025D01*
X0044624Y0031107D01*
X0044755Y0031187D01*
X0044888Y0031263D01*
X0045023Y0031336D01*
X0045160Y0031405D01*
X0045299Y0031470D01*
X0045439Y0031532D01*
X0045581Y0031590D01*
X0045724Y0031645D01*
X0045869Y0031696D01*
X0046015Y0031743D01*
X0046162Y0031786D01*
X0046310Y0031825D01*
X0046459Y0031861D01*
X0046609Y0031892D01*
X0046760Y0031920D01*
X0046911Y0031944D01*
X0047064Y0031964D01*
X0047216Y0031980D01*
X0047369Y0031992D01*
X0047522Y0032000D01*
X0047675Y0032004D01*
X0047829Y0032004D01*
X0047982Y0032000D01*
X0048135Y0031992D01*
X0048288Y0031980D01*
X0048440Y0031964D01*
X0048593Y0031944D01*
X0048744Y0031920D01*
X0048895Y0031892D01*
X0049045Y0031861D01*
X0049194Y0031825D01*
X0049342Y0031786D01*
X0049489Y0031743D01*
X0049635Y0031696D01*
X0049780Y0031645D01*
X0049923Y0031590D01*
X0050065Y0031532D01*
X0050205Y0031470D01*
X0050344Y0031405D01*
X0050481Y0031336D01*
X0050616Y0031263D01*
X0050749Y0031187D01*
X0050880Y0031107D01*
X0051009Y0031025D01*
X0051136Y0030938D01*
X0051261Y0030849D01*
X0051383Y0030756D01*
X0051502Y0030660D01*
X0051620Y0030561D01*
X0051734Y0030460D01*
X0051846Y0030355D01*
X0051955Y0030247D01*
X0052061Y0030136D01*
X0052165Y0030023D01*
X0052265Y0029907D01*
X0052363Y0029789D01*
X0052457Y0029668D01*
X0052548Y0029545D01*
X0052636Y0029419D01*
X0052720Y0029291D01*
X0052802Y0029161D01*
X0052879Y0029029D01*
X0052954Y0028895D01*
X0053025Y0028759D01*
X0053092Y0028621D01*
X0053156Y0028481D01*
X0053216Y0028340D01*
X0053272Y0028198D01*
X0053325Y0028054D01*
X0053374Y0027908D01*
X0053419Y0027762D01*
X0053460Y0027614D01*
X0053497Y0027466D01*
X0053531Y0027316D01*
X0053561Y0027165D01*
X0053586Y0027014D01*
X0053608Y0026863D01*
X0053626Y0026710D01*
X0053640Y0026558D01*
X0053650Y0026405D01*
X0053656Y0026251D01*
X0053658Y0026098D01*
X0053656Y0025945D01*
X0053650Y0025791D01*
X0053640Y0025638D01*
X0053626Y0025486D01*
X0053608Y0025333D01*
X0053586Y0025182D01*
X0053561Y0025031D01*
X0053531Y0024880D01*
X0053497Y0024730D01*
X0053460Y0024582D01*
X0053419Y0024434D01*
X0053374Y0024288D01*
X0053325Y0024142D01*
X0053272Y0023998D01*
X0053216Y0023856D01*
X0053156Y0023715D01*
X0053092Y0023575D01*
X0053025Y0023437D01*
X0052954Y0023301D01*
X0052879Y0023167D01*
X0052802Y0023035D01*
X0052720Y0022905D01*
X0052636Y0022777D01*
X0052548Y0022651D01*
X0052457Y0022528D01*
X0052363Y0022407D01*
X0052265Y0022289D01*
X0052165Y0022173D01*
X0052061Y0022060D01*
X0051955Y0021949D01*
X0051846Y0021841D01*
X0051734Y0021736D01*
X0051620Y0021635D01*
X0051502Y0021536D01*
X0051383Y0021440D01*
X0051261Y0021347D01*
X0051136Y0021258D01*
X0051009Y0021171D01*
X0050880Y0021089D01*
X0050749Y0021009D01*
X0050616Y0020933D01*
X0050481Y0020860D01*
X0050344Y0020791D01*
X0050205Y0020726D01*
X0050065Y0020664D01*
X0049923Y0020606D01*
X0049780Y0020551D01*
X0049635Y0020500D01*
X0049489Y0020453D01*
X0049342Y0020410D01*
X0049194Y0020371D01*
X0049045Y0020335D01*
X0048895Y0020304D01*
X0048744Y0020276D01*
X0048593Y0020252D01*
X0048440Y0020232D01*
X0048288Y0020216D01*
X0048135Y0020204D01*
X0047982Y0020196D01*
X0047829Y0020192D01*
X0047675Y0020192D01*
X0047522Y0020196D01*
X0047369Y0020204D01*
X0047216Y0020216D01*
X0047064Y0020232D01*
X0046911Y0020252D01*
X0046760Y0020276D01*
X0046609Y0020304D01*
X0046459Y0020335D01*
X0046310Y0020371D01*
X0046162Y0020410D01*
X0046015Y0020453D01*
X0045869Y0020500D01*
X0045724Y0020551D01*
X0045581Y0020606D01*
X0045439Y0020664D01*
X0045299Y0020726D01*
X0045160Y0020791D01*
X0045023Y0020860D01*
X0044888Y0020933D01*
X0044755Y0021009D01*
X0044624Y0021089D01*
X0044495Y0021171D01*
X0044368Y0021258D01*
X0044243Y0021347D01*
X0044121Y0021440D01*
X0044002Y0021536D01*
X0043884Y0021635D01*
X0043770Y0021736D01*
X0043658Y0021841D01*
X0043549Y0021949D01*
X0043443Y0022060D01*
X0043339Y0022173D01*
X0043239Y0022289D01*
X0043141Y0022407D01*
X0043047Y0022528D01*
X0042956Y0022651D01*
X0042868Y0022777D01*
X0042784Y0022905D01*
X0042702Y0023035D01*
X0042625Y0023167D01*
X0042550Y0023301D01*
X0042479Y0023437D01*
X0042412Y0023575D01*
X0042348Y0023715D01*
X0042288Y0023856D01*
X0042232Y0023998D01*
X0042179Y0024142D01*
X0042130Y0024288D01*
X0042085Y0024434D01*
X0042044Y0024582D01*
X0042007Y0024730D01*
X0041973Y0024880D01*
X0041943Y0025031D01*
X0041918Y0025182D01*
X0041896Y0025333D01*
X0041878Y0025486D01*
X0041864Y0025638D01*
X0041854Y0025791D01*
X0041848Y0025945D01*
X0041846Y0026098D01*
X0091059Y0026098D02*
X0091061Y0026251D01*
X0091067Y0026405D01*
X0091077Y0026558D01*
X0091091Y0026710D01*
X0091109Y0026863D01*
X0091131Y0027014D01*
X0091156Y0027165D01*
X0091186Y0027316D01*
X0091220Y0027466D01*
X0091257Y0027614D01*
X0091298Y0027762D01*
X0091343Y0027908D01*
X0091392Y0028054D01*
X0091445Y0028198D01*
X0091501Y0028340D01*
X0091561Y0028481D01*
X0091625Y0028621D01*
X0091692Y0028759D01*
X0091763Y0028895D01*
X0091838Y0029029D01*
X0091915Y0029161D01*
X0091997Y0029291D01*
X0092081Y0029419D01*
X0092169Y0029545D01*
X0092260Y0029668D01*
X0092354Y0029789D01*
X0092452Y0029907D01*
X0092552Y0030023D01*
X0092656Y0030136D01*
X0092762Y0030247D01*
X0092871Y0030355D01*
X0092983Y0030460D01*
X0093097Y0030561D01*
X0093215Y0030660D01*
X0093334Y0030756D01*
X0093456Y0030849D01*
X0093581Y0030938D01*
X0093708Y0031025D01*
X0093837Y0031107D01*
X0093968Y0031187D01*
X0094101Y0031263D01*
X0094236Y0031336D01*
X0094373Y0031405D01*
X0094512Y0031470D01*
X0094652Y0031532D01*
X0094794Y0031590D01*
X0094937Y0031645D01*
X0095082Y0031696D01*
X0095228Y0031743D01*
X0095375Y0031786D01*
X0095523Y0031825D01*
X0095672Y0031861D01*
X0095822Y0031892D01*
X0095973Y0031920D01*
X0096124Y0031944D01*
X0096277Y0031964D01*
X0096429Y0031980D01*
X0096582Y0031992D01*
X0096735Y0032000D01*
X0096888Y0032004D01*
X0097042Y0032004D01*
X0097195Y0032000D01*
X0097348Y0031992D01*
X0097501Y0031980D01*
X0097653Y0031964D01*
X0097806Y0031944D01*
X0097957Y0031920D01*
X0098108Y0031892D01*
X0098258Y0031861D01*
X0098407Y0031825D01*
X0098555Y0031786D01*
X0098702Y0031743D01*
X0098848Y0031696D01*
X0098993Y0031645D01*
X0099136Y0031590D01*
X0099278Y0031532D01*
X0099418Y0031470D01*
X0099557Y0031405D01*
X0099694Y0031336D01*
X0099829Y0031263D01*
X0099962Y0031187D01*
X0100093Y0031107D01*
X0100222Y0031025D01*
X0100349Y0030938D01*
X0100474Y0030849D01*
X0100596Y0030756D01*
X0100715Y0030660D01*
X0100833Y0030561D01*
X0100947Y0030460D01*
X0101059Y0030355D01*
X0101168Y0030247D01*
X0101274Y0030136D01*
X0101378Y0030023D01*
X0101478Y0029907D01*
X0101576Y0029789D01*
X0101670Y0029668D01*
X0101761Y0029545D01*
X0101849Y0029419D01*
X0101933Y0029291D01*
X0102015Y0029161D01*
X0102092Y0029029D01*
X0102167Y0028895D01*
X0102238Y0028759D01*
X0102305Y0028621D01*
X0102369Y0028481D01*
X0102429Y0028340D01*
X0102485Y0028198D01*
X0102538Y0028054D01*
X0102587Y0027908D01*
X0102632Y0027762D01*
X0102673Y0027614D01*
X0102710Y0027466D01*
X0102744Y0027316D01*
X0102774Y0027165D01*
X0102799Y0027014D01*
X0102821Y0026863D01*
X0102839Y0026710D01*
X0102853Y0026558D01*
X0102863Y0026405D01*
X0102869Y0026251D01*
X0102871Y0026098D01*
X0102869Y0025945D01*
X0102863Y0025791D01*
X0102853Y0025638D01*
X0102839Y0025486D01*
X0102821Y0025333D01*
X0102799Y0025182D01*
X0102774Y0025031D01*
X0102744Y0024880D01*
X0102710Y0024730D01*
X0102673Y0024582D01*
X0102632Y0024434D01*
X0102587Y0024288D01*
X0102538Y0024142D01*
X0102485Y0023998D01*
X0102429Y0023856D01*
X0102369Y0023715D01*
X0102305Y0023575D01*
X0102238Y0023437D01*
X0102167Y0023301D01*
X0102092Y0023167D01*
X0102015Y0023035D01*
X0101933Y0022905D01*
X0101849Y0022777D01*
X0101761Y0022651D01*
X0101670Y0022528D01*
X0101576Y0022407D01*
X0101478Y0022289D01*
X0101378Y0022173D01*
X0101274Y0022060D01*
X0101168Y0021949D01*
X0101059Y0021841D01*
X0100947Y0021736D01*
X0100833Y0021635D01*
X0100715Y0021536D01*
X0100596Y0021440D01*
X0100474Y0021347D01*
X0100349Y0021258D01*
X0100222Y0021171D01*
X0100093Y0021089D01*
X0099962Y0021009D01*
X0099829Y0020933D01*
X0099694Y0020860D01*
X0099557Y0020791D01*
X0099418Y0020726D01*
X0099278Y0020664D01*
X0099136Y0020606D01*
X0098993Y0020551D01*
X0098848Y0020500D01*
X0098702Y0020453D01*
X0098555Y0020410D01*
X0098407Y0020371D01*
X0098258Y0020335D01*
X0098108Y0020304D01*
X0097957Y0020276D01*
X0097806Y0020252D01*
X0097653Y0020232D01*
X0097501Y0020216D01*
X0097348Y0020204D01*
X0097195Y0020196D01*
X0097042Y0020192D01*
X0096888Y0020192D01*
X0096735Y0020196D01*
X0096582Y0020204D01*
X0096429Y0020216D01*
X0096277Y0020232D01*
X0096124Y0020252D01*
X0095973Y0020276D01*
X0095822Y0020304D01*
X0095672Y0020335D01*
X0095523Y0020371D01*
X0095375Y0020410D01*
X0095228Y0020453D01*
X0095082Y0020500D01*
X0094937Y0020551D01*
X0094794Y0020606D01*
X0094652Y0020664D01*
X0094512Y0020726D01*
X0094373Y0020791D01*
X0094236Y0020860D01*
X0094101Y0020933D01*
X0093968Y0021009D01*
X0093837Y0021089D01*
X0093708Y0021171D01*
X0093581Y0021258D01*
X0093456Y0021347D01*
X0093334Y0021440D01*
X0093215Y0021536D01*
X0093097Y0021635D01*
X0092983Y0021736D01*
X0092871Y0021841D01*
X0092762Y0021949D01*
X0092656Y0022060D01*
X0092552Y0022173D01*
X0092452Y0022289D01*
X0092354Y0022407D01*
X0092260Y0022528D01*
X0092169Y0022651D01*
X0092081Y0022777D01*
X0091997Y0022905D01*
X0091915Y0023035D01*
X0091838Y0023167D01*
X0091763Y0023301D01*
X0091692Y0023437D01*
X0091625Y0023575D01*
X0091561Y0023715D01*
X0091501Y0023856D01*
X0091445Y0023998D01*
X0091392Y0024142D01*
X0091343Y0024288D01*
X0091298Y0024434D01*
X0091257Y0024582D01*
X0091220Y0024730D01*
X0091186Y0024880D01*
X0091156Y0025031D01*
X0091131Y0025182D01*
X0091109Y0025333D01*
X0091091Y0025486D01*
X0091077Y0025638D01*
X0091067Y0025791D01*
X0091061Y0025945D01*
X0091059Y0026098D01*
X0140271Y0026098D02*
X0140273Y0026251D01*
X0140279Y0026405D01*
X0140289Y0026558D01*
X0140303Y0026710D01*
X0140321Y0026863D01*
X0140343Y0027014D01*
X0140368Y0027165D01*
X0140398Y0027316D01*
X0140432Y0027466D01*
X0140469Y0027614D01*
X0140510Y0027762D01*
X0140555Y0027908D01*
X0140604Y0028054D01*
X0140657Y0028198D01*
X0140713Y0028340D01*
X0140773Y0028481D01*
X0140837Y0028621D01*
X0140904Y0028759D01*
X0140975Y0028895D01*
X0141050Y0029029D01*
X0141127Y0029161D01*
X0141209Y0029291D01*
X0141293Y0029419D01*
X0141381Y0029545D01*
X0141472Y0029668D01*
X0141566Y0029789D01*
X0141664Y0029907D01*
X0141764Y0030023D01*
X0141868Y0030136D01*
X0141974Y0030247D01*
X0142083Y0030355D01*
X0142195Y0030460D01*
X0142309Y0030561D01*
X0142427Y0030660D01*
X0142546Y0030756D01*
X0142668Y0030849D01*
X0142793Y0030938D01*
X0142920Y0031025D01*
X0143049Y0031107D01*
X0143180Y0031187D01*
X0143313Y0031263D01*
X0143448Y0031336D01*
X0143585Y0031405D01*
X0143724Y0031470D01*
X0143864Y0031532D01*
X0144006Y0031590D01*
X0144149Y0031645D01*
X0144294Y0031696D01*
X0144440Y0031743D01*
X0144587Y0031786D01*
X0144735Y0031825D01*
X0144884Y0031861D01*
X0145034Y0031892D01*
X0145185Y0031920D01*
X0145336Y0031944D01*
X0145489Y0031964D01*
X0145641Y0031980D01*
X0145794Y0031992D01*
X0145947Y0032000D01*
X0146100Y0032004D01*
X0146254Y0032004D01*
X0146407Y0032000D01*
X0146560Y0031992D01*
X0146713Y0031980D01*
X0146865Y0031964D01*
X0147018Y0031944D01*
X0147169Y0031920D01*
X0147320Y0031892D01*
X0147470Y0031861D01*
X0147619Y0031825D01*
X0147767Y0031786D01*
X0147914Y0031743D01*
X0148060Y0031696D01*
X0148205Y0031645D01*
X0148348Y0031590D01*
X0148490Y0031532D01*
X0148630Y0031470D01*
X0148769Y0031405D01*
X0148906Y0031336D01*
X0149041Y0031263D01*
X0149174Y0031187D01*
X0149305Y0031107D01*
X0149434Y0031025D01*
X0149561Y0030938D01*
X0149686Y0030849D01*
X0149808Y0030756D01*
X0149927Y0030660D01*
X0150045Y0030561D01*
X0150159Y0030460D01*
X0150271Y0030355D01*
X0150380Y0030247D01*
X0150486Y0030136D01*
X0150590Y0030023D01*
X0150690Y0029907D01*
X0150788Y0029789D01*
X0150882Y0029668D01*
X0150973Y0029545D01*
X0151061Y0029419D01*
X0151145Y0029291D01*
X0151227Y0029161D01*
X0151304Y0029029D01*
X0151379Y0028895D01*
X0151450Y0028759D01*
X0151517Y0028621D01*
X0151581Y0028481D01*
X0151641Y0028340D01*
X0151697Y0028198D01*
X0151750Y0028054D01*
X0151799Y0027908D01*
X0151844Y0027762D01*
X0151885Y0027614D01*
X0151922Y0027466D01*
X0151956Y0027316D01*
X0151986Y0027165D01*
X0152011Y0027014D01*
X0152033Y0026863D01*
X0152051Y0026710D01*
X0152065Y0026558D01*
X0152075Y0026405D01*
X0152081Y0026251D01*
X0152083Y0026098D01*
X0152081Y0025945D01*
X0152075Y0025791D01*
X0152065Y0025638D01*
X0152051Y0025486D01*
X0152033Y0025333D01*
X0152011Y0025182D01*
X0151986Y0025031D01*
X0151956Y0024880D01*
X0151922Y0024730D01*
X0151885Y0024582D01*
X0151844Y0024434D01*
X0151799Y0024288D01*
X0151750Y0024142D01*
X0151697Y0023998D01*
X0151641Y0023856D01*
X0151581Y0023715D01*
X0151517Y0023575D01*
X0151450Y0023437D01*
X0151379Y0023301D01*
X0151304Y0023167D01*
X0151227Y0023035D01*
X0151145Y0022905D01*
X0151061Y0022777D01*
X0150973Y0022651D01*
X0150882Y0022528D01*
X0150788Y0022407D01*
X0150690Y0022289D01*
X0150590Y0022173D01*
X0150486Y0022060D01*
X0150380Y0021949D01*
X0150271Y0021841D01*
X0150159Y0021736D01*
X0150045Y0021635D01*
X0149927Y0021536D01*
X0149808Y0021440D01*
X0149686Y0021347D01*
X0149561Y0021258D01*
X0149434Y0021171D01*
X0149305Y0021089D01*
X0149174Y0021009D01*
X0149041Y0020933D01*
X0148906Y0020860D01*
X0148769Y0020791D01*
X0148630Y0020726D01*
X0148490Y0020664D01*
X0148348Y0020606D01*
X0148205Y0020551D01*
X0148060Y0020500D01*
X0147914Y0020453D01*
X0147767Y0020410D01*
X0147619Y0020371D01*
X0147470Y0020335D01*
X0147320Y0020304D01*
X0147169Y0020276D01*
X0147018Y0020252D01*
X0146865Y0020232D01*
X0146713Y0020216D01*
X0146560Y0020204D01*
X0146407Y0020196D01*
X0146254Y0020192D01*
X0146100Y0020192D01*
X0145947Y0020196D01*
X0145794Y0020204D01*
X0145641Y0020216D01*
X0145489Y0020232D01*
X0145336Y0020252D01*
X0145185Y0020276D01*
X0145034Y0020304D01*
X0144884Y0020335D01*
X0144735Y0020371D01*
X0144587Y0020410D01*
X0144440Y0020453D01*
X0144294Y0020500D01*
X0144149Y0020551D01*
X0144006Y0020606D01*
X0143864Y0020664D01*
X0143724Y0020726D01*
X0143585Y0020791D01*
X0143448Y0020860D01*
X0143313Y0020933D01*
X0143180Y0021009D01*
X0143049Y0021089D01*
X0142920Y0021171D01*
X0142793Y0021258D01*
X0142668Y0021347D01*
X0142546Y0021440D01*
X0142427Y0021536D01*
X0142309Y0021635D01*
X0142195Y0021736D01*
X0142083Y0021841D01*
X0141974Y0021949D01*
X0141868Y0022060D01*
X0141764Y0022173D01*
X0141664Y0022289D01*
X0141566Y0022407D01*
X0141472Y0022528D01*
X0141381Y0022651D01*
X0141293Y0022777D01*
X0141209Y0022905D01*
X0141127Y0023035D01*
X0141050Y0023167D01*
X0140975Y0023301D01*
X0140904Y0023437D01*
X0140837Y0023575D01*
X0140773Y0023715D01*
X0140713Y0023856D01*
X0140657Y0023998D01*
X0140604Y0024142D01*
X0140555Y0024288D01*
X0140510Y0024434D01*
X0140469Y0024582D01*
X0140432Y0024730D01*
X0140398Y0024880D01*
X0140368Y0025031D01*
X0140343Y0025182D01*
X0140321Y0025333D01*
X0140303Y0025486D01*
X0140289Y0025638D01*
X0140279Y0025791D01*
X0140273Y0025945D01*
X0140271Y0026098D01*
X0140271Y0085154D02*
X0140273Y0085307D01*
X0140279Y0085461D01*
X0140289Y0085614D01*
X0140303Y0085766D01*
X0140321Y0085919D01*
X0140343Y0086070D01*
X0140368Y0086221D01*
X0140398Y0086372D01*
X0140432Y0086522D01*
X0140469Y0086670D01*
X0140510Y0086818D01*
X0140555Y0086964D01*
X0140604Y0087110D01*
X0140657Y0087254D01*
X0140713Y0087396D01*
X0140773Y0087537D01*
X0140837Y0087677D01*
X0140904Y0087815D01*
X0140975Y0087951D01*
X0141050Y0088085D01*
X0141127Y0088217D01*
X0141209Y0088347D01*
X0141293Y0088475D01*
X0141381Y0088601D01*
X0141472Y0088724D01*
X0141566Y0088845D01*
X0141664Y0088963D01*
X0141764Y0089079D01*
X0141868Y0089192D01*
X0141974Y0089303D01*
X0142083Y0089411D01*
X0142195Y0089516D01*
X0142309Y0089617D01*
X0142427Y0089716D01*
X0142546Y0089812D01*
X0142668Y0089905D01*
X0142793Y0089994D01*
X0142920Y0090081D01*
X0143049Y0090163D01*
X0143180Y0090243D01*
X0143313Y0090319D01*
X0143448Y0090392D01*
X0143585Y0090461D01*
X0143724Y0090526D01*
X0143864Y0090588D01*
X0144006Y0090646D01*
X0144149Y0090701D01*
X0144294Y0090752D01*
X0144440Y0090799D01*
X0144587Y0090842D01*
X0144735Y0090881D01*
X0144884Y0090917D01*
X0145034Y0090948D01*
X0145185Y0090976D01*
X0145336Y0091000D01*
X0145489Y0091020D01*
X0145641Y0091036D01*
X0145794Y0091048D01*
X0145947Y0091056D01*
X0146100Y0091060D01*
X0146254Y0091060D01*
X0146407Y0091056D01*
X0146560Y0091048D01*
X0146713Y0091036D01*
X0146865Y0091020D01*
X0147018Y0091000D01*
X0147169Y0090976D01*
X0147320Y0090948D01*
X0147470Y0090917D01*
X0147619Y0090881D01*
X0147767Y0090842D01*
X0147914Y0090799D01*
X0148060Y0090752D01*
X0148205Y0090701D01*
X0148348Y0090646D01*
X0148490Y0090588D01*
X0148630Y0090526D01*
X0148769Y0090461D01*
X0148906Y0090392D01*
X0149041Y0090319D01*
X0149174Y0090243D01*
X0149305Y0090163D01*
X0149434Y0090081D01*
X0149561Y0089994D01*
X0149686Y0089905D01*
X0149808Y0089812D01*
X0149927Y0089716D01*
X0150045Y0089617D01*
X0150159Y0089516D01*
X0150271Y0089411D01*
X0150380Y0089303D01*
X0150486Y0089192D01*
X0150590Y0089079D01*
X0150690Y0088963D01*
X0150788Y0088845D01*
X0150882Y0088724D01*
X0150973Y0088601D01*
X0151061Y0088475D01*
X0151145Y0088347D01*
X0151227Y0088217D01*
X0151304Y0088085D01*
X0151379Y0087951D01*
X0151450Y0087815D01*
X0151517Y0087677D01*
X0151581Y0087537D01*
X0151641Y0087396D01*
X0151697Y0087254D01*
X0151750Y0087110D01*
X0151799Y0086964D01*
X0151844Y0086818D01*
X0151885Y0086670D01*
X0151922Y0086522D01*
X0151956Y0086372D01*
X0151986Y0086221D01*
X0152011Y0086070D01*
X0152033Y0085919D01*
X0152051Y0085766D01*
X0152065Y0085614D01*
X0152075Y0085461D01*
X0152081Y0085307D01*
X0152083Y0085154D01*
X0152081Y0085001D01*
X0152075Y0084847D01*
X0152065Y0084694D01*
X0152051Y0084542D01*
X0152033Y0084389D01*
X0152011Y0084238D01*
X0151986Y0084087D01*
X0151956Y0083936D01*
X0151922Y0083786D01*
X0151885Y0083638D01*
X0151844Y0083490D01*
X0151799Y0083344D01*
X0151750Y0083198D01*
X0151697Y0083054D01*
X0151641Y0082912D01*
X0151581Y0082771D01*
X0151517Y0082631D01*
X0151450Y0082493D01*
X0151379Y0082357D01*
X0151304Y0082223D01*
X0151227Y0082091D01*
X0151145Y0081961D01*
X0151061Y0081833D01*
X0150973Y0081707D01*
X0150882Y0081584D01*
X0150788Y0081463D01*
X0150690Y0081345D01*
X0150590Y0081229D01*
X0150486Y0081116D01*
X0150380Y0081005D01*
X0150271Y0080897D01*
X0150159Y0080792D01*
X0150045Y0080691D01*
X0149927Y0080592D01*
X0149808Y0080496D01*
X0149686Y0080403D01*
X0149561Y0080314D01*
X0149434Y0080227D01*
X0149305Y0080145D01*
X0149174Y0080065D01*
X0149041Y0079989D01*
X0148906Y0079916D01*
X0148769Y0079847D01*
X0148630Y0079782D01*
X0148490Y0079720D01*
X0148348Y0079662D01*
X0148205Y0079607D01*
X0148060Y0079556D01*
X0147914Y0079509D01*
X0147767Y0079466D01*
X0147619Y0079427D01*
X0147470Y0079391D01*
X0147320Y0079360D01*
X0147169Y0079332D01*
X0147018Y0079308D01*
X0146865Y0079288D01*
X0146713Y0079272D01*
X0146560Y0079260D01*
X0146407Y0079252D01*
X0146254Y0079248D01*
X0146100Y0079248D01*
X0145947Y0079252D01*
X0145794Y0079260D01*
X0145641Y0079272D01*
X0145489Y0079288D01*
X0145336Y0079308D01*
X0145185Y0079332D01*
X0145034Y0079360D01*
X0144884Y0079391D01*
X0144735Y0079427D01*
X0144587Y0079466D01*
X0144440Y0079509D01*
X0144294Y0079556D01*
X0144149Y0079607D01*
X0144006Y0079662D01*
X0143864Y0079720D01*
X0143724Y0079782D01*
X0143585Y0079847D01*
X0143448Y0079916D01*
X0143313Y0079989D01*
X0143180Y0080065D01*
X0143049Y0080145D01*
X0142920Y0080227D01*
X0142793Y0080314D01*
X0142668Y0080403D01*
X0142546Y0080496D01*
X0142427Y0080592D01*
X0142309Y0080691D01*
X0142195Y0080792D01*
X0142083Y0080897D01*
X0141974Y0081005D01*
X0141868Y0081116D01*
X0141764Y0081229D01*
X0141664Y0081345D01*
X0141566Y0081463D01*
X0141472Y0081584D01*
X0141381Y0081707D01*
X0141293Y0081833D01*
X0141209Y0081961D01*
X0141127Y0082091D01*
X0141050Y0082223D01*
X0140975Y0082357D01*
X0140904Y0082493D01*
X0140837Y0082631D01*
X0140773Y0082771D01*
X0140713Y0082912D01*
X0140657Y0083054D01*
X0140604Y0083198D01*
X0140555Y0083344D01*
X0140510Y0083490D01*
X0140469Y0083638D01*
X0140432Y0083786D01*
X0140398Y0083936D01*
X0140368Y0084087D01*
X0140343Y0084238D01*
X0140321Y0084389D01*
X0140303Y0084542D01*
X0140289Y0084694D01*
X0140279Y0084847D01*
X0140273Y0085001D01*
X0140271Y0085154D01*
X0091059Y0085154D02*
X0091061Y0085307D01*
X0091067Y0085461D01*
X0091077Y0085614D01*
X0091091Y0085766D01*
X0091109Y0085919D01*
X0091131Y0086070D01*
X0091156Y0086221D01*
X0091186Y0086372D01*
X0091220Y0086522D01*
X0091257Y0086670D01*
X0091298Y0086818D01*
X0091343Y0086964D01*
X0091392Y0087110D01*
X0091445Y0087254D01*
X0091501Y0087396D01*
X0091561Y0087537D01*
X0091625Y0087677D01*
X0091692Y0087815D01*
X0091763Y0087951D01*
X0091838Y0088085D01*
X0091915Y0088217D01*
X0091997Y0088347D01*
X0092081Y0088475D01*
X0092169Y0088601D01*
X0092260Y0088724D01*
X0092354Y0088845D01*
X0092452Y0088963D01*
X0092552Y0089079D01*
X0092656Y0089192D01*
X0092762Y0089303D01*
X0092871Y0089411D01*
X0092983Y0089516D01*
X0093097Y0089617D01*
X0093215Y0089716D01*
X0093334Y0089812D01*
X0093456Y0089905D01*
X0093581Y0089994D01*
X0093708Y0090081D01*
X0093837Y0090163D01*
X0093968Y0090243D01*
X0094101Y0090319D01*
X0094236Y0090392D01*
X0094373Y0090461D01*
X0094512Y0090526D01*
X0094652Y0090588D01*
X0094794Y0090646D01*
X0094937Y0090701D01*
X0095082Y0090752D01*
X0095228Y0090799D01*
X0095375Y0090842D01*
X0095523Y0090881D01*
X0095672Y0090917D01*
X0095822Y0090948D01*
X0095973Y0090976D01*
X0096124Y0091000D01*
X0096277Y0091020D01*
X0096429Y0091036D01*
X0096582Y0091048D01*
X0096735Y0091056D01*
X0096888Y0091060D01*
X0097042Y0091060D01*
X0097195Y0091056D01*
X0097348Y0091048D01*
X0097501Y0091036D01*
X0097653Y0091020D01*
X0097806Y0091000D01*
X0097957Y0090976D01*
X0098108Y0090948D01*
X0098258Y0090917D01*
X0098407Y0090881D01*
X0098555Y0090842D01*
X0098702Y0090799D01*
X0098848Y0090752D01*
X0098993Y0090701D01*
X0099136Y0090646D01*
X0099278Y0090588D01*
X0099418Y0090526D01*
X0099557Y0090461D01*
X0099694Y0090392D01*
X0099829Y0090319D01*
X0099962Y0090243D01*
X0100093Y0090163D01*
X0100222Y0090081D01*
X0100349Y0089994D01*
X0100474Y0089905D01*
X0100596Y0089812D01*
X0100715Y0089716D01*
X0100833Y0089617D01*
X0100947Y0089516D01*
X0101059Y0089411D01*
X0101168Y0089303D01*
X0101274Y0089192D01*
X0101378Y0089079D01*
X0101478Y0088963D01*
X0101576Y0088845D01*
X0101670Y0088724D01*
X0101761Y0088601D01*
X0101849Y0088475D01*
X0101933Y0088347D01*
X0102015Y0088217D01*
X0102092Y0088085D01*
X0102167Y0087951D01*
X0102238Y0087815D01*
X0102305Y0087677D01*
X0102369Y0087537D01*
X0102429Y0087396D01*
X0102485Y0087254D01*
X0102538Y0087110D01*
X0102587Y0086964D01*
X0102632Y0086818D01*
X0102673Y0086670D01*
X0102710Y0086522D01*
X0102744Y0086372D01*
X0102774Y0086221D01*
X0102799Y0086070D01*
X0102821Y0085919D01*
X0102839Y0085766D01*
X0102853Y0085614D01*
X0102863Y0085461D01*
X0102869Y0085307D01*
X0102871Y0085154D01*
X0102869Y0085001D01*
X0102863Y0084847D01*
X0102853Y0084694D01*
X0102839Y0084542D01*
X0102821Y0084389D01*
X0102799Y0084238D01*
X0102774Y0084087D01*
X0102744Y0083936D01*
X0102710Y0083786D01*
X0102673Y0083638D01*
X0102632Y0083490D01*
X0102587Y0083344D01*
X0102538Y0083198D01*
X0102485Y0083054D01*
X0102429Y0082912D01*
X0102369Y0082771D01*
X0102305Y0082631D01*
X0102238Y0082493D01*
X0102167Y0082357D01*
X0102092Y0082223D01*
X0102015Y0082091D01*
X0101933Y0081961D01*
X0101849Y0081833D01*
X0101761Y0081707D01*
X0101670Y0081584D01*
X0101576Y0081463D01*
X0101478Y0081345D01*
X0101378Y0081229D01*
X0101274Y0081116D01*
X0101168Y0081005D01*
X0101059Y0080897D01*
X0100947Y0080792D01*
X0100833Y0080691D01*
X0100715Y0080592D01*
X0100596Y0080496D01*
X0100474Y0080403D01*
X0100349Y0080314D01*
X0100222Y0080227D01*
X0100093Y0080145D01*
X0099962Y0080065D01*
X0099829Y0079989D01*
X0099694Y0079916D01*
X0099557Y0079847D01*
X0099418Y0079782D01*
X0099278Y0079720D01*
X0099136Y0079662D01*
X0098993Y0079607D01*
X0098848Y0079556D01*
X0098702Y0079509D01*
X0098555Y0079466D01*
X0098407Y0079427D01*
X0098258Y0079391D01*
X0098108Y0079360D01*
X0097957Y0079332D01*
X0097806Y0079308D01*
X0097653Y0079288D01*
X0097501Y0079272D01*
X0097348Y0079260D01*
X0097195Y0079252D01*
X0097042Y0079248D01*
X0096888Y0079248D01*
X0096735Y0079252D01*
X0096582Y0079260D01*
X0096429Y0079272D01*
X0096277Y0079288D01*
X0096124Y0079308D01*
X0095973Y0079332D01*
X0095822Y0079360D01*
X0095672Y0079391D01*
X0095523Y0079427D01*
X0095375Y0079466D01*
X0095228Y0079509D01*
X0095082Y0079556D01*
X0094937Y0079607D01*
X0094794Y0079662D01*
X0094652Y0079720D01*
X0094512Y0079782D01*
X0094373Y0079847D01*
X0094236Y0079916D01*
X0094101Y0079989D01*
X0093968Y0080065D01*
X0093837Y0080145D01*
X0093708Y0080227D01*
X0093581Y0080314D01*
X0093456Y0080403D01*
X0093334Y0080496D01*
X0093215Y0080592D01*
X0093097Y0080691D01*
X0092983Y0080792D01*
X0092871Y0080897D01*
X0092762Y0081005D01*
X0092656Y0081116D01*
X0092552Y0081229D01*
X0092452Y0081345D01*
X0092354Y0081463D01*
X0092260Y0081584D01*
X0092169Y0081707D01*
X0092081Y0081833D01*
X0091997Y0081961D01*
X0091915Y0082091D01*
X0091838Y0082223D01*
X0091763Y0082357D01*
X0091692Y0082493D01*
X0091625Y0082631D01*
X0091561Y0082771D01*
X0091501Y0082912D01*
X0091445Y0083054D01*
X0091392Y0083198D01*
X0091343Y0083344D01*
X0091298Y0083490D01*
X0091257Y0083638D01*
X0091220Y0083786D01*
X0091186Y0083936D01*
X0091156Y0084087D01*
X0091131Y0084238D01*
X0091109Y0084389D01*
X0091091Y0084542D01*
X0091077Y0084694D01*
X0091067Y0084847D01*
X0091061Y0085001D01*
X0091059Y0085154D01*
X0041846Y0085154D02*
X0041848Y0085307D01*
X0041854Y0085461D01*
X0041864Y0085614D01*
X0041878Y0085766D01*
X0041896Y0085919D01*
X0041918Y0086070D01*
X0041943Y0086221D01*
X0041973Y0086372D01*
X0042007Y0086522D01*
X0042044Y0086670D01*
X0042085Y0086818D01*
X0042130Y0086964D01*
X0042179Y0087110D01*
X0042232Y0087254D01*
X0042288Y0087396D01*
X0042348Y0087537D01*
X0042412Y0087677D01*
X0042479Y0087815D01*
X0042550Y0087951D01*
X0042625Y0088085D01*
X0042702Y0088217D01*
X0042784Y0088347D01*
X0042868Y0088475D01*
X0042956Y0088601D01*
X0043047Y0088724D01*
X0043141Y0088845D01*
X0043239Y0088963D01*
X0043339Y0089079D01*
X0043443Y0089192D01*
X0043549Y0089303D01*
X0043658Y0089411D01*
X0043770Y0089516D01*
X0043884Y0089617D01*
X0044002Y0089716D01*
X0044121Y0089812D01*
X0044243Y0089905D01*
X0044368Y0089994D01*
X0044495Y0090081D01*
X0044624Y0090163D01*
X0044755Y0090243D01*
X0044888Y0090319D01*
X0045023Y0090392D01*
X0045160Y0090461D01*
X0045299Y0090526D01*
X0045439Y0090588D01*
X0045581Y0090646D01*
X0045724Y0090701D01*
X0045869Y0090752D01*
X0046015Y0090799D01*
X0046162Y0090842D01*
X0046310Y0090881D01*
X0046459Y0090917D01*
X0046609Y0090948D01*
X0046760Y0090976D01*
X0046911Y0091000D01*
X0047064Y0091020D01*
X0047216Y0091036D01*
X0047369Y0091048D01*
X0047522Y0091056D01*
X0047675Y0091060D01*
X0047829Y0091060D01*
X0047982Y0091056D01*
X0048135Y0091048D01*
X0048288Y0091036D01*
X0048440Y0091020D01*
X0048593Y0091000D01*
X0048744Y0090976D01*
X0048895Y0090948D01*
X0049045Y0090917D01*
X0049194Y0090881D01*
X0049342Y0090842D01*
X0049489Y0090799D01*
X0049635Y0090752D01*
X0049780Y0090701D01*
X0049923Y0090646D01*
X0050065Y0090588D01*
X0050205Y0090526D01*
X0050344Y0090461D01*
X0050481Y0090392D01*
X0050616Y0090319D01*
X0050749Y0090243D01*
X0050880Y0090163D01*
X0051009Y0090081D01*
X0051136Y0089994D01*
X0051261Y0089905D01*
X0051383Y0089812D01*
X0051502Y0089716D01*
X0051620Y0089617D01*
X0051734Y0089516D01*
X0051846Y0089411D01*
X0051955Y0089303D01*
X0052061Y0089192D01*
X0052165Y0089079D01*
X0052265Y0088963D01*
X0052363Y0088845D01*
X0052457Y0088724D01*
X0052548Y0088601D01*
X0052636Y0088475D01*
X0052720Y0088347D01*
X0052802Y0088217D01*
X0052879Y0088085D01*
X0052954Y0087951D01*
X0053025Y0087815D01*
X0053092Y0087677D01*
X0053156Y0087537D01*
X0053216Y0087396D01*
X0053272Y0087254D01*
X0053325Y0087110D01*
X0053374Y0086964D01*
X0053419Y0086818D01*
X0053460Y0086670D01*
X0053497Y0086522D01*
X0053531Y0086372D01*
X0053561Y0086221D01*
X0053586Y0086070D01*
X0053608Y0085919D01*
X0053626Y0085766D01*
X0053640Y0085614D01*
X0053650Y0085461D01*
X0053656Y0085307D01*
X0053658Y0085154D01*
X0053656Y0085001D01*
X0053650Y0084847D01*
X0053640Y0084694D01*
X0053626Y0084542D01*
X0053608Y0084389D01*
X0053586Y0084238D01*
X0053561Y0084087D01*
X0053531Y0083936D01*
X0053497Y0083786D01*
X0053460Y0083638D01*
X0053419Y0083490D01*
X0053374Y0083344D01*
X0053325Y0083198D01*
X0053272Y0083054D01*
X0053216Y0082912D01*
X0053156Y0082771D01*
X0053092Y0082631D01*
X0053025Y0082493D01*
X0052954Y0082357D01*
X0052879Y0082223D01*
X0052802Y0082091D01*
X0052720Y0081961D01*
X0052636Y0081833D01*
X0052548Y0081707D01*
X0052457Y0081584D01*
X0052363Y0081463D01*
X0052265Y0081345D01*
X0052165Y0081229D01*
X0052061Y0081116D01*
X0051955Y0081005D01*
X0051846Y0080897D01*
X0051734Y0080792D01*
X0051620Y0080691D01*
X0051502Y0080592D01*
X0051383Y0080496D01*
X0051261Y0080403D01*
X0051136Y0080314D01*
X0051009Y0080227D01*
X0050880Y0080145D01*
X0050749Y0080065D01*
X0050616Y0079989D01*
X0050481Y0079916D01*
X0050344Y0079847D01*
X0050205Y0079782D01*
X0050065Y0079720D01*
X0049923Y0079662D01*
X0049780Y0079607D01*
X0049635Y0079556D01*
X0049489Y0079509D01*
X0049342Y0079466D01*
X0049194Y0079427D01*
X0049045Y0079391D01*
X0048895Y0079360D01*
X0048744Y0079332D01*
X0048593Y0079308D01*
X0048440Y0079288D01*
X0048288Y0079272D01*
X0048135Y0079260D01*
X0047982Y0079252D01*
X0047829Y0079248D01*
X0047675Y0079248D01*
X0047522Y0079252D01*
X0047369Y0079260D01*
X0047216Y0079272D01*
X0047064Y0079288D01*
X0046911Y0079308D01*
X0046760Y0079332D01*
X0046609Y0079360D01*
X0046459Y0079391D01*
X0046310Y0079427D01*
X0046162Y0079466D01*
X0046015Y0079509D01*
X0045869Y0079556D01*
X0045724Y0079607D01*
X0045581Y0079662D01*
X0045439Y0079720D01*
X0045299Y0079782D01*
X0045160Y0079847D01*
X0045023Y0079916D01*
X0044888Y0079989D01*
X0044755Y0080065D01*
X0044624Y0080145D01*
X0044495Y0080227D01*
X0044368Y0080314D01*
X0044243Y0080403D01*
X0044121Y0080496D01*
X0044002Y0080592D01*
X0043884Y0080691D01*
X0043770Y0080792D01*
X0043658Y0080897D01*
X0043549Y0081005D01*
X0043443Y0081116D01*
X0043339Y0081229D01*
X0043239Y0081345D01*
X0043141Y0081463D01*
X0043047Y0081584D01*
X0042956Y0081707D01*
X0042868Y0081833D01*
X0042784Y0081961D01*
X0042702Y0082091D01*
X0042625Y0082223D01*
X0042550Y0082357D01*
X0042479Y0082493D01*
X0042412Y0082631D01*
X0042348Y0082771D01*
X0042288Y0082912D01*
X0042232Y0083054D01*
X0042179Y0083198D01*
X0042130Y0083344D01*
X0042085Y0083490D01*
X0042044Y0083638D01*
X0042007Y0083786D01*
X0041973Y0083936D01*
X0041943Y0084087D01*
X0041918Y0084238D01*
X0041896Y0084389D01*
X0041878Y0084542D01*
X0041864Y0084694D01*
X0041854Y0084847D01*
X0041848Y0085001D01*
X0041846Y0085154D01*
X0041846Y0219012D02*
X0041848Y0219165D01*
X0041854Y0219319D01*
X0041864Y0219472D01*
X0041878Y0219624D01*
X0041896Y0219777D01*
X0041918Y0219928D01*
X0041943Y0220079D01*
X0041973Y0220230D01*
X0042007Y0220380D01*
X0042044Y0220528D01*
X0042085Y0220676D01*
X0042130Y0220822D01*
X0042179Y0220968D01*
X0042232Y0221112D01*
X0042288Y0221254D01*
X0042348Y0221395D01*
X0042412Y0221535D01*
X0042479Y0221673D01*
X0042550Y0221809D01*
X0042625Y0221943D01*
X0042702Y0222075D01*
X0042784Y0222205D01*
X0042868Y0222333D01*
X0042956Y0222459D01*
X0043047Y0222582D01*
X0043141Y0222703D01*
X0043239Y0222821D01*
X0043339Y0222937D01*
X0043443Y0223050D01*
X0043549Y0223161D01*
X0043658Y0223269D01*
X0043770Y0223374D01*
X0043884Y0223475D01*
X0044002Y0223574D01*
X0044121Y0223670D01*
X0044243Y0223763D01*
X0044368Y0223852D01*
X0044495Y0223939D01*
X0044624Y0224021D01*
X0044755Y0224101D01*
X0044888Y0224177D01*
X0045023Y0224250D01*
X0045160Y0224319D01*
X0045299Y0224384D01*
X0045439Y0224446D01*
X0045581Y0224504D01*
X0045724Y0224559D01*
X0045869Y0224610D01*
X0046015Y0224657D01*
X0046162Y0224700D01*
X0046310Y0224739D01*
X0046459Y0224775D01*
X0046609Y0224806D01*
X0046760Y0224834D01*
X0046911Y0224858D01*
X0047064Y0224878D01*
X0047216Y0224894D01*
X0047369Y0224906D01*
X0047522Y0224914D01*
X0047675Y0224918D01*
X0047829Y0224918D01*
X0047982Y0224914D01*
X0048135Y0224906D01*
X0048288Y0224894D01*
X0048440Y0224878D01*
X0048593Y0224858D01*
X0048744Y0224834D01*
X0048895Y0224806D01*
X0049045Y0224775D01*
X0049194Y0224739D01*
X0049342Y0224700D01*
X0049489Y0224657D01*
X0049635Y0224610D01*
X0049780Y0224559D01*
X0049923Y0224504D01*
X0050065Y0224446D01*
X0050205Y0224384D01*
X0050344Y0224319D01*
X0050481Y0224250D01*
X0050616Y0224177D01*
X0050749Y0224101D01*
X0050880Y0224021D01*
X0051009Y0223939D01*
X0051136Y0223852D01*
X0051261Y0223763D01*
X0051383Y0223670D01*
X0051502Y0223574D01*
X0051620Y0223475D01*
X0051734Y0223374D01*
X0051846Y0223269D01*
X0051955Y0223161D01*
X0052061Y0223050D01*
X0052165Y0222937D01*
X0052265Y0222821D01*
X0052363Y0222703D01*
X0052457Y0222582D01*
X0052548Y0222459D01*
X0052636Y0222333D01*
X0052720Y0222205D01*
X0052802Y0222075D01*
X0052879Y0221943D01*
X0052954Y0221809D01*
X0053025Y0221673D01*
X0053092Y0221535D01*
X0053156Y0221395D01*
X0053216Y0221254D01*
X0053272Y0221112D01*
X0053325Y0220968D01*
X0053374Y0220822D01*
X0053419Y0220676D01*
X0053460Y0220528D01*
X0053497Y0220380D01*
X0053531Y0220230D01*
X0053561Y0220079D01*
X0053586Y0219928D01*
X0053608Y0219777D01*
X0053626Y0219624D01*
X0053640Y0219472D01*
X0053650Y0219319D01*
X0053656Y0219165D01*
X0053658Y0219012D01*
X0053656Y0218859D01*
X0053650Y0218705D01*
X0053640Y0218552D01*
X0053626Y0218400D01*
X0053608Y0218247D01*
X0053586Y0218096D01*
X0053561Y0217945D01*
X0053531Y0217794D01*
X0053497Y0217644D01*
X0053460Y0217496D01*
X0053419Y0217348D01*
X0053374Y0217202D01*
X0053325Y0217056D01*
X0053272Y0216912D01*
X0053216Y0216770D01*
X0053156Y0216629D01*
X0053092Y0216489D01*
X0053025Y0216351D01*
X0052954Y0216215D01*
X0052879Y0216081D01*
X0052802Y0215949D01*
X0052720Y0215819D01*
X0052636Y0215691D01*
X0052548Y0215565D01*
X0052457Y0215442D01*
X0052363Y0215321D01*
X0052265Y0215203D01*
X0052165Y0215087D01*
X0052061Y0214974D01*
X0051955Y0214863D01*
X0051846Y0214755D01*
X0051734Y0214650D01*
X0051620Y0214549D01*
X0051502Y0214450D01*
X0051383Y0214354D01*
X0051261Y0214261D01*
X0051136Y0214172D01*
X0051009Y0214085D01*
X0050880Y0214003D01*
X0050749Y0213923D01*
X0050616Y0213847D01*
X0050481Y0213774D01*
X0050344Y0213705D01*
X0050205Y0213640D01*
X0050065Y0213578D01*
X0049923Y0213520D01*
X0049780Y0213465D01*
X0049635Y0213414D01*
X0049489Y0213367D01*
X0049342Y0213324D01*
X0049194Y0213285D01*
X0049045Y0213249D01*
X0048895Y0213218D01*
X0048744Y0213190D01*
X0048593Y0213166D01*
X0048440Y0213146D01*
X0048288Y0213130D01*
X0048135Y0213118D01*
X0047982Y0213110D01*
X0047829Y0213106D01*
X0047675Y0213106D01*
X0047522Y0213110D01*
X0047369Y0213118D01*
X0047216Y0213130D01*
X0047064Y0213146D01*
X0046911Y0213166D01*
X0046760Y0213190D01*
X0046609Y0213218D01*
X0046459Y0213249D01*
X0046310Y0213285D01*
X0046162Y0213324D01*
X0046015Y0213367D01*
X0045869Y0213414D01*
X0045724Y0213465D01*
X0045581Y0213520D01*
X0045439Y0213578D01*
X0045299Y0213640D01*
X0045160Y0213705D01*
X0045023Y0213774D01*
X0044888Y0213847D01*
X0044755Y0213923D01*
X0044624Y0214003D01*
X0044495Y0214085D01*
X0044368Y0214172D01*
X0044243Y0214261D01*
X0044121Y0214354D01*
X0044002Y0214450D01*
X0043884Y0214549D01*
X0043770Y0214650D01*
X0043658Y0214755D01*
X0043549Y0214863D01*
X0043443Y0214974D01*
X0043339Y0215087D01*
X0043239Y0215203D01*
X0043141Y0215321D01*
X0043047Y0215442D01*
X0042956Y0215565D01*
X0042868Y0215691D01*
X0042784Y0215819D01*
X0042702Y0215949D01*
X0042625Y0216081D01*
X0042550Y0216215D01*
X0042479Y0216351D01*
X0042412Y0216489D01*
X0042348Y0216629D01*
X0042288Y0216770D01*
X0042232Y0216912D01*
X0042179Y0217056D01*
X0042130Y0217202D01*
X0042085Y0217348D01*
X0042044Y0217496D01*
X0042007Y0217644D01*
X0041973Y0217794D01*
X0041943Y0217945D01*
X0041918Y0218096D01*
X0041896Y0218247D01*
X0041878Y0218400D01*
X0041864Y0218552D01*
X0041854Y0218705D01*
X0041848Y0218859D01*
X0041846Y0219012D01*
D11*
X0041496Y0355189D02*
X0036287Y0355189D01*
X0036287Y0358662D01*
X0036287Y0360626D02*
X0036287Y0363231D01*
X0037155Y0364100D01*
X0038891Y0364100D01*
X0039760Y0363231D01*
X0039760Y0360626D01*
X0041496Y0360626D02*
X0036287Y0360626D01*
X0038891Y0356925D02*
X0038891Y0355189D01*
X0037155Y0371502D02*
X0040628Y0371502D01*
X0041496Y0372370D01*
X0041496Y0374107D01*
X0040628Y0374975D01*
X0038891Y0374975D01*
X0038891Y0373238D01*
X0037155Y0371502D02*
X0036287Y0372370D01*
X0036287Y0374107D01*
X0037155Y0374975D01*
X0036287Y0376939D02*
X0041496Y0380413D01*
X0036287Y0380413D01*
X0036287Y0382377D02*
X0036287Y0384982D01*
X0037155Y0385850D01*
X0040628Y0385850D01*
X0041496Y0384982D01*
X0041496Y0382377D01*
X0036287Y0382377D01*
X0036287Y0376939D02*
X0041496Y0376939D01*
D12*
X0077673Y0379445D02*
X0077673Y0344012D01*
X0077675Y0343888D01*
X0077681Y0343765D01*
X0077690Y0343641D01*
X0077704Y0343519D01*
X0077721Y0343396D01*
X0077743Y0343274D01*
X0077768Y0343153D01*
X0077797Y0343033D01*
X0077829Y0342914D01*
X0077866Y0342795D01*
X0077906Y0342678D01*
X0077949Y0342563D01*
X0077997Y0342448D01*
X0078048Y0342336D01*
X0078102Y0342225D01*
X0078160Y0342115D01*
X0078221Y0342008D01*
X0078286Y0341902D01*
X0078354Y0341799D01*
X0078425Y0341698D01*
X0078499Y0341599D01*
X0078576Y0341502D01*
X0078657Y0341408D01*
X0078740Y0341317D01*
X0078826Y0341228D01*
X0078915Y0341142D01*
X0079006Y0341059D01*
X0079100Y0340978D01*
X0079197Y0340901D01*
X0079296Y0340827D01*
X0079397Y0340756D01*
X0079500Y0340688D01*
X0079606Y0340623D01*
X0079713Y0340562D01*
X0079823Y0340504D01*
X0079934Y0340450D01*
X0080046Y0340399D01*
X0080161Y0340351D01*
X0080276Y0340308D01*
X0080393Y0340268D01*
X0080512Y0340231D01*
X0080631Y0340199D01*
X0080751Y0340170D01*
X0080872Y0340145D01*
X0080994Y0340123D01*
X0081117Y0340106D01*
X0081239Y0340092D01*
X0081363Y0340083D01*
X0081486Y0340077D01*
X0081610Y0340075D01*
X0112319Y0340075D01*
X0112443Y0340077D01*
X0112566Y0340083D01*
X0112690Y0340092D01*
X0112812Y0340106D01*
X0112935Y0340123D01*
X0113057Y0340145D01*
X0113178Y0340170D01*
X0113298Y0340199D01*
X0113417Y0340231D01*
X0113536Y0340268D01*
X0113653Y0340308D01*
X0113768Y0340351D01*
X0113883Y0340399D01*
X0113995Y0340450D01*
X0114106Y0340504D01*
X0114216Y0340562D01*
X0114323Y0340623D01*
X0114429Y0340688D01*
X0114532Y0340756D01*
X0114633Y0340827D01*
X0114732Y0340901D01*
X0114829Y0340978D01*
X0114923Y0341059D01*
X0115014Y0341142D01*
X0115103Y0341228D01*
X0115189Y0341317D01*
X0115272Y0341408D01*
X0115353Y0341502D01*
X0115430Y0341599D01*
X0115504Y0341698D01*
X0115575Y0341799D01*
X0115643Y0341902D01*
X0115708Y0342008D01*
X0115769Y0342115D01*
X0115827Y0342225D01*
X0115881Y0342336D01*
X0115932Y0342448D01*
X0115980Y0342563D01*
X0116023Y0342678D01*
X0116063Y0342795D01*
X0116100Y0342914D01*
X0116132Y0343033D01*
X0116161Y0343153D01*
X0116186Y0343274D01*
X0116208Y0343396D01*
X0116225Y0343519D01*
X0116239Y0343641D01*
X0116248Y0343765D01*
X0116254Y0343888D01*
X0116256Y0344012D01*
X0116256Y0379445D01*
X0116254Y0379569D01*
X0116248Y0379692D01*
X0116239Y0379816D01*
X0116225Y0379938D01*
X0116208Y0380061D01*
X0116186Y0380183D01*
X0116161Y0380304D01*
X0116132Y0380424D01*
X0116100Y0380543D01*
X0116063Y0380662D01*
X0116023Y0380779D01*
X0115980Y0380894D01*
X0115932Y0381009D01*
X0115881Y0381121D01*
X0115827Y0381232D01*
X0115769Y0381342D01*
X0115708Y0381449D01*
X0115643Y0381555D01*
X0115575Y0381658D01*
X0115504Y0381759D01*
X0115430Y0381858D01*
X0115353Y0381955D01*
X0115272Y0382049D01*
X0115189Y0382140D01*
X0115103Y0382229D01*
X0115014Y0382315D01*
X0114923Y0382398D01*
X0114829Y0382479D01*
X0114732Y0382556D01*
X0114633Y0382630D01*
X0114532Y0382701D01*
X0114429Y0382769D01*
X0114323Y0382834D01*
X0114216Y0382895D01*
X0114106Y0382953D01*
X0113995Y0383007D01*
X0113883Y0383058D01*
X0113768Y0383106D01*
X0113653Y0383149D01*
X0113536Y0383189D01*
X0113417Y0383226D01*
X0113298Y0383258D01*
X0113178Y0383287D01*
X0113057Y0383312D01*
X0112935Y0383334D01*
X0112812Y0383351D01*
X0112690Y0383365D01*
X0112566Y0383374D01*
X0112443Y0383380D01*
X0112319Y0383382D01*
X0081610Y0383382D01*
X0081486Y0383380D01*
X0081363Y0383374D01*
X0081239Y0383365D01*
X0081117Y0383351D01*
X0080994Y0383334D01*
X0080872Y0383312D01*
X0080751Y0383287D01*
X0080631Y0383258D01*
X0080512Y0383226D01*
X0080393Y0383189D01*
X0080276Y0383149D01*
X0080161Y0383106D01*
X0080046Y0383058D01*
X0079934Y0383007D01*
X0079823Y0382953D01*
X0079713Y0382895D01*
X0079606Y0382834D01*
X0079500Y0382769D01*
X0079397Y0382701D01*
X0079296Y0382630D01*
X0079197Y0382556D01*
X0079100Y0382479D01*
X0079006Y0382398D01*
X0078915Y0382315D01*
X0078826Y0382229D01*
X0078740Y0382140D01*
X0078657Y0382049D01*
X0078576Y0381955D01*
X0078499Y0381858D01*
X0078425Y0381759D01*
X0078354Y0381658D01*
X0078286Y0381555D01*
X0078221Y0381449D01*
X0078160Y0381342D01*
X0078102Y0381232D01*
X0078048Y0381121D01*
X0077997Y0381009D01*
X0077949Y0380894D01*
X0077906Y0380779D01*
X0077866Y0380662D01*
X0077829Y0380543D01*
X0077797Y0380424D01*
X0077768Y0380304D01*
X0077743Y0380183D01*
X0077721Y0380061D01*
X0077704Y0379938D01*
X0077690Y0379816D01*
X0077681Y0379692D01*
X0077675Y0379569D01*
X0077673Y0379445D01*
X0063106Y0307594D02*
X0032398Y0307594D01*
X0032274Y0307592D01*
X0032151Y0307586D01*
X0032027Y0307577D01*
X0031905Y0307563D01*
X0031782Y0307546D01*
X0031660Y0307524D01*
X0031539Y0307499D01*
X0031419Y0307470D01*
X0031300Y0307438D01*
X0031181Y0307401D01*
X0031064Y0307361D01*
X0030949Y0307318D01*
X0030834Y0307270D01*
X0030722Y0307219D01*
X0030611Y0307165D01*
X0030501Y0307107D01*
X0030394Y0307046D01*
X0030288Y0306981D01*
X0030185Y0306913D01*
X0030084Y0306842D01*
X0029985Y0306768D01*
X0029888Y0306691D01*
X0029794Y0306610D01*
X0029703Y0306527D01*
X0029614Y0306441D01*
X0029528Y0306352D01*
X0029445Y0306261D01*
X0029364Y0306167D01*
X0029287Y0306070D01*
X0029213Y0305971D01*
X0029142Y0305870D01*
X0029074Y0305767D01*
X0029009Y0305661D01*
X0028948Y0305554D01*
X0028890Y0305444D01*
X0028836Y0305333D01*
X0028785Y0305221D01*
X0028737Y0305106D01*
X0028694Y0304991D01*
X0028654Y0304874D01*
X0028617Y0304755D01*
X0028585Y0304636D01*
X0028556Y0304516D01*
X0028531Y0304395D01*
X0028509Y0304273D01*
X0028492Y0304150D01*
X0028478Y0304028D01*
X0028469Y0303904D01*
X0028463Y0303781D01*
X0028461Y0303657D01*
X0028461Y0268224D01*
X0028463Y0268100D01*
X0028469Y0267977D01*
X0028478Y0267853D01*
X0028492Y0267731D01*
X0028509Y0267608D01*
X0028531Y0267486D01*
X0028556Y0267365D01*
X0028585Y0267245D01*
X0028617Y0267126D01*
X0028654Y0267007D01*
X0028694Y0266890D01*
X0028737Y0266775D01*
X0028785Y0266660D01*
X0028836Y0266548D01*
X0028890Y0266437D01*
X0028948Y0266327D01*
X0029009Y0266220D01*
X0029074Y0266114D01*
X0029142Y0266011D01*
X0029213Y0265910D01*
X0029287Y0265811D01*
X0029364Y0265714D01*
X0029445Y0265620D01*
X0029528Y0265529D01*
X0029614Y0265440D01*
X0029703Y0265354D01*
X0029794Y0265271D01*
X0029888Y0265190D01*
X0029985Y0265113D01*
X0030084Y0265039D01*
X0030185Y0264968D01*
X0030288Y0264900D01*
X0030394Y0264835D01*
X0030501Y0264774D01*
X0030611Y0264716D01*
X0030722Y0264662D01*
X0030834Y0264611D01*
X0030949Y0264563D01*
X0031064Y0264520D01*
X0031181Y0264480D01*
X0031300Y0264443D01*
X0031419Y0264411D01*
X0031539Y0264382D01*
X0031660Y0264357D01*
X0031782Y0264335D01*
X0031905Y0264318D01*
X0032027Y0264304D01*
X0032151Y0264295D01*
X0032274Y0264289D01*
X0032398Y0264287D01*
X0063106Y0264287D01*
X0063230Y0264289D01*
X0063353Y0264295D01*
X0063477Y0264304D01*
X0063599Y0264318D01*
X0063722Y0264335D01*
X0063844Y0264357D01*
X0063965Y0264382D01*
X0064085Y0264411D01*
X0064204Y0264443D01*
X0064323Y0264480D01*
X0064440Y0264520D01*
X0064555Y0264563D01*
X0064670Y0264611D01*
X0064782Y0264662D01*
X0064893Y0264716D01*
X0065003Y0264774D01*
X0065110Y0264835D01*
X0065216Y0264900D01*
X0065319Y0264968D01*
X0065420Y0265039D01*
X0065519Y0265113D01*
X0065616Y0265190D01*
X0065710Y0265271D01*
X0065801Y0265354D01*
X0065890Y0265440D01*
X0065976Y0265529D01*
X0066059Y0265620D01*
X0066140Y0265714D01*
X0066217Y0265811D01*
X0066291Y0265910D01*
X0066362Y0266011D01*
X0066430Y0266114D01*
X0066495Y0266220D01*
X0066556Y0266327D01*
X0066614Y0266437D01*
X0066668Y0266548D01*
X0066719Y0266660D01*
X0066767Y0266775D01*
X0066810Y0266890D01*
X0066850Y0267007D01*
X0066887Y0267126D01*
X0066919Y0267245D01*
X0066948Y0267365D01*
X0066973Y0267486D01*
X0066995Y0267608D01*
X0067012Y0267731D01*
X0067026Y0267853D01*
X0067035Y0267977D01*
X0067041Y0268100D01*
X0067043Y0268224D01*
X0067043Y0303657D01*
X0067041Y0303781D01*
X0067035Y0303904D01*
X0067026Y0304028D01*
X0067012Y0304150D01*
X0066995Y0304273D01*
X0066973Y0304395D01*
X0066948Y0304516D01*
X0066919Y0304636D01*
X0066887Y0304755D01*
X0066850Y0304874D01*
X0066810Y0304991D01*
X0066767Y0305106D01*
X0066719Y0305221D01*
X0066668Y0305333D01*
X0066614Y0305444D01*
X0066556Y0305554D01*
X0066495Y0305661D01*
X0066430Y0305767D01*
X0066362Y0305870D01*
X0066291Y0305971D01*
X0066217Y0306070D01*
X0066140Y0306167D01*
X0066059Y0306261D01*
X0065976Y0306352D01*
X0065890Y0306441D01*
X0065801Y0306527D01*
X0065710Y0306610D01*
X0065616Y0306691D01*
X0065519Y0306768D01*
X0065420Y0306842D01*
X0065319Y0306913D01*
X0065216Y0306981D01*
X0065110Y0307046D01*
X0065003Y0307107D01*
X0064893Y0307165D01*
X0064782Y0307219D01*
X0064670Y0307270D01*
X0064555Y0307318D01*
X0064440Y0307361D01*
X0064323Y0307401D01*
X0064204Y0307438D01*
X0064085Y0307470D01*
X0063965Y0307499D01*
X0063844Y0307524D01*
X0063722Y0307546D01*
X0063599Y0307563D01*
X0063477Y0307577D01*
X0063353Y0307586D01*
X0063230Y0307592D01*
X0063106Y0307594D01*
X0120980Y0249524D02*
X0151689Y0249524D01*
X0151813Y0249522D01*
X0151936Y0249516D01*
X0152060Y0249507D01*
X0152182Y0249493D01*
X0152305Y0249476D01*
X0152427Y0249454D01*
X0152548Y0249429D01*
X0152668Y0249400D01*
X0152787Y0249368D01*
X0152906Y0249331D01*
X0153023Y0249291D01*
X0153138Y0249248D01*
X0153253Y0249200D01*
X0153365Y0249149D01*
X0153476Y0249095D01*
X0153586Y0249037D01*
X0153693Y0248976D01*
X0153799Y0248911D01*
X0153902Y0248843D01*
X0154003Y0248772D01*
X0154102Y0248698D01*
X0154199Y0248621D01*
X0154293Y0248540D01*
X0154384Y0248457D01*
X0154473Y0248371D01*
X0154559Y0248282D01*
X0154642Y0248191D01*
X0154723Y0248097D01*
X0154800Y0248000D01*
X0154874Y0247901D01*
X0154945Y0247800D01*
X0155013Y0247697D01*
X0155078Y0247591D01*
X0155139Y0247484D01*
X0155197Y0247374D01*
X0155251Y0247263D01*
X0155302Y0247151D01*
X0155350Y0247036D01*
X0155393Y0246921D01*
X0155433Y0246804D01*
X0155470Y0246685D01*
X0155502Y0246566D01*
X0155531Y0246446D01*
X0155556Y0246325D01*
X0155578Y0246203D01*
X0155595Y0246080D01*
X0155609Y0245958D01*
X0155618Y0245834D01*
X0155624Y0245711D01*
X0155626Y0245587D01*
X0155626Y0210154D01*
X0155624Y0210030D01*
X0155618Y0209907D01*
X0155609Y0209783D01*
X0155595Y0209661D01*
X0155578Y0209538D01*
X0155556Y0209416D01*
X0155531Y0209295D01*
X0155502Y0209175D01*
X0155470Y0209056D01*
X0155433Y0208937D01*
X0155393Y0208820D01*
X0155350Y0208705D01*
X0155302Y0208590D01*
X0155251Y0208478D01*
X0155197Y0208367D01*
X0155139Y0208257D01*
X0155078Y0208150D01*
X0155013Y0208044D01*
X0154945Y0207941D01*
X0154874Y0207840D01*
X0154800Y0207741D01*
X0154723Y0207644D01*
X0154642Y0207550D01*
X0154559Y0207459D01*
X0154473Y0207370D01*
X0154384Y0207284D01*
X0154293Y0207201D01*
X0154199Y0207120D01*
X0154102Y0207043D01*
X0154003Y0206969D01*
X0153902Y0206898D01*
X0153799Y0206830D01*
X0153693Y0206765D01*
X0153586Y0206704D01*
X0153476Y0206646D01*
X0153365Y0206592D01*
X0153253Y0206541D01*
X0153138Y0206493D01*
X0153023Y0206450D01*
X0152906Y0206410D01*
X0152787Y0206373D01*
X0152668Y0206341D01*
X0152548Y0206312D01*
X0152427Y0206287D01*
X0152305Y0206265D01*
X0152182Y0206248D01*
X0152060Y0206234D01*
X0151936Y0206225D01*
X0151813Y0206219D01*
X0151689Y0206217D01*
X0120980Y0206217D01*
X0120856Y0206219D01*
X0120733Y0206225D01*
X0120609Y0206234D01*
X0120487Y0206248D01*
X0120364Y0206265D01*
X0120242Y0206287D01*
X0120121Y0206312D01*
X0120001Y0206341D01*
X0119882Y0206373D01*
X0119763Y0206410D01*
X0119646Y0206450D01*
X0119531Y0206493D01*
X0119416Y0206541D01*
X0119304Y0206592D01*
X0119193Y0206646D01*
X0119083Y0206704D01*
X0118976Y0206765D01*
X0118870Y0206830D01*
X0118767Y0206898D01*
X0118666Y0206969D01*
X0118567Y0207043D01*
X0118470Y0207120D01*
X0118376Y0207201D01*
X0118285Y0207284D01*
X0118196Y0207370D01*
X0118110Y0207459D01*
X0118027Y0207550D01*
X0117946Y0207644D01*
X0117869Y0207741D01*
X0117795Y0207840D01*
X0117724Y0207941D01*
X0117656Y0208044D01*
X0117591Y0208150D01*
X0117530Y0208257D01*
X0117472Y0208367D01*
X0117418Y0208478D01*
X0117367Y0208590D01*
X0117319Y0208705D01*
X0117276Y0208820D01*
X0117236Y0208937D01*
X0117199Y0209056D01*
X0117167Y0209175D01*
X0117138Y0209295D01*
X0117113Y0209416D01*
X0117091Y0209538D01*
X0117074Y0209661D01*
X0117060Y0209783D01*
X0117051Y0209907D01*
X0117045Y0210030D01*
X0117043Y0210154D01*
X0117043Y0245587D01*
X0117045Y0245711D01*
X0117051Y0245834D01*
X0117060Y0245958D01*
X0117074Y0246080D01*
X0117091Y0246203D01*
X0117113Y0246325D01*
X0117138Y0246446D01*
X0117167Y0246566D01*
X0117199Y0246685D01*
X0117236Y0246804D01*
X0117276Y0246921D01*
X0117319Y0247036D01*
X0117367Y0247151D01*
X0117418Y0247263D01*
X0117472Y0247374D01*
X0117530Y0247484D01*
X0117591Y0247591D01*
X0117656Y0247697D01*
X0117724Y0247800D01*
X0117795Y0247901D01*
X0117869Y0248000D01*
X0117946Y0248097D01*
X0118027Y0248191D01*
X0118110Y0248282D01*
X0118196Y0248371D01*
X0118285Y0248457D01*
X0118376Y0248540D01*
X0118470Y0248621D01*
X0118567Y0248698D01*
X0118666Y0248772D01*
X0118767Y0248843D01*
X0118870Y0248911D01*
X0118976Y0248976D01*
X0119083Y0249037D01*
X0119193Y0249095D01*
X0119304Y0249149D01*
X0119416Y0249200D01*
X0119531Y0249248D01*
X0119646Y0249291D01*
X0119763Y0249331D01*
X0119882Y0249368D01*
X0120001Y0249400D01*
X0120121Y0249429D01*
X0120242Y0249454D01*
X0120364Y0249476D01*
X0120487Y0249493D01*
X0120609Y0249507D01*
X0120733Y0249516D01*
X0120856Y0249522D01*
X0120980Y0249524D01*
X0065469Y0242634D02*
X0065469Y0201295D01*
X0048539Y0201295D01*
X0030035Y0201295D01*
X0030035Y0242634D01*
X0041846Y0242634D01*
X0053657Y0242634D01*
X0065469Y0242634D01*
X0063106Y0173736D02*
X0032398Y0173736D01*
X0032274Y0173734D01*
X0032151Y0173728D01*
X0032027Y0173719D01*
X0031905Y0173705D01*
X0031782Y0173688D01*
X0031660Y0173666D01*
X0031539Y0173641D01*
X0031419Y0173612D01*
X0031300Y0173580D01*
X0031181Y0173543D01*
X0031064Y0173503D01*
X0030949Y0173460D01*
X0030834Y0173412D01*
X0030722Y0173361D01*
X0030611Y0173307D01*
X0030501Y0173249D01*
X0030394Y0173188D01*
X0030288Y0173123D01*
X0030185Y0173055D01*
X0030084Y0172984D01*
X0029985Y0172910D01*
X0029888Y0172833D01*
X0029794Y0172752D01*
X0029703Y0172669D01*
X0029614Y0172583D01*
X0029528Y0172494D01*
X0029445Y0172403D01*
X0029364Y0172309D01*
X0029287Y0172212D01*
X0029213Y0172113D01*
X0029142Y0172012D01*
X0029074Y0171909D01*
X0029009Y0171803D01*
X0028948Y0171696D01*
X0028890Y0171586D01*
X0028836Y0171475D01*
X0028785Y0171363D01*
X0028737Y0171248D01*
X0028694Y0171133D01*
X0028654Y0171016D01*
X0028617Y0170897D01*
X0028585Y0170778D01*
X0028556Y0170658D01*
X0028531Y0170537D01*
X0028509Y0170415D01*
X0028492Y0170292D01*
X0028478Y0170170D01*
X0028469Y0170046D01*
X0028463Y0169923D01*
X0028461Y0169799D01*
X0028461Y0134366D01*
X0028463Y0134242D01*
X0028469Y0134119D01*
X0028478Y0133995D01*
X0028492Y0133873D01*
X0028509Y0133750D01*
X0028531Y0133628D01*
X0028556Y0133507D01*
X0028585Y0133387D01*
X0028617Y0133268D01*
X0028654Y0133149D01*
X0028694Y0133032D01*
X0028737Y0132917D01*
X0028785Y0132802D01*
X0028836Y0132690D01*
X0028890Y0132579D01*
X0028948Y0132469D01*
X0029009Y0132362D01*
X0029074Y0132256D01*
X0029142Y0132153D01*
X0029213Y0132052D01*
X0029287Y0131953D01*
X0029364Y0131856D01*
X0029445Y0131762D01*
X0029528Y0131671D01*
X0029614Y0131582D01*
X0029703Y0131496D01*
X0029794Y0131413D01*
X0029888Y0131332D01*
X0029985Y0131255D01*
X0030084Y0131181D01*
X0030185Y0131110D01*
X0030288Y0131042D01*
X0030394Y0130977D01*
X0030501Y0130916D01*
X0030611Y0130858D01*
X0030722Y0130804D01*
X0030834Y0130753D01*
X0030949Y0130705D01*
X0031064Y0130662D01*
X0031181Y0130622D01*
X0031300Y0130585D01*
X0031419Y0130553D01*
X0031539Y0130524D01*
X0031660Y0130499D01*
X0031782Y0130477D01*
X0031905Y0130460D01*
X0032027Y0130446D01*
X0032151Y0130437D01*
X0032274Y0130431D01*
X0032398Y0130429D01*
X0063106Y0130429D01*
X0063230Y0130431D01*
X0063353Y0130437D01*
X0063477Y0130446D01*
X0063599Y0130460D01*
X0063722Y0130477D01*
X0063844Y0130499D01*
X0063965Y0130524D01*
X0064085Y0130553D01*
X0064204Y0130585D01*
X0064323Y0130622D01*
X0064440Y0130662D01*
X0064555Y0130705D01*
X0064670Y0130753D01*
X0064782Y0130804D01*
X0064893Y0130858D01*
X0065003Y0130916D01*
X0065110Y0130977D01*
X0065216Y0131042D01*
X0065319Y0131110D01*
X0065420Y0131181D01*
X0065519Y0131255D01*
X0065616Y0131332D01*
X0065710Y0131413D01*
X0065801Y0131496D01*
X0065890Y0131582D01*
X0065976Y0131671D01*
X0066059Y0131762D01*
X0066140Y0131856D01*
X0066217Y0131953D01*
X0066291Y0132052D01*
X0066362Y0132153D01*
X0066430Y0132256D01*
X0066495Y0132362D01*
X0066556Y0132469D01*
X0066614Y0132579D01*
X0066668Y0132690D01*
X0066719Y0132802D01*
X0066767Y0132917D01*
X0066810Y0133032D01*
X0066850Y0133149D01*
X0066887Y0133268D01*
X0066919Y0133387D01*
X0066948Y0133507D01*
X0066973Y0133628D01*
X0066995Y0133750D01*
X0067012Y0133873D01*
X0067026Y0133995D01*
X0067035Y0134119D01*
X0067041Y0134242D01*
X0067043Y0134366D01*
X0067043Y0169799D01*
X0067041Y0169923D01*
X0067035Y0170046D01*
X0067026Y0170170D01*
X0067012Y0170292D01*
X0066995Y0170415D01*
X0066973Y0170537D01*
X0066948Y0170658D01*
X0066919Y0170778D01*
X0066887Y0170897D01*
X0066850Y0171016D01*
X0066810Y0171133D01*
X0066767Y0171248D01*
X0066719Y0171363D01*
X0066668Y0171475D01*
X0066614Y0171586D01*
X0066556Y0171696D01*
X0066495Y0171803D01*
X0066430Y0171909D01*
X0066362Y0172012D01*
X0066291Y0172113D01*
X0066217Y0172212D01*
X0066140Y0172309D01*
X0066059Y0172403D01*
X0065976Y0172494D01*
X0065890Y0172583D01*
X0065801Y0172669D01*
X0065710Y0172752D01*
X0065616Y0172833D01*
X0065519Y0172910D01*
X0065420Y0172984D01*
X0065319Y0173055D01*
X0065216Y0173123D01*
X0065110Y0173188D01*
X0065003Y0173249D01*
X0064893Y0173307D01*
X0064782Y0173361D01*
X0064670Y0173412D01*
X0064555Y0173460D01*
X0064440Y0173503D01*
X0064323Y0173543D01*
X0064204Y0173580D01*
X0064085Y0173612D01*
X0063965Y0173641D01*
X0063844Y0173666D01*
X0063722Y0173688D01*
X0063599Y0173705D01*
X0063477Y0173719D01*
X0063353Y0173728D01*
X0063230Y0173734D01*
X0063106Y0173736D01*
X0077673Y0169799D02*
X0077673Y0134366D01*
X0077675Y0134242D01*
X0077681Y0134119D01*
X0077690Y0133995D01*
X0077704Y0133873D01*
X0077721Y0133750D01*
X0077743Y0133628D01*
X0077768Y0133507D01*
X0077797Y0133387D01*
X0077829Y0133268D01*
X0077866Y0133149D01*
X0077906Y0133032D01*
X0077949Y0132917D01*
X0077997Y0132802D01*
X0078048Y0132690D01*
X0078102Y0132579D01*
X0078160Y0132469D01*
X0078221Y0132362D01*
X0078286Y0132256D01*
X0078354Y0132153D01*
X0078425Y0132052D01*
X0078499Y0131953D01*
X0078576Y0131856D01*
X0078657Y0131762D01*
X0078740Y0131671D01*
X0078826Y0131582D01*
X0078915Y0131496D01*
X0079006Y0131413D01*
X0079100Y0131332D01*
X0079197Y0131255D01*
X0079296Y0131181D01*
X0079397Y0131110D01*
X0079500Y0131042D01*
X0079606Y0130977D01*
X0079713Y0130916D01*
X0079823Y0130858D01*
X0079934Y0130804D01*
X0080046Y0130753D01*
X0080161Y0130705D01*
X0080276Y0130662D01*
X0080393Y0130622D01*
X0080512Y0130585D01*
X0080631Y0130553D01*
X0080751Y0130524D01*
X0080872Y0130499D01*
X0080994Y0130477D01*
X0081117Y0130460D01*
X0081239Y0130446D01*
X0081363Y0130437D01*
X0081486Y0130431D01*
X0081610Y0130429D01*
X0112319Y0130429D01*
X0112443Y0130431D01*
X0112566Y0130437D01*
X0112690Y0130446D01*
X0112812Y0130460D01*
X0112935Y0130477D01*
X0113057Y0130499D01*
X0113178Y0130524D01*
X0113298Y0130553D01*
X0113417Y0130585D01*
X0113536Y0130622D01*
X0113653Y0130662D01*
X0113768Y0130705D01*
X0113883Y0130753D01*
X0113995Y0130804D01*
X0114106Y0130858D01*
X0114216Y0130916D01*
X0114323Y0130977D01*
X0114429Y0131042D01*
X0114532Y0131110D01*
X0114633Y0131181D01*
X0114732Y0131255D01*
X0114829Y0131332D01*
X0114923Y0131413D01*
X0115014Y0131496D01*
X0115103Y0131582D01*
X0115189Y0131671D01*
X0115272Y0131762D01*
X0115353Y0131856D01*
X0115430Y0131953D01*
X0115504Y0132052D01*
X0115575Y0132153D01*
X0115643Y0132256D01*
X0115708Y0132362D01*
X0115769Y0132469D01*
X0115827Y0132579D01*
X0115881Y0132690D01*
X0115932Y0132802D01*
X0115980Y0132917D01*
X0116023Y0133032D01*
X0116063Y0133149D01*
X0116100Y0133268D01*
X0116132Y0133387D01*
X0116161Y0133507D01*
X0116186Y0133628D01*
X0116208Y0133750D01*
X0116225Y0133873D01*
X0116239Y0133995D01*
X0116248Y0134119D01*
X0116254Y0134242D01*
X0116256Y0134366D01*
X0116256Y0169799D01*
X0116254Y0169923D01*
X0116248Y0170046D01*
X0116239Y0170170D01*
X0116225Y0170292D01*
X0116208Y0170415D01*
X0116186Y0170537D01*
X0116161Y0170658D01*
X0116132Y0170778D01*
X0116100Y0170897D01*
X0116063Y0171016D01*
X0116023Y0171133D01*
X0115980Y0171248D01*
X0115932Y0171363D01*
X0115881Y0171475D01*
X0115827Y0171586D01*
X0115769Y0171696D01*
X0115708Y0171803D01*
X0115643Y0171909D01*
X0115575Y0172012D01*
X0115504Y0172113D01*
X0115430Y0172212D01*
X0115353Y0172309D01*
X0115272Y0172403D01*
X0115189Y0172494D01*
X0115103Y0172583D01*
X0115014Y0172669D01*
X0114923Y0172752D01*
X0114829Y0172833D01*
X0114732Y0172910D01*
X0114633Y0172984D01*
X0114532Y0173055D01*
X0114429Y0173123D01*
X0114323Y0173188D01*
X0114216Y0173249D01*
X0114106Y0173307D01*
X0113995Y0173361D01*
X0113883Y0173412D01*
X0113768Y0173460D01*
X0113653Y0173503D01*
X0113536Y0173543D01*
X0113417Y0173580D01*
X0113298Y0173612D01*
X0113178Y0173641D01*
X0113057Y0173666D01*
X0112935Y0173688D01*
X0112812Y0173705D01*
X0112690Y0173719D01*
X0112566Y0173728D01*
X0112443Y0173734D01*
X0112319Y0173736D01*
X0081610Y0173736D01*
X0081486Y0173734D01*
X0081363Y0173728D01*
X0081239Y0173719D01*
X0081117Y0173705D01*
X0080994Y0173688D01*
X0080872Y0173666D01*
X0080751Y0173641D01*
X0080631Y0173612D01*
X0080512Y0173580D01*
X0080393Y0173543D01*
X0080276Y0173503D01*
X0080161Y0173460D01*
X0080046Y0173412D01*
X0079934Y0173361D01*
X0079823Y0173307D01*
X0079713Y0173249D01*
X0079606Y0173188D01*
X0079500Y0173123D01*
X0079397Y0173055D01*
X0079296Y0172984D01*
X0079197Y0172910D01*
X0079100Y0172833D01*
X0079006Y0172752D01*
X0078915Y0172669D01*
X0078826Y0172583D01*
X0078740Y0172494D01*
X0078657Y0172403D01*
X0078576Y0172309D01*
X0078499Y0172212D01*
X0078425Y0172113D01*
X0078354Y0172012D01*
X0078286Y0171909D01*
X0078221Y0171803D01*
X0078160Y0171696D01*
X0078102Y0171586D01*
X0078048Y0171475D01*
X0077997Y0171363D01*
X0077949Y0171248D01*
X0077906Y0171133D01*
X0077866Y0171016D01*
X0077829Y0170897D01*
X0077797Y0170778D01*
X0077768Y0170658D01*
X0077743Y0170537D01*
X0077721Y0170415D01*
X0077704Y0170292D01*
X0077690Y0170170D01*
X0077681Y0170046D01*
X0077675Y0169923D01*
X0077673Y0169799D01*
X0126886Y0169799D02*
X0126886Y0134366D01*
X0126888Y0134242D01*
X0126894Y0134119D01*
X0126903Y0133995D01*
X0126917Y0133873D01*
X0126934Y0133750D01*
X0126956Y0133628D01*
X0126981Y0133507D01*
X0127010Y0133387D01*
X0127042Y0133268D01*
X0127079Y0133149D01*
X0127119Y0133032D01*
X0127162Y0132917D01*
X0127210Y0132802D01*
X0127261Y0132690D01*
X0127315Y0132579D01*
X0127373Y0132469D01*
X0127434Y0132362D01*
X0127499Y0132256D01*
X0127567Y0132153D01*
X0127638Y0132052D01*
X0127712Y0131953D01*
X0127789Y0131856D01*
X0127870Y0131762D01*
X0127953Y0131671D01*
X0128039Y0131582D01*
X0128128Y0131496D01*
X0128219Y0131413D01*
X0128313Y0131332D01*
X0128410Y0131255D01*
X0128509Y0131181D01*
X0128610Y0131110D01*
X0128713Y0131042D01*
X0128819Y0130977D01*
X0128926Y0130916D01*
X0129036Y0130858D01*
X0129147Y0130804D01*
X0129259Y0130753D01*
X0129374Y0130705D01*
X0129489Y0130662D01*
X0129606Y0130622D01*
X0129725Y0130585D01*
X0129844Y0130553D01*
X0129964Y0130524D01*
X0130085Y0130499D01*
X0130207Y0130477D01*
X0130330Y0130460D01*
X0130452Y0130446D01*
X0130576Y0130437D01*
X0130699Y0130431D01*
X0130823Y0130429D01*
X0161531Y0130429D01*
X0161655Y0130431D01*
X0161778Y0130437D01*
X0161902Y0130446D01*
X0162024Y0130460D01*
X0162147Y0130477D01*
X0162269Y0130499D01*
X0162390Y0130524D01*
X0162510Y0130553D01*
X0162629Y0130585D01*
X0162748Y0130622D01*
X0162865Y0130662D01*
X0162980Y0130705D01*
X0163095Y0130753D01*
X0163207Y0130804D01*
X0163318Y0130858D01*
X0163428Y0130916D01*
X0163535Y0130977D01*
X0163641Y0131042D01*
X0163744Y0131110D01*
X0163845Y0131181D01*
X0163944Y0131255D01*
X0164041Y0131332D01*
X0164135Y0131413D01*
X0164226Y0131496D01*
X0164315Y0131582D01*
X0164401Y0131671D01*
X0164484Y0131762D01*
X0164565Y0131856D01*
X0164642Y0131953D01*
X0164716Y0132052D01*
X0164787Y0132153D01*
X0164855Y0132256D01*
X0164920Y0132362D01*
X0164981Y0132469D01*
X0165039Y0132579D01*
X0165093Y0132690D01*
X0165144Y0132802D01*
X0165192Y0132917D01*
X0165235Y0133032D01*
X0165275Y0133149D01*
X0165312Y0133268D01*
X0165344Y0133387D01*
X0165373Y0133507D01*
X0165398Y0133628D01*
X0165420Y0133750D01*
X0165437Y0133873D01*
X0165451Y0133995D01*
X0165460Y0134119D01*
X0165466Y0134242D01*
X0165468Y0134366D01*
X0165469Y0134366D02*
X0165469Y0169799D01*
X0165468Y0169799D02*
X0165466Y0169923D01*
X0165460Y0170046D01*
X0165451Y0170170D01*
X0165437Y0170292D01*
X0165420Y0170415D01*
X0165398Y0170537D01*
X0165373Y0170658D01*
X0165344Y0170778D01*
X0165312Y0170897D01*
X0165275Y0171016D01*
X0165235Y0171133D01*
X0165192Y0171248D01*
X0165144Y0171363D01*
X0165093Y0171475D01*
X0165039Y0171586D01*
X0164981Y0171696D01*
X0164920Y0171803D01*
X0164855Y0171909D01*
X0164787Y0172012D01*
X0164716Y0172113D01*
X0164642Y0172212D01*
X0164565Y0172309D01*
X0164484Y0172403D01*
X0164401Y0172494D01*
X0164315Y0172583D01*
X0164226Y0172669D01*
X0164135Y0172752D01*
X0164041Y0172833D01*
X0163944Y0172910D01*
X0163845Y0172984D01*
X0163744Y0173055D01*
X0163641Y0173123D01*
X0163535Y0173188D01*
X0163428Y0173249D01*
X0163318Y0173307D01*
X0163207Y0173361D01*
X0163095Y0173412D01*
X0162980Y0173460D01*
X0162865Y0173503D01*
X0162748Y0173543D01*
X0162629Y0173580D01*
X0162510Y0173612D01*
X0162390Y0173641D01*
X0162269Y0173666D01*
X0162147Y0173688D01*
X0162024Y0173705D01*
X0161902Y0173719D01*
X0161778Y0173728D01*
X0161655Y0173734D01*
X0161531Y0173736D01*
X0130823Y0173736D01*
X0130699Y0173734D01*
X0130576Y0173728D01*
X0130452Y0173719D01*
X0130330Y0173705D01*
X0130207Y0173688D01*
X0130085Y0173666D01*
X0129964Y0173641D01*
X0129844Y0173612D01*
X0129725Y0173580D01*
X0129606Y0173543D01*
X0129489Y0173503D01*
X0129374Y0173460D01*
X0129259Y0173412D01*
X0129147Y0173361D01*
X0129036Y0173307D01*
X0128926Y0173249D01*
X0128819Y0173188D01*
X0128713Y0173123D01*
X0128610Y0173055D01*
X0128509Y0172984D01*
X0128410Y0172910D01*
X0128313Y0172833D01*
X0128219Y0172752D01*
X0128128Y0172669D01*
X0128039Y0172583D01*
X0127953Y0172494D01*
X0127870Y0172403D01*
X0127789Y0172309D01*
X0127712Y0172212D01*
X0127638Y0172113D01*
X0127567Y0172012D01*
X0127499Y0171909D01*
X0127434Y0171803D01*
X0127373Y0171696D01*
X0127315Y0171586D01*
X0127261Y0171475D01*
X0127210Y0171363D01*
X0127162Y0171248D01*
X0127119Y0171133D01*
X0127079Y0171016D01*
X0127042Y0170897D01*
X0127010Y0170778D01*
X0126981Y0170658D01*
X0126956Y0170537D01*
X0126934Y0170415D01*
X0126917Y0170292D01*
X0126903Y0170170D01*
X0126894Y0170046D01*
X0126888Y0169923D01*
X0126886Y0169799D01*
X0128461Y0102870D02*
X0128461Y0061531D01*
X0140272Y0061531D01*
X0152083Y0061531D01*
X0163894Y0061531D01*
X0163894Y0102870D01*
X0145390Y0102870D01*
X0128461Y0102870D01*
X0114681Y0102870D02*
X0096177Y0102870D01*
X0079248Y0102870D01*
X0079248Y0061531D01*
X0091059Y0061531D01*
X0102870Y0061531D01*
X0114681Y0061531D01*
X0114681Y0102870D01*
X0065469Y0102870D02*
X0065469Y0061531D01*
X0053657Y0061531D01*
X0041846Y0061531D01*
X0030035Y0061531D01*
X0030035Y0102870D01*
X0046965Y0102870D01*
X0065469Y0102870D01*
X0065469Y0043815D02*
X0046965Y0043815D01*
X0030035Y0043815D01*
X0030035Y0002476D01*
X0041846Y0002476D01*
X0053657Y0002476D01*
X0065469Y0002476D01*
X0065469Y0043815D01*
X0079248Y0043815D02*
X0079248Y0002476D01*
X0091059Y0002476D01*
X0102870Y0002476D01*
X0114681Y0002476D01*
X0114681Y0043815D01*
X0096177Y0043815D01*
X0079248Y0043815D01*
X0128461Y0043815D02*
X0128461Y0002476D01*
X0140272Y0002476D01*
X0152083Y0002476D01*
X0163894Y0002476D01*
X0163894Y0043815D01*
X0145390Y0043815D01*
X0128461Y0043815D01*
X0238539Y0141689D02*
X0238539Y0153500D01*
X0266098Y0153500D01*
X0266098Y0141689D01*
X0238539Y0141689D01*
X0232516Y0197319D02*
X0216768Y0197319D01*
X0216768Y0236689D01*
X0232516Y0236689D01*
X0232516Y0197319D01*
X0321374Y0071374D02*
X0321374Y0047752D01*
X0323055Y0047872D01*
X0324702Y0048230D01*
X0326280Y0048819D01*
X0327760Y0049627D01*
X0329109Y0050637D01*
X0330300Y0051828D01*
X0331310Y0053177D01*
X0332118Y0054657D01*
X0332707Y0056235D01*
X0333065Y0057882D01*
X0333185Y0059563D01*
X0333065Y0061244D01*
X0332707Y0062891D01*
X0332118Y0064469D01*
X0331310Y0065949D01*
X0330300Y0067298D01*
X0329109Y0068489D01*
X0327760Y0069499D01*
X0326280Y0070307D01*
X0324702Y0070896D01*
X0323055Y0071254D01*
X0321374Y0071374D01*
X0321374Y0071284D02*
X0322637Y0071284D01*
X0321374Y0070785D02*
X0324998Y0070785D01*
X0326317Y0070287D02*
X0321374Y0070287D01*
X0321374Y0069788D02*
X0327230Y0069788D01*
X0328039Y0069290D02*
X0321374Y0069290D01*
X0321374Y0068791D02*
X0328705Y0068791D01*
X0329305Y0068293D02*
X0321374Y0068293D01*
X0321374Y0067794D02*
X0329804Y0067794D01*
X0330302Y0067296D02*
X0321374Y0067296D01*
X0321374Y0066797D02*
X0330675Y0066797D01*
X0331048Y0066299D02*
X0321374Y0066299D01*
X0321374Y0065800D02*
X0331391Y0065800D01*
X0331663Y0065302D02*
X0321374Y0065302D01*
X0321374Y0064803D02*
X0331936Y0064803D01*
X0332179Y0064305D02*
X0321374Y0064305D01*
X0321374Y0063806D02*
X0332365Y0063806D01*
X0332551Y0063308D02*
X0321374Y0063308D01*
X0321374Y0062809D02*
X0332724Y0062809D01*
X0332833Y0062311D02*
X0321374Y0062311D01*
X0321374Y0061812D02*
X0332941Y0061812D01*
X0333050Y0061313D02*
X0321374Y0061313D01*
X0321374Y0060815D02*
X0333096Y0060815D01*
X0333131Y0060316D02*
X0321374Y0060316D01*
X0321374Y0059818D02*
X0333167Y0059818D01*
X0333168Y0059319D02*
X0321374Y0059319D01*
X0309563Y0059563D02*
X0309567Y0059853D01*
X0309577Y0060143D01*
X0309595Y0060432D01*
X0309620Y0060721D01*
X0309652Y0061009D01*
X0309691Y0061296D01*
X0309737Y0061582D01*
X0309790Y0061867D01*
X0309850Y0062151D01*
X0309917Y0062433D01*
X0309991Y0062713D01*
X0310072Y0062992D01*
X0310159Y0063268D01*
X0310253Y0063542D01*
X0310354Y0063814D01*
X0310462Y0064083D01*
X0310576Y0064349D01*
X0310697Y0064613D01*
X0310824Y0064873D01*
X0310958Y0065131D01*
X0311097Y0065385D01*
X0311243Y0065635D01*
X0311395Y0065882D01*
X0311554Y0066125D01*
X0311718Y0066364D01*
X0311887Y0066599D01*
X0312063Y0066830D01*
X0312244Y0067056D01*
X0312431Y0067278D01*
X0312623Y0067495D01*
X0312820Y0067707D01*
X0313022Y0067915D01*
X0313230Y0068117D01*
X0313442Y0068314D01*
X0313659Y0068506D01*
X0313881Y0068693D01*
X0314107Y0068874D01*
X0314338Y0069050D01*
X0314573Y0069219D01*
X0314812Y0069383D01*
X0315055Y0069542D01*
X0315302Y0069694D01*
X0315552Y0069840D01*
X0315806Y0069979D01*
X0316064Y0070113D01*
X0316324Y0070240D01*
X0316588Y0070361D01*
X0316854Y0070475D01*
X0317123Y0070583D01*
X0317395Y0070684D01*
X0317669Y0070778D01*
X0317945Y0070865D01*
X0318224Y0070946D01*
X0318504Y0071020D01*
X0318786Y0071087D01*
X0319070Y0071147D01*
X0319355Y0071200D01*
X0319641Y0071246D01*
X0319928Y0071285D01*
X0320216Y0071317D01*
X0320505Y0071342D01*
X0320794Y0071360D01*
X0321084Y0071370D01*
X0321374Y0071374D01*
X0321664Y0071370D01*
X0321954Y0071360D01*
X0322243Y0071342D01*
X0322532Y0071317D01*
X0322820Y0071285D01*
X0323107Y0071246D01*
X0323393Y0071200D01*
X0323678Y0071147D01*
X0323962Y0071087D01*
X0324244Y0071020D01*
X0324524Y0070946D01*
X0324803Y0070865D01*
X0325079Y0070778D01*
X0325353Y0070684D01*
X0325625Y0070583D01*
X0325894Y0070475D01*
X0326160Y0070361D01*
X0326424Y0070240D01*
X0326684Y0070113D01*
X0326942Y0069979D01*
X0327196Y0069840D01*
X0327446Y0069694D01*
X0327693Y0069542D01*
X0327936Y0069383D01*
X0328175Y0069219D01*
X0328410Y0069050D01*
X0328641Y0068874D01*
X0328867Y0068693D01*
X0329089Y0068506D01*
X0329306Y0068314D01*
X0329518Y0068117D01*
X0329726Y0067915D01*
X0329928Y0067707D01*
X0330125Y0067495D01*
X0330317Y0067278D01*
X0330504Y0067056D01*
X0330685Y0066830D01*
X0330861Y0066599D01*
X0331030Y0066364D01*
X0331194Y0066125D01*
X0331353Y0065882D01*
X0331505Y0065635D01*
X0331651Y0065385D01*
X0331790Y0065131D01*
X0331924Y0064873D01*
X0332051Y0064613D01*
X0332172Y0064349D01*
X0332286Y0064083D01*
X0332394Y0063814D01*
X0332495Y0063542D01*
X0332589Y0063268D01*
X0332676Y0062992D01*
X0332757Y0062713D01*
X0332831Y0062433D01*
X0332898Y0062151D01*
X0332958Y0061867D01*
X0333011Y0061582D01*
X0333057Y0061296D01*
X0333096Y0061009D01*
X0333128Y0060721D01*
X0333153Y0060432D01*
X0333171Y0060143D01*
X0333181Y0059853D01*
X0333185Y0059563D01*
X0333181Y0059273D01*
X0333171Y0058983D01*
X0333153Y0058694D01*
X0333128Y0058405D01*
X0333096Y0058117D01*
X0333057Y0057830D01*
X0333011Y0057544D01*
X0332958Y0057259D01*
X0332898Y0056975D01*
X0332831Y0056693D01*
X0332757Y0056413D01*
X0332676Y0056134D01*
X0332589Y0055858D01*
X0332495Y0055584D01*
X0332394Y0055312D01*
X0332286Y0055043D01*
X0332172Y0054777D01*
X0332051Y0054513D01*
X0331924Y0054253D01*
X0331790Y0053995D01*
X0331651Y0053741D01*
X0331505Y0053491D01*
X0331353Y0053244D01*
X0331194Y0053001D01*
X0331030Y0052762D01*
X0330861Y0052527D01*
X0330685Y0052296D01*
X0330504Y0052070D01*
X0330317Y0051848D01*
X0330125Y0051631D01*
X0329928Y0051419D01*
X0329726Y0051211D01*
X0329518Y0051009D01*
X0329306Y0050812D01*
X0329089Y0050620D01*
X0328867Y0050433D01*
X0328641Y0050252D01*
X0328410Y0050076D01*
X0328175Y0049907D01*
X0327936Y0049743D01*
X0327693Y0049584D01*
X0327446Y0049432D01*
X0327196Y0049286D01*
X0326942Y0049147D01*
X0326684Y0049013D01*
X0326424Y0048886D01*
X0326160Y0048765D01*
X0325894Y0048651D01*
X0325625Y0048543D01*
X0325353Y0048442D01*
X0325079Y0048348D01*
X0324803Y0048261D01*
X0324524Y0048180D01*
X0324244Y0048106D01*
X0323962Y0048039D01*
X0323678Y0047979D01*
X0323393Y0047926D01*
X0323107Y0047880D01*
X0322820Y0047841D01*
X0322532Y0047809D01*
X0322243Y0047784D01*
X0321954Y0047766D01*
X0321664Y0047756D01*
X0321374Y0047752D01*
X0321084Y0047756D01*
X0320794Y0047766D01*
X0320505Y0047784D01*
X0320216Y0047809D01*
X0319928Y0047841D01*
X0319641Y0047880D01*
X0319355Y0047926D01*
X0319070Y0047979D01*
X0318786Y0048039D01*
X0318504Y0048106D01*
X0318224Y0048180D01*
X0317945Y0048261D01*
X0317669Y0048348D01*
X0317395Y0048442D01*
X0317123Y0048543D01*
X0316854Y0048651D01*
X0316588Y0048765D01*
X0316324Y0048886D01*
X0316064Y0049013D01*
X0315806Y0049147D01*
X0315552Y0049286D01*
X0315302Y0049432D01*
X0315055Y0049584D01*
X0314812Y0049743D01*
X0314573Y0049907D01*
X0314338Y0050076D01*
X0314107Y0050252D01*
X0313881Y0050433D01*
X0313659Y0050620D01*
X0313442Y0050812D01*
X0313230Y0051009D01*
X0313022Y0051211D01*
X0312820Y0051419D01*
X0312623Y0051631D01*
X0312431Y0051848D01*
X0312244Y0052070D01*
X0312063Y0052296D01*
X0311887Y0052527D01*
X0311718Y0052762D01*
X0311554Y0053001D01*
X0311395Y0053244D01*
X0311243Y0053491D01*
X0311097Y0053741D01*
X0310958Y0053995D01*
X0310824Y0054253D01*
X0310697Y0054513D01*
X0310576Y0054777D01*
X0310462Y0055043D01*
X0310354Y0055312D01*
X0310253Y0055584D01*
X0310159Y0055858D01*
X0310072Y0056134D01*
X0309991Y0056413D01*
X0309917Y0056693D01*
X0309850Y0056975D01*
X0309790Y0057259D01*
X0309737Y0057544D01*
X0309691Y0057830D01*
X0309652Y0058117D01*
X0309620Y0058405D01*
X0309595Y0058694D01*
X0309577Y0058983D01*
X0309567Y0059273D01*
X0309563Y0059563D01*
X0321374Y0058821D02*
X0333132Y0058821D01*
X0333096Y0058322D02*
X0321374Y0058322D01*
X0321374Y0057824D02*
X0333052Y0057824D01*
X0332944Y0057325D02*
X0321374Y0057325D01*
X0321374Y0056827D02*
X0332835Y0056827D01*
X0332727Y0056328D02*
X0321374Y0056328D01*
X0321374Y0055830D02*
X0332555Y0055830D01*
X0332369Y0055331D02*
X0321374Y0055331D01*
X0321374Y0054833D02*
X0332183Y0054833D01*
X0331942Y0054334D02*
X0321374Y0054334D01*
X0321374Y0053836D02*
X0331670Y0053836D01*
X0331397Y0053337D02*
X0321374Y0053337D01*
X0321374Y0052839D02*
X0331057Y0052839D01*
X0330683Y0052340D02*
X0321374Y0052340D01*
X0321374Y0051842D02*
X0330310Y0051842D01*
X0329815Y0051343D02*
X0321374Y0051343D01*
X0321374Y0050845D02*
X0329317Y0050845D01*
X0328720Y0050346D02*
X0321374Y0050346D01*
X0321374Y0049848D02*
X0328054Y0049848D01*
X0327251Y0049349D02*
X0321374Y0049349D01*
X0321374Y0048851D02*
X0326338Y0048851D01*
X0325028Y0048352D02*
X0321374Y0048352D01*
X0321374Y0047854D02*
X0322796Y0047854D01*
X0337205Y0054657D02*
X0336616Y0056235D01*
X0336258Y0057882D01*
X0336138Y0059563D01*
X0336258Y0061244D01*
X0336616Y0062891D01*
X0337205Y0064469D01*
X0338013Y0065949D01*
X0339023Y0067298D01*
X0340214Y0068489D01*
X0341563Y0069499D01*
X0343042Y0070307D01*
X0344621Y0070896D01*
X0346268Y0071254D01*
X0347949Y0071374D01*
X0347949Y0047752D01*
X0346268Y0047872D01*
X0344621Y0048230D01*
X0343042Y0048819D01*
X0341563Y0049627D01*
X0340214Y0050637D01*
X0339023Y0051828D01*
X0338013Y0053177D01*
X0337205Y0054657D01*
X0337139Y0054833D02*
X0347949Y0054833D01*
X0347949Y0055331D02*
X0336953Y0055331D01*
X0336767Y0055830D02*
X0347949Y0055830D01*
X0347949Y0056328D02*
X0336596Y0056328D01*
X0336488Y0056827D02*
X0347949Y0056827D01*
X0347949Y0057325D02*
X0336379Y0057325D01*
X0336271Y0057824D02*
X0347949Y0057824D01*
X0347949Y0058322D02*
X0336227Y0058322D01*
X0336191Y0058821D02*
X0347949Y0058821D01*
X0347949Y0059319D02*
X0336155Y0059319D01*
X0336156Y0059818D02*
X0347949Y0059818D01*
X0336138Y0059563D02*
X0336142Y0059853D01*
X0336152Y0060143D01*
X0336170Y0060432D01*
X0336195Y0060721D01*
X0336227Y0061009D01*
X0336266Y0061296D01*
X0336312Y0061582D01*
X0336365Y0061867D01*
X0336425Y0062151D01*
X0336492Y0062433D01*
X0336566Y0062713D01*
X0336647Y0062992D01*
X0336734Y0063268D01*
X0336828Y0063542D01*
X0336929Y0063814D01*
X0337037Y0064083D01*
X0337151Y0064349D01*
X0337272Y0064613D01*
X0337399Y0064873D01*
X0337533Y0065131D01*
X0337672Y0065385D01*
X0337818Y0065635D01*
X0337970Y0065882D01*
X0338129Y0066125D01*
X0338293Y0066364D01*
X0338462Y0066599D01*
X0338638Y0066830D01*
X0338819Y0067056D01*
X0339006Y0067278D01*
X0339198Y0067495D01*
X0339395Y0067707D01*
X0339597Y0067915D01*
X0339805Y0068117D01*
X0340017Y0068314D01*
X0340234Y0068506D01*
X0340456Y0068693D01*
X0340682Y0068874D01*
X0340913Y0069050D01*
X0341148Y0069219D01*
X0341387Y0069383D01*
X0341630Y0069542D01*
X0341877Y0069694D01*
X0342127Y0069840D01*
X0342381Y0069979D01*
X0342639Y0070113D01*
X0342899Y0070240D01*
X0343163Y0070361D01*
X0343429Y0070475D01*
X0343698Y0070583D01*
X0343970Y0070684D01*
X0344244Y0070778D01*
X0344520Y0070865D01*
X0344799Y0070946D01*
X0345079Y0071020D01*
X0345361Y0071087D01*
X0345645Y0071147D01*
X0345930Y0071200D01*
X0346216Y0071246D01*
X0346503Y0071285D01*
X0346791Y0071317D01*
X0347080Y0071342D01*
X0347369Y0071360D01*
X0347659Y0071370D01*
X0347949Y0071374D01*
X0348239Y0071370D01*
X0348529Y0071360D01*
X0348818Y0071342D01*
X0349107Y0071317D01*
X0349395Y0071285D01*
X0349682Y0071246D01*
X0349968Y0071200D01*
X0350253Y0071147D01*
X0350537Y0071087D01*
X0350819Y0071020D01*
X0351099Y0070946D01*
X0351378Y0070865D01*
X0351654Y0070778D01*
X0351928Y0070684D01*
X0352200Y0070583D01*
X0352469Y0070475D01*
X0352735Y0070361D01*
X0352999Y0070240D01*
X0353259Y0070113D01*
X0353517Y0069979D01*
X0353771Y0069840D01*
X0354021Y0069694D01*
X0354268Y0069542D01*
X0354511Y0069383D01*
X0354750Y0069219D01*
X0354985Y0069050D01*
X0355216Y0068874D01*
X0355442Y0068693D01*
X0355664Y0068506D01*
X0355881Y0068314D01*
X0356093Y0068117D01*
X0356301Y0067915D01*
X0356503Y0067707D01*
X0356700Y0067495D01*
X0356892Y0067278D01*
X0357079Y0067056D01*
X0357260Y0066830D01*
X0357436Y0066599D01*
X0357605Y0066364D01*
X0357769Y0066125D01*
X0357928Y0065882D01*
X0358080Y0065635D01*
X0358226Y0065385D01*
X0358365Y0065131D01*
X0358499Y0064873D01*
X0358626Y0064613D01*
X0358747Y0064349D01*
X0358861Y0064083D01*
X0358969Y0063814D01*
X0359070Y0063542D01*
X0359164Y0063268D01*
X0359251Y0062992D01*
X0359332Y0062713D01*
X0359406Y0062433D01*
X0359473Y0062151D01*
X0359533Y0061867D01*
X0359586Y0061582D01*
X0359632Y0061296D01*
X0359671Y0061009D01*
X0359703Y0060721D01*
X0359728Y0060432D01*
X0359746Y0060143D01*
X0359756Y0059853D01*
X0359760Y0059563D01*
X0359756Y0059273D01*
X0359746Y0058983D01*
X0359728Y0058694D01*
X0359703Y0058405D01*
X0359671Y0058117D01*
X0359632Y0057830D01*
X0359586Y0057544D01*
X0359533Y0057259D01*
X0359473Y0056975D01*
X0359406Y0056693D01*
X0359332Y0056413D01*
X0359251Y0056134D01*
X0359164Y0055858D01*
X0359070Y0055584D01*
X0358969Y0055312D01*
X0358861Y0055043D01*
X0358747Y0054777D01*
X0358626Y0054513D01*
X0358499Y0054253D01*
X0358365Y0053995D01*
X0358226Y0053741D01*
X0358080Y0053491D01*
X0357928Y0053244D01*
X0357769Y0053001D01*
X0357605Y0052762D01*
X0357436Y0052527D01*
X0357260Y0052296D01*
X0357079Y0052070D01*
X0356892Y0051848D01*
X0356700Y0051631D01*
X0356503Y0051419D01*
X0356301Y0051211D01*
X0356093Y0051009D01*
X0355881Y0050812D01*
X0355664Y0050620D01*
X0355442Y0050433D01*
X0355216Y0050252D01*
X0354985Y0050076D01*
X0354750Y0049907D01*
X0354511Y0049743D01*
X0354268Y0049584D01*
X0354021Y0049432D01*
X0353771Y0049286D01*
X0353517Y0049147D01*
X0353259Y0049013D01*
X0352999Y0048886D01*
X0352735Y0048765D01*
X0352469Y0048651D01*
X0352200Y0048543D01*
X0351928Y0048442D01*
X0351654Y0048348D01*
X0351378Y0048261D01*
X0351099Y0048180D01*
X0350819Y0048106D01*
X0350537Y0048039D01*
X0350253Y0047979D01*
X0349968Y0047926D01*
X0349682Y0047880D01*
X0349395Y0047841D01*
X0349107Y0047809D01*
X0348818Y0047784D01*
X0348529Y0047766D01*
X0348239Y0047756D01*
X0347949Y0047752D01*
X0347659Y0047756D01*
X0347369Y0047766D01*
X0347080Y0047784D01*
X0346791Y0047809D01*
X0346503Y0047841D01*
X0346216Y0047880D01*
X0345930Y0047926D01*
X0345645Y0047979D01*
X0345361Y0048039D01*
X0345079Y0048106D01*
X0344799Y0048180D01*
X0344520Y0048261D01*
X0344244Y0048348D01*
X0343970Y0048442D01*
X0343698Y0048543D01*
X0343429Y0048651D01*
X0343163Y0048765D01*
X0342899Y0048886D01*
X0342639Y0049013D01*
X0342381Y0049147D01*
X0342127Y0049286D01*
X0341877Y0049432D01*
X0341630Y0049584D01*
X0341387Y0049743D01*
X0341148Y0049907D01*
X0340913Y0050076D01*
X0340682Y0050252D01*
X0340456Y0050433D01*
X0340234Y0050620D01*
X0340017Y0050812D01*
X0339805Y0051009D01*
X0339597Y0051211D01*
X0339395Y0051419D01*
X0339198Y0051631D01*
X0339006Y0051848D01*
X0338819Y0052070D01*
X0338638Y0052296D01*
X0338462Y0052527D01*
X0338293Y0052762D01*
X0338129Y0053001D01*
X0337970Y0053244D01*
X0337818Y0053491D01*
X0337672Y0053741D01*
X0337533Y0053995D01*
X0337399Y0054253D01*
X0337272Y0054513D01*
X0337151Y0054777D01*
X0337037Y0055043D01*
X0336929Y0055312D01*
X0336828Y0055584D01*
X0336734Y0055858D01*
X0336647Y0056134D01*
X0336566Y0056413D01*
X0336492Y0056693D01*
X0336425Y0056975D01*
X0336365Y0057259D01*
X0336312Y0057544D01*
X0336266Y0057830D01*
X0336227Y0058117D01*
X0336195Y0058405D01*
X0336170Y0058694D01*
X0336152Y0058983D01*
X0336142Y0059273D01*
X0336138Y0059563D01*
X0336192Y0060316D02*
X0347949Y0060316D01*
X0347949Y0060815D02*
X0336227Y0060815D01*
X0336273Y0061313D02*
X0347949Y0061313D01*
X0347949Y0061812D02*
X0336382Y0061812D01*
X0336490Y0062311D02*
X0347949Y0062311D01*
X0347949Y0062809D02*
X0336598Y0062809D01*
X0336772Y0063308D02*
X0347949Y0063308D01*
X0347949Y0063806D02*
X0336958Y0063806D01*
X0337144Y0064305D02*
X0347949Y0064305D01*
X0347949Y0064803D02*
X0337387Y0064803D01*
X0337660Y0065302D02*
X0347949Y0065302D01*
X0347949Y0065800D02*
X0337932Y0065800D01*
X0338275Y0066299D02*
X0347949Y0066299D01*
X0347949Y0066797D02*
X0338648Y0066797D01*
X0339021Y0067296D02*
X0347949Y0067296D01*
X0347949Y0067794D02*
X0339519Y0067794D01*
X0340018Y0068293D02*
X0347949Y0068293D01*
X0347949Y0068791D02*
X0340618Y0068791D01*
X0341284Y0069290D02*
X0347949Y0069290D01*
X0347949Y0069788D02*
X0342093Y0069788D01*
X0343006Y0070287D02*
X0347949Y0070287D01*
X0347949Y0070785D02*
X0344325Y0070785D01*
X0346686Y0071284D02*
X0347949Y0071284D01*
X0347949Y0054334D02*
X0337381Y0054334D01*
X0337653Y0053836D02*
X0347949Y0053836D01*
X0347949Y0053337D02*
X0337925Y0053337D01*
X0338266Y0052839D02*
X0347949Y0052839D01*
X0347949Y0052340D02*
X0338639Y0052340D01*
X0339013Y0051842D02*
X0347949Y0051842D01*
X0347949Y0051343D02*
X0339508Y0051343D01*
X0340006Y0050845D02*
X0347949Y0050845D01*
X0347949Y0050346D02*
X0340602Y0050346D01*
X0341268Y0049848D02*
X0347949Y0049848D01*
X0347949Y0049349D02*
X0342072Y0049349D01*
X0342985Y0048851D02*
X0347949Y0048851D01*
X0347949Y0048352D02*
X0344295Y0048352D01*
X0346527Y0047854D02*
X0347949Y0047854D01*
D13*
X0344915Y0072558D02*
X0342555Y0072558D01*
X0344915Y0074918D01*
X0344915Y0075508D01*
X0344325Y0076098D01*
X0343145Y0076098D01*
X0342555Y0075508D01*
X0341290Y0075508D02*
X0340700Y0076098D01*
X0339520Y0076098D01*
X0338930Y0075508D01*
X0338930Y0073148D01*
X0339520Y0072558D01*
X0340700Y0072558D01*
X0341290Y0073148D01*
X0353067Y0088618D02*
X0353067Y0090388D01*
X0353657Y0090978D01*
X0354837Y0090978D01*
X0355427Y0090388D01*
X0355427Y0088618D01*
X0356607Y0088618D02*
X0353067Y0088618D01*
X0355427Y0089798D02*
X0356607Y0090978D01*
X0356607Y0092243D02*
X0356017Y0092243D01*
X0353657Y0094603D01*
X0353067Y0094603D01*
X0353067Y0092243D01*
X0353067Y0101413D02*
X0353067Y0103183D01*
X0353657Y0103773D01*
X0354837Y0103773D01*
X0355427Y0103183D01*
X0355427Y0101413D01*
X0356607Y0101413D02*
X0353067Y0101413D01*
X0355427Y0102593D02*
X0356607Y0103773D01*
X0356017Y0105039D02*
X0355427Y0105039D01*
X0354837Y0105629D01*
X0354837Y0106809D01*
X0355427Y0107399D01*
X0356017Y0107399D01*
X0356607Y0106809D01*
X0356607Y0105629D01*
X0356017Y0105039D01*
X0354837Y0105629D02*
X0354247Y0105039D01*
X0353657Y0105039D01*
X0353067Y0105629D01*
X0353067Y0106809D01*
X0353657Y0107399D01*
X0354247Y0107399D01*
X0354837Y0106809D01*
X0357988Y0114209D02*
X0357988Y0115979D01*
X0358578Y0116569D01*
X0359758Y0116569D01*
X0360348Y0115979D01*
X0360348Y0114209D01*
X0360348Y0115389D02*
X0361528Y0116569D01*
X0360938Y0117834D02*
X0361528Y0118424D01*
X0361528Y0119604D01*
X0360938Y0120194D01*
X0360348Y0120194D01*
X0359758Y0119604D01*
X0359758Y0117834D01*
X0360938Y0117834D01*
X0359758Y0117834D02*
X0358578Y0119014D01*
X0357988Y0120194D01*
X0357988Y0114209D02*
X0361528Y0114209D01*
X0371098Y0113500D02*
X0371098Y0109960D01*
X0371098Y0111140D02*
X0372868Y0111140D01*
X0373459Y0111730D01*
X0373459Y0112910D01*
X0372868Y0113500D01*
X0371098Y0113500D01*
X0372278Y0111140D02*
X0373459Y0109960D01*
X0374724Y0109960D02*
X0377084Y0109960D01*
X0375904Y0109960D02*
X0375904Y0113500D01*
X0374724Y0112320D01*
X0354049Y0134878D02*
X0351689Y0134878D01*
X0351099Y0135468D01*
X0351099Y0136648D01*
X0351689Y0137238D01*
X0352869Y0138503D02*
X0352869Y0140273D01*
X0353459Y0140863D01*
X0354049Y0140863D01*
X0354639Y0140273D01*
X0354639Y0139093D01*
X0354049Y0138503D01*
X0352869Y0138503D01*
X0351689Y0139683D01*
X0351099Y0140863D01*
X0354049Y0137238D02*
X0354639Y0136648D01*
X0354639Y0135468D01*
X0354049Y0134878D01*
X0357988Y0154563D02*
X0357988Y0156333D01*
X0358578Y0156923D01*
X0359758Y0156923D01*
X0360348Y0156333D01*
X0360348Y0154563D01*
X0360348Y0155743D02*
X0361528Y0156923D01*
X0359758Y0158188D02*
X0359758Y0160548D01*
X0357988Y0159958D02*
X0359758Y0158188D01*
X0361528Y0159958D02*
X0357988Y0159958D01*
X0357988Y0154563D02*
X0361528Y0154563D01*
X0361528Y0168343D02*
X0357988Y0168343D01*
X0357988Y0170113D01*
X0358578Y0170703D01*
X0359758Y0170703D01*
X0360348Y0170113D01*
X0360348Y0168343D01*
X0360348Y0169523D02*
X0361528Y0170703D01*
X0360938Y0171968D02*
X0361528Y0172558D01*
X0361528Y0173738D01*
X0360938Y0174328D01*
X0359758Y0174328D01*
X0359168Y0173738D01*
X0359168Y0173148D01*
X0359758Y0171968D01*
X0357988Y0171968D01*
X0357988Y0174328D01*
X0357988Y0182122D02*
X0357988Y0183892D01*
X0358578Y0184482D01*
X0359758Y0184482D01*
X0360348Y0183892D01*
X0360348Y0182122D01*
X0360348Y0183302D02*
X0361528Y0184482D01*
X0360938Y0185747D02*
X0361528Y0186337D01*
X0361528Y0187517D01*
X0360938Y0188107D01*
X0360348Y0188107D01*
X0359758Y0187517D01*
X0359758Y0186927D01*
X0359758Y0187517D02*
X0359168Y0188107D01*
X0358578Y0188107D01*
X0357988Y0187517D01*
X0357988Y0186337D01*
X0358578Y0185747D01*
X0357988Y0182122D02*
X0361528Y0182122D01*
X0354290Y0191653D02*
X0351930Y0191653D01*
X0354290Y0194013D01*
X0354290Y0194603D01*
X0353700Y0195193D01*
X0352520Y0195193D01*
X0351930Y0194603D01*
X0350665Y0194603D02*
X0350075Y0195193D01*
X0348895Y0195193D01*
X0348305Y0194603D01*
X0347040Y0194603D02*
X0347040Y0193423D01*
X0346450Y0192833D01*
X0344680Y0192833D01*
X0345860Y0192833D02*
X0347040Y0191653D01*
X0348305Y0191653D02*
X0350665Y0194013D01*
X0350665Y0194603D01*
X0350665Y0191653D02*
X0348305Y0191653D01*
X0347040Y0194603D02*
X0346450Y0195193D01*
X0344680Y0195193D01*
X0344680Y0191653D01*
X0335198Y0206417D02*
X0335198Y0207007D01*
X0337558Y0209367D01*
X0337558Y0209957D01*
X0335198Y0209957D01*
X0332752Y0209957D02*
X0332752Y0206417D01*
X0331572Y0206417D02*
X0333932Y0206417D01*
X0331572Y0208777D02*
X0332752Y0209957D01*
X0330307Y0209367D02*
X0330307Y0208187D01*
X0329717Y0207597D01*
X0327947Y0207597D01*
X0329127Y0207597D02*
X0330307Y0206417D01*
X0327947Y0206417D02*
X0327947Y0209957D01*
X0329717Y0209957D01*
X0330307Y0209367D01*
X0325028Y0220350D02*
X0325028Y0220940D01*
X0327388Y0223300D01*
X0327388Y0223890D01*
X0325028Y0223890D01*
X0323762Y0223300D02*
X0323172Y0223890D01*
X0321992Y0223890D01*
X0321402Y0223300D01*
X0321402Y0220940D01*
X0321992Y0220350D01*
X0323172Y0220350D01*
X0323762Y0220940D01*
X0320166Y0220350D02*
X0318986Y0220350D01*
X0319576Y0220350D02*
X0319576Y0223890D01*
X0318986Y0223890D02*
X0320166Y0223890D01*
X0311139Y0222162D02*
X0311139Y0219802D01*
X0310549Y0219212D01*
X0309369Y0219212D01*
X0308779Y0219802D01*
X0307514Y0219802D02*
X0306924Y0219212D01*
X0305744Y0219212D01*
X0305154Y0219802D01*
X0305154Y0222162D01*
X0305744Y0222752D01*
X0306924Y0222752D01*
X0307514Y0222162D01*
X0308779Y0222162D02*
X0308779Y0221572D01*
X0309369Y0220982D01*
X0311139Y0220982D01*
X0311139Y0222162D02*
X0310549Y0222752D01*
X0309369Y0222752D01*
X0308779Y0222162D01*
X0279835Y0222632D02*
X0276295Y0222632D01*
X0276295Y0224402D01*
X0276885Y0224992D01*
X0278065Y0224992D01*
X0278655Y0224402D01*
X0278655Y0222632D01*
X0278655Y0223812D02*
X0279835Y0224992D01*
X0279835Y0226258D02*
X0279835Y0228618D01*
X0279835Y0227438D02*
X0276295Y0227438D01*
X0277475Y0226258D01*
X0277475Y0229883D02*
X0278065Y0230473D01*
X0278065Y0232243D01*
X0279245Y0232243D02*
X0276885Y0232243D01*
X0276295Y0231653D01*
X0276295Y0230473D01*
X0276885Y0229883D01*
X0277475Y0229883D01*
X0279245Y0229883D02*
X0279835Y0230473D01*
X0279835Y0231653D01*
X0279245Y0232243D01*
X0239678Y0231963D02*
X0236138Y0231963D01*
X0236138Y0233733D01*
X0236728Y0234323D01*
X0237908Y0234323D01*
X0238498Y0233733D01*
X0238498Y0231963D01*
X0238498Y0233143D02*
X0239678Y0234323D01*
X0239678Y0235588D02*
X0237318Y0237948D01*
X0236728Y0237948D01*
X0236138Y0237358D01*
X0236138Y0236178D01*
X0236728Y0235588D01*
X0239678Y0235588D02*
X0239678Y0237948D01*
X0239088Y0239213D02*
X0236728Y0241573D01*
X0239088Y0241573D01*
X0239678Y0240983D01*
X0239678Y0239803D01*
X0239088Y0239213D01*
X0236728Y0239213D01*
X0236138Y0239803D01*
X0236138Y0240983D01*
X0236728Y0241573D01*
X0239284Y0207717D02*
X0239284Y0205357D01*
X0239284Y0206537D02*
X0235744Y0206537D01*
X0236924Y0205357D01*
X0236334Y0204092D02*
X0238694Y0204092D01*
X0239284Y0203502D01*
X0239284Y0202321D01*
X0238694Y0201731D01*
X0236334Y0201731D01*
X0235744Y0202321D01*
X0235744Y0203502D01*
X0236334Y0204092D01*
X0238104Y0202912D02*
X0239284Y0204092D01*
X0234321Y0174118D02*
X0234321Y0171758D01*
X0232551Y0173528D01*
X0236091Y0173528D01*
X0235501Y0170493D02*
X0236091Y0169903D01*
X0236091Y0168723D01*
X0235501Y0168133D01*
X0233141Y0168133D01*
X0232551Y0168723D01*
X0232551Y0169903D01*
X0233141Y0170493D01*
X0232551Y0166896D02*
X0232551Y0165716D01*
X0232551Y0166306D02*
X0236091Y0166306D01*
X0236091Y0165716D02*
X0236091Y0166896D01*
X0225353Y0168621D02*
X0224763Y0168031D01*
X0223583Y0168031D01*
X0222993Y0168621D01*
X0221728Y0168031D02*
X0219368Y0168031D01*
X0220548Y0168031D02*
X0220548Y0171571D01*
X0219368Y0170391D01*
X0218103Y0170981D02*
X0218103Y0169801D01*
X0217513Y0169211D01*
X0215743Y0169211D01*
X0216923Y0169211D02*
X0218103Y0168031D01*
X0215743Y0168031D02*
X0215743Y0171571D01*
X0217513Y0171571D01*
X0218103Y0170981D01*
X0222993Y0170981D02*
X0223583Y0171571D01*
X0224763Y0171571D01*
X0225353Y0170981D01*
X0225353Y0170391D01*
X0224763Y0169801D01*
X0225353Y0169211D01*
X0225353Y0168621D01*
X0224763Y0169801D02*
X0224173Y0169801D01*
X0238070Y0140626D02*
X0239840Y0140626D01*
X0240430Y0140036D01*
X0240430Y0138856D01*
X0239840Y0138266D01*
X0238070Y0138266D01*
X0239250Y0138266D02*
X0240430Y0137086D01*
X0241695Y0137086D02*
X0244055Y0137086D01*
X0242875Y0137086D02*
X0242875Y0140626D01*
X0241695Y0139446D01*
X0245320Y0140036D02*
X0245320Y0137676D01*
X0247680Y0140036D01*
X0247680Y0137676D01*
X0247090Y0137086D01*
X0245910Y0137086D01*
X0245320Y0137676D01*
X0245320Y0140036D02*
X0245910Y0140626D01*
X0247090Y0140626D01*
X0247680Y0140036D01*
X0238070Y0140626D02*
X0238070Y0137086D01*
X0257081Y0122358D02*
X0258851Y0122358D01*
X0259441Y0121768D01*
X0259441Y0120588D01*
X0258851Y0119998D01*
X0257081Y0119998D01*
X0257081Y0118818D02*
X0257081Y0122358D01*
X0258261Y0119998D02*
X0259441Y0118818D01*
X0260706Y0118818D02*
X0263066Y0118818D01*
X0261886Y0118818D02*
X0261886Y0122358D01*
X0260706Y0121178D01*
X0264331Y0120588D02*
X0266691Y0120588D01*
X0266101Y0118818D02*
X0266101Y0122358D01*
X0264331Y0120588D01*
X0275311Y0121138D02*
X0278851Y0121138D01*
X0278851Y0119958D02*
X0278851Y0122318D01*
X0278851Y0123583D02*
X0278851Y0125943D01*
X0278851Y0124763D02*
X0275311Y0124763D01*
X0276491Y0123583D01*
X0275311Y0121138D02*
X0276491Y0119958D01*
X0275901Y0118693D02*
X0275311Y0118103D01*
X0275311Y0116923D01*
X0275901Y0116333D01*
X0278261Y0116333D01*
X0278851Y0116923D01*
X0278851Y0118103D01*
X0278261Y0118693D01*
X0283656Y0111531D02*
X0285426Y0111531D01*
X0286016Y0110941D01*
X0286016Y0109761D01*
X0285426Y0109171D01*
X0283656Y0109171D01*
X0283656Y0107991D02*
X0283656Y0111531D01*
X0284836Y0109171D02*
X0286016Y0107991D01*
X0287281Y0107991D02*
X0289641Y0107991D01*
X0288461Y0107991D02*
X0288461Y0111531D01*
X0287281Y0110351D01*
X0290906Y0109761D02*
X0290906Y0111531D01*
X0293266Y0111531D01*
X0292676Y0110351D02*
X0293266Y0109761D01*
X0293266Y0108581D01*
X0292676Y0107991D01*
X0291496Y0107991D01*
X0290906Y0108581D01*
X0290906Y0109761D02*
X0292086Y0110351D01*
X0292676Y0110351D01*
X0282987Y0087714D02*
X0282987Y0085354D01*
X0281217Y0087124D01*
X0284757Y0087124D01*
X0284167Y0084088D02*
X0284757Y0083498D01*
X0284757Y0082318D01*
X0284167Y0081728D01*
X0281807Y0081728D01*
X0281217Y0082318D01*
X0281217Y0083498D01*
X0281807Y0084088D01*
X0286728Y0070133D02*
X0286138Y0069543D01*
X0286138Y0068363D01*
X0286728Y0067773D01*
X0286728Y0066508D02*
X0286138Y0065918D01*
X0286138Y0064738D01*
X0286728Y0064148D01*
X0289088Y0064148D01*
X0289678Y0064738D01*
X0289678Y0065918D01*
X0289088Y0066508D01*
X0289678Y0067773D02*
X0287318Y0070133D01*
X0286728Y0070133D01*
X0289678Y0070133D02*
X0289678Y0067773D01*
X0289678Y0062912D02*
X0289678Y0061731D01*
X0289678Y0062321D02*
X0286138Y0062321D01*
X0286138Y0061731D02*
X0286138Y0062912D01*
X0312355Y0073148D02*
X0312945Y0072558D01*
X0314125Y0072558D01*
X0314715Y0073148D01*
X0315980Y0072558D02*
X0318340Y0072558D01*
X0317160Y0072558D02*
X0317160Y0076098D01*
X0315980Y0074918D01*
X0314715Y0075508D02*
X0314125Y0076098D01*
X0312945Y0076098D01*
X0312355Y0075508D01*
X0312355Y0073148D01*
X0263103Y0094524D02*
X0263103Y0096294D01*
X0262513Y0096884D01*
X0260153Y0096884D01*
X0259563Y0096294D01*
X0259563Y0094524D01*
X0263103Y0094524D01*
X0262513Y0098149D02*
X0263103Y0098739D01*
X0263103Y0099919D01*
X0262513Y0100509D01*
X0261923Y0100509D01*
X0261333Y0099919D01*
X0261333Y0099329D01*
X0261333Y0099919D02*
X0260743Y0100509D01*
X0260153Y0100509D01*
X0259563Y0099919D01*
X0259563Y0098739D01*
X0260153Y0098149D01*
X0245387Y0087124D02*
X0245387Y0085944D01*
X0244797Y0085354D01*
X0244797Y0084088D02*
X0245387Y0083498D01*
X0245387Y0082318D01*
X0244797Y0081728D01*
X0242437Y0081728D01*
X0241847Y0082318D01*
X0241847Y0083498D01*
X0242437Y0084088D01*
X0242437Y0085354D02*
X0241847Y0085944D01*
X0241847Y0087124D01*
X0242437Y0087714D01*
X0243027Y0087714D01*
X0243617Y0087124D01*
X0244207Y0087714D01*
X0244797Y0087714D01*
X0245387Y0087124D01*
X0243617Y0087124D02*
X0243617Y0086534D01*
X0240465Y0070133D02*
X0240465Y0067773D01*
X0240465Y0068953D02*
X0236925Y0068953D01*
X0238105Y0067773D01*
X0237515Y0066508D02*
X0236925Y0065918D01*
X0236925Y0064738D01*
X0237515Y0064148D01*
X0239875Y0064148D01*
X0240465Y0064738D01*
X0240465Y0065918D01*
X0239875Y0066508D01*
X0240465Y0062912D02*
X0240465Y0061731D01*
X0240465Y0062321D02*
X0236925Y0062321D01*
X0236925Y0061731D02*
X0236925Y0062912D01*
X0224369Y0113897D02*
X0222009Y0113897D01*
X0224369Y0116257D01*
X0224369Y0116847D01*
X0223779Y0117437D01*
X0222599Y0117437D01*
X0222009Y0116847D01*
X0219563Y0117437D02*
X0219563Y0113897D01*
X0218383Y0113897D02*
X0220744Y0113897D01*
X0218383Y0116257D02*
X0219563Y0117437D01*
X0217118Y0116847D02*
X0217118Y0115667D01*
X0216528Y0115077D01*
X0214758Y0115077D01*
X0214758Y0113897D02*
X0214758Y0117437D01*
X0216528Y0117437D01*
X0217118Y0116847D01*
X0215938Y0115077D02*
X0217118Y0113897D01*
X0169599Y0101215D02*
X0169009Y0101805D01*
X0168419Y0101805D01*
X0167829Y0101215D01*
X0167829Y0099445D01*
X0169009Y0099445D01*
X0169599Y0100035D01*
X0169599Y0101215D01*
X0167829Y0099445D02*
X0166649Y0100625D01*
X0166059Y0101805D01*
X0166059Y0098180D02*
X0166059Y0097000D01*
X0166059Y0097590D02*
X0169009Y0097590D01*
X0169599Y0097000D01*
X0169599Y0096410D01*
X0169009Y0095820D01*
X0125308Y0130629D02*
X0121768Y0130629D01*
X0121768Y0132399D01*
X0122358Y0132989D01*
X0123538Y0132989D01*
X0124128Y0132399D01*
X0124128Y0130629D01*
X0124128Y0131809D02*
X0125308Y0132989D01*
X0124718Y0134254D02*
X0125308Y0134844D01*
X0125308Y0136024D01*
X0124718Y0136614D01*
X0123538Y0136614D01*
X0122948Y0136024D01*
X0122948Y0135434D01*
X0123538Y0134254D01*
X0121768Y0134254D01*
X0121768Y0136614D01*
X0122358Y0137879D02*
X0122948Y0137879D01*
X0123538Y0138469D01*
X0123538Y0140239D01*
X0124718Y0140239D02*
X0122358Y0140239D01*
X0121768Y0139649D01*
X0121768Y0138469D01*
X0122358Y0137879D01*
X0124718Y0137879D02*
X0125308Y0138469D01*
X0125308Y0139649D01*
X0124718Y0140239D01*
X0118617Y0101805D02*
X0118617Y0099445D01*
X0116847Y0101215D01*
X0120387Y0101215D01*
X0119797Y0097590D02*
X0116847Y0097590D01*
X0116847Y0097000D02*
X0116847Y0098180D01*
X0119797Y0097590D02*
X0120387Y0097000D01*
X0120387Y0096410D01*
X0119797Y0095820D01*
X0076095Y0130629D02*
X0072555Y0130629D01*
X0072555Y0132399D01*
X0073145Y0132989D01*
X0074325Y0132989D01*
X0074915Y0132399D01*
X0074915Y0130629D01*
X0074915Y0131809D02*
X0076095Y0132989D01*
X0075505Y0134254D02*
X0076095Y0134844D01*
X0076095Y0136024D01*
X0075505Y0136614D01*
X0074325Y0136614D01*
X0073735Y0136024D01*
X0073735Y0135434D01*
X0074325Y0134254D01*
X0072555Y0134254D01*
X0072555Y0136614D01*
X0072555Y0137879D02*
X0072555Y0140239D01*
X0073145Y0140239D01*
X0075505Y0137879D01*
X0076095Y0137879D01*
X0070584Y0101805D02*
X0071174Y0101215D01*
X0071174Y0100035D01*
X0070584Y0099445D01*
X0069404Y0100625D02*
X0069404Y0101215D01*
X0069994Y0101805D01*
X0070584Y0101805D01*
X0069404Y0101215D02*
X0068814Y0101805D01*
X0068224Y0101805D01*
X0067634Y0101215D01*
X0067634Y0100035D01*
X0068224Y0099445D01*
X0067634Y0098180D02*
X0067634Y0097000D01*
X0067634Y0097590D02*
X0070584Y0097590D01*
X0071174Y0097000D01*
X0071174Y0096410D01*
X0070584Y0095820D01*
X0026883Y0130629D02*
X0023343Y0130629D01*
X0023343Y0132399D01*
X0023933Y0132989D01*
X0025113Y0132989D01*
X0025703Y0132399D01*
X0025703Y0130629D01*
X0025703Y0131809D02*
X0026883Y0132989D01*
X0026293Y0134254D02*
X0026883Y0134844D01*
X0026883Y0136024D01*
X0026293Y0136614D01*
X0025113Y0136614D01*
X0024523Y0136024D01*
X0024523Y0135434D01*
X0025113Y0134254D01*
X0023343Y0134254D01*
X0023343Y0136614D01*
X0025113Y0137879D02*
X0025113Y0139649D01*
X0025703Y0140239D01*
X0026293Y0140239D01*
X0026883Y0139649D01*
X0026883Y0138469D01*
X0026293Y0137879D01*
X0025113Y0137879D01*
X0023933Y0139059D01*
X0023343Y0140239D01*
X0111925Y0206417D02*
X0111925Y0208187D01*
X0112515Y0208777D01*
X0113695Y0208777D01*
X0114285Y0208187D01*
X0114285Y0206417D01*
X0114285Y0207597D02*
X0115465Y0208777D01*
X0114875Y0210042D02*
X0115465Y0210632D01*
X0115465Y0211812D01*
X0114875Y0212402D01*
X0114285Y0212402D01*
X0113695Y0211812D01*
X0113695Y0210042D01*
X0114875Y0210042D01*
X0113695Y0210042D02*
X0112515Y0211222D01*
X0111925Y0212402D01*
X0112515Y0213667D02*
X0111925Y0214257D01*
X0111925Y0215437D01*
X0112515Y0216027D01*
X0114875Y0213667D01*
X0115465Y0214257D01*
X0115465Y0215437D01*
X0114875Y0216027D01*
X0112515Y0216027D01*
X0112515Y0213667D02*
X0114875Y0213667D01*
X0115465Y0206417D02*
X0111925Y0206417D01*
X0071174Y0236174D02*
X0071174Y0236764D01*
X0070584Y0237354D01*
X0067634Y0237354D01*
X0067634Y0236764D02*
X0067634Y0237944D01*
X0068224Y0239209D02*
X0067634Y0239799D01*
X0067634Y0240979D01*
X0068224Y0241569D01*
X0068814Y0241569D01*
X0071174Y0239209D01*
X0071174Y0241569D01*
X0071174Y0236174D02*
X0070584Y0235584D01*
X0026883Y0264487D02*
X0023343Y0264487D01*
X0023343Y0266257D01*
X0023933Y0266847D01*
X0025113Y0266847D01*
X0025703Y0266257D01*
X0025703Y0264487D01*
X0025703Y0265667D02*
X0026883Y0266847D01*
X0026293Y0268113D02*
X0026883Y0268703D01*
X0026883Y0269883D01*
X0026293Y0270473D01*
X0025113Y0270473D01*
X0024523Y0269883D01*
X0024523Y0269293D01*
X0025113Y0268113D01*
X0023343Y0268113D01*
X0023343Y0270473D01*
X0023933Y0271738D02*
X0023343Y0272328D01*
X0023343Y0273508D01*
X0023933Y0274098D01*
X0024523Y0274098D01*
X0025113Y0273508D01*
X0025113Y0272328D01*
X0024523Y0271738D01*
X0023933Y0271738D01*
X0025113Y0272328D02*
X0025703Y0271738D01*
X0026293Y0271738D01*
X0026883Y0272328D01*
X0026883Y0273508D01*
X0026293Y0274098D01*
X0025703Y0274098D01*
X0025113Y0273508D01*
X0072555Y0340275D02*
X0072555Y0342045D01*
X0073145Y0342635D01*
X0074325Y0342635D01*
X0074915Y0342045D01*
X0074915Y0340275D01*
X0074915Y0341455D02*
X0076095Y0342635D01*
X0075505Y0343900D02*
X0076095Y0344490D01*
X0076095Y0345670D01*
X0075505Y0346260D01*
X0074325Y0346260D01*
X0073735Y0345670D01*
X0073735Y0345080D01*
X0074325Y0343900D01*
X0072555Y0343900D01*
X0072555Y0346260D01*
X0072555Y0347525D02*
X0074325Y0347525D01*
X0073735Y0348705D01*
X0073735Y0349295D01*
X0074325Y0349885D01*
X0075505Y0349885D01*
X0076095Y0349295D01*
X0076095Y0348115D01*
X0075505Y0347525D01*
X0072555Y0347525D02*
X0072555Y0349885D01*
X0072555Y0340275D02*
X0076095Y0340275D01*
X0057309Y0377184D02*
X0055800Y0377184D01*
X0055046Y0377938D01*
X0053532Y0377184D02*
X0050515Y0377184D01*
X0052023Y0377184D02*
X0052023Y0381709D01*
X0050515Y0380201D01*
X0049000Y0381709D02*
X0047492Y0381709D01*
X0048246Y0381709D02*
X0048246Y0377938D01*
X0047492Y0377184D01*
X0046738Y0377184D01*
X0045983Y0377938D01*
X0055046Y0380955D02*
X0055800Y0381709D01*
X0057309Y0381709D01*
X0058063Y0380955D01*
X0058063Y0380201D01*
X0057309Y0379447D01*
X0058063Y0378693D01*
X0058063Y0377938D01*
X0057309Y0377184D01*
X0057309Y0379447D02*
X0056555Y0379447D01*
X0222788Y0324133D02*
X0223378Y0323543D01*
X0223968Y0323543D01*
X0224558Y0324133D01*
X0224558Y0327083D01*
X0223968Y0327083D02*
X0225148Y0327083D01*
X0226413Y0326493D02*
X0226413Y0325903D01*
X0227003Y0325313D01*
X0228773Y0325313D01*
X0228773Y0326493D02*
X0228183Y0327083D01*
X0227003Y0327083D01*
X0226413Y0326493D01*
X0228773Y0326493D02*
X0228773Y0324133D01*
X0228183Y0323543D01*
X0227003Y0323543D01*
X0226413Y0324133D01*
X0265469Y0324961D02*
X0266059Y0324371D01*
X0266649Y0324371D01*
X0267239Y0324961D01*
X0267239Y0326731D01*
X0268419Y0326731D02*
X0266059Y0326731D01*
X0265469Y0326141D01*
X0265469Y0324961D01*
X0266059Y0323106D02*
X0265469Y0322516D01*
X0265469Y0321336D01*
X0266059Y0320746D01*
X0266059Y0319481D02*
X0267239Y0319481D01*
X0267829Y0318891D01*
X0267829Y0317121D01*
X0267829Y0318301D02*
X0269009Y0319481D01*
X0269009Y0320746D02*
X0266649Y0323106D01*
X0266059Y0323106D01*
X0268419Y0324371D02*
X0269009Y0324961D01*
X0269009Y0326141D01*
X0268419Y0326731D01*
X0269009Y0323106D02*
X0269009Y0320746D01*
X0266059Y0319481D02*
X0265469Y0318891D01*
X0265469Y0317121D01*
X0269009Y0317121D01*
X0268419Y0312951D02*
X0269009Y0312361D01*
X0269009Y0311181D01*
X0268419Y0310591D01*
X0267829Y0310591D01*
X0267239Y0311181D01*
X0267239Y0312361D01*
X0267829Y0312951D01*
X0268419Y0312951D01*
X0267239Y0312361D02*
X0266649Y0312951D01*
X0266059Y0312951D01*
X0265469Y0312361D01*
X0265469Y0311181D01*
X0266059Y0310591D01*
X0266649Y0310591D01*
X0267239Y0311181D01*
X0266649Y0309326D02*
X0266059Y0309326D01*
X0265469Y0308736D01*
X0265469Y0307556D01*
X0266059Y0306966D01*
X0266059Y0305701D02*
X0267239Y0305701D01*
X0267829Y0305111D01*
X0267829Y0303341D01*
X0269009Y0303341D02*
X0265469Y0303341D01*
X0265469Y0305111D01*
X0266059Y0305701D01*
X0267829Y0304521D02*
X0269009Y0305701D01*
X0269009Y0306966D02*
X0266649Y0309326D01*
X0269009Y0309326D02*
X0269009Y0306966D01*
X0266059Y0300156D02*
X0265469Y0300156D01*
X0265469Y0297796D01*
X0266059Y0296531D02*
X0265469Y0295941D01*
X0265469Y0294761D01*
X0266059Y0294171D01*
X0266059Y0292906D02*
X0265469Y0292316D01*
X0265469Y0290546D01*
X0269009Y0290546D01*
X0267829Y0290546D02*
X0267829Y0292316D01*
X0267239Y0292906D01*
X0266059Y0292906D01*
X0267829Y0291726D02*
X0269009Y0292906D01*
X0269009Y0294171D02*
X0266649Y0296531D01*
X0266059Y0296531D01*
X0268419Y0297796D02*
X0269009Y0297796D01*
X0268419Y0297796D02*
X0266059Y0300156D01*
X0269009Y0296531D02*
X0269009Y0294171D01*
X0268419Y0332713D02*
X0269009Y0333303D01*
X0269009Y0334483D01*
X0268419Y0335073D01*
X0268419Y0336338D02*
X0269009Y0336338D01*
X0268419Y0336338D02*
X0266059Y0338698D01*
X0265469Y0338698D01*
X0265469Y0336338D01*
X0266059Y0335073D02*
X0265469Y0334483D01*
X0265469Y0333303D01*
X0266059Y0332713D01*
X0268419Y0332713D01*
X0268421Y0349601D02*
X0268421Y0351371D01*
X0269011Y0351961D01*
X0270191Y0351961D01*
X0270781Y0351371D01*
X0270781Y0349601D01*
X0270781Y0350781D02*
X0271961Y0351961D01*
X0271371Y0353226D02*
X0271961Y0353816D01*
X0271961Y0354996D01*
X0271371Y0355586D01*
X0270781Y0355586D01*
X0270191Y0354996D01*
X0270191Y0354406D01*
X0270191Y0354996D02*
X0269601Y0355586D01*
X0269011Y0355586D01*
X0268421Y0354996D01*
X0268421Y0353816D01*
X0269011Y0353226D01*
X0269011Y0356851D02*
X0268421Y0357441D01*
X0268421Y0358621D01*
X0269011Y0359211D01*
X0271371Y0356851D01*
X0271961Y0357441D01*
X0271961Y0358621D01*
X0271371Y0359211D01*
X0269011Y0359211D01*
X0269011Y0356851D02*
X0271371Y0356851D01*
X0271961Y0349601D02*
X0268421Y0349601D01*
X0271374Y0367317D02*
X0271374Y0369087D01*
X0271964Y0369677D01*
X0273144Y0369677D01*
X0273734Y0369087D01*
X0273734Y0367317D01*
X0274914Y0367317D02*
X0271374Y0367317D01*
X0273734Y0368497D02*
X0274914Y0369677D01*
X0274324Y0370943D02*
X0274914Y0371533D01*
X0274914Y0372713D01*
X0274324Y0373303D01*
X0273734Y0373303D01*
X0273144Y0372713D01*
X0273144Y0372123D01*
X0273144Y0372713D02*
X0272554Y0373303D01*
X0271964Y0373303D01*
X0271374Y0372713D01*
X0271374Y0371533D01*
X0271964Y0370943D01*
X0272554Y0374568D02*
X0271374Y0375748D01*
X0274914Y0375748D01*
X0274914Y0374568D02*
X0274914Y0376928D01*
X0297763Y0376378D02*
X0298943Y0376378D01*
X0298353Y0376378D02*
X0298353Y0372838D01*
X0297763Y0372838D02*
X0298943Y0372838D01*
X0300180Y0373428D02*
X0300770Y0372838D01*
X0301950Y0372838D01*
X0302540Y0373428D01*
X0303805Y0373428D02*
X0304395Y0372838D01*
X0305575Y0372838D01*
X0306165Y0373428D01*
X0306165Y0374608D01*
X0305575Y0375198D01*
X0304985Y0375198D01*
X0303805Y0374608D01*
X0303805Y0376378D01*
X0306165Y0376378D01*
X0302540Y0375788D02*
X0301950Y0376378D01*
X0300770Y0376378D01*
X0300180Y0375788D01*
X0300180Y0373428D01*
X0350114Y0369448D02*
X0350114Y0368268D01*
X0350704Y0367678D01*
X0350704Y0366413D02*
X0351294Y0366413D01*
X0351884Y0365823D01*
X0352474Y0366413D01*
X0353064Y0366413D01*
X0353654Y0365823D01*
X0353654Y0364643D01*
X0353064Y0364053D01*
X0353654Y0362788D02*
X0352474Y0361608D01*
X0352474Y0362198D02*
X0352474Y0360428D01*
X0353654Y0360428D02*
X0350114Y0360428D01*
X0350114Y0362198D01*
X0350704Y0362788D01*
X0351884Y0362788D01*
X0352474Y0362198D01*
X0350704Y0364053D02*
X0350114Y0364643D01*
X0350114Y0365823D01*
X0350704Y0366413D01*
X0351884Y0365823D02*
X0351884Y0365233D01*
X0353064Y0367678D02*
X0353654Y0368268D01*
X0353654Y0369448D01*
X0353064Y0370038D01*
X0352474Y0370038D01*
X0351884Y0369448D01*
X0351884Y0368858D01*
X0351884Y0369448D02*
X0351294Y0370038D01*
X0350704Y0370038D01*
X0350114Y0369448D01*
X0350704Y0354290D02*
X0350114Y0353700D01*
X0350114Y0352520D01*
X0350704Y0351930D01*
X0350704Y0350665D02*
X0351294Y0350665D01*
X0351884Y0350075D01*
X0352474Y0350665D01*
X0353064Y0350665D01*
X0353654Y0350075D01*
X0353654Y0348895D01*
X0353064Y0348305D01*
X0353654Y0347040D02*
X0352474Y0345860D01*
X0352474Y0346450D02*
X0352474Y0344680D01*
X0353654Y0344680D02*
X0350114Y0344680D01*
X0350114Y0346450D01*
X0350704Y0347040D01*
X0351884Y0347040D01*
X0352474Y0346450D01*
X0350704Y0348305D02*
X0350114Y0348895D01*
X0350114Y0350075D01*
X0350704Y0350665D01*
X0351884Y0350075D02*
X0351884Y0349485D01*
X0353654Y0351930D02*
X0351294Y0354290D01*
X0350704Y0354290D01*
X0353654Y0354290D02*
X0353654Y0351930D01*
X0353064Y0338698D02*
X0352474Y0338698D01*
X0351884Y0338108D01*
X0351884Y0336928D01*
X0351294Y0336338D01*
X0350704Y0336338D01*
X0350114Y0336928D01*
X0350114Y0338108D01*
X0350704Y0338698D01*
X0351294Y0338698D01*
X0351884Y0338108D01*
X0351884Y0336928D02*
X0352474Y0336338D01*
X0353064Y0336338D01*
X0353654Y0336928D01*
X0353654Y0338108D01*
X0353064Y0338698D01*
X0353064Y0335073D02*
X0353654Y0334483D01*
X0353654Y0333303D01*
X0353064Y0332713D01*
X0350704Y0332713D01*
X0350114Y0333303D01*
X0350114Y0334483D01*
X0350704Y0335073D01*
X0351884Y0326731D02*
X0351884Y0324371D01*
X0350114Y0326141D01*
X0353654Y0326141D01*
X0353654Y0323106D02*
X0353654Y0320746D01*
X0351294Y0323106D01*
X0350704Y0323106D01*
X0350114Y0322516D01*
X0350114Y0321336D01*
X0350704Y0320746D01*
X0350704Y0319481D02*
X0351884Y0319481D01*
X0352474Y0318891D01*
X0352474Y0317121D01*
X0352474Y0318301D02*
X0353654Y0319481D01*
X0353654Y0317121D02*
X0350114Y0317121D01*
X0350114Y0318891D01*
X0350704Y0319481D01*
X0349127Y0312951D02*
X0347947Y0312951D01*
X0347357Y0312361D01*
X0347357Y0311771D01*
X0347947Y0310591D01*
X0346177Y0310591D01*
X0346177Y0312951D01*
X0349127Y0312951D02*
X0349717Y0312361D01*
X0349717Y0311181D01*
X0349127Y0310591D01*
X0349717Y0309326D02*
X0349717Y0306966D01*
X0347357Y0309326D01*
X0346767Y0309326D01*
X0346177Y0308736D01*
X0346177Y0307556D01*
X0346767Y0306966D01*
X0346767Y0305701D02*
X0347947Y0305701D01*
X0348537Y0305111D01*
X0348537Y0303341D01*
X0348537Y0304521D02*
X0349717Y0305701D01*
X0349717Y0303341D02*
X0346177Y0303341D01*
X0346177Y0305111D01*
X0346767Y0305701D01*
X0335938Y0298582D02*
X0335938Y0297402D01*
X0335348Y0296812D01*
X0335938Y0295547D02*
X0335938Y0293187D01*
X0333578Y0295547D01*
X0332988Y0295547D01*
X0332398Y0294957D01*
X0332398Y0293777D01*
X0332988Y0293187D01*
X0332988Y0291922D02*
X0334168Y0291922D01*
X0334758Y0291332D01*
X0334758Y0289562D01*
X0334758Y0290742D02*
X0335938Y0291922D01*
X0335938Y0289562D02*
X0332398Y0289562D01*
X0332398Y0291332D01*
X0332988Y0291922D01*
X0332988Y0296812D02*
X0332398Y0297402D01*
X0332398Y0298582D01*
X0332988Y0299172D01*
X0333578Y0299172D01*
X0334168Y0298582D01*
X0334758Y0299172D01*
X0335348Y0299172D01*
X0335938Y0298582D01*
X0334168Y0298582D02*
X0334168Y0297992D01*
X0339010Y0274563D02*
X0338420Y0273973D01*
X0338420Y0271613D01*
X0339010Y0271023D01*
X0340190Y0271023D01*
X0340780Y0271613D01*
X0342045Y0271023D02*
X0344405Y0271023D01*
X0343225Y0271023D02*
X0343225Y0274563D01*
X0342045Y0273383D01*
X0340780Y0273973D02*
X0340190Y0274563D01*
X0339010Y0274563D01*
X0345670Y0273973D02*
X0345670Y0271613D01*
X0348030Y0273973D01*
X0348030Y0271613D01*
X0347440Y0271023D01*
X0346260Y0271023D01*
X0345670Y0271613D01*
X0345670Y0273973D02*
X0346260Y0274563D01*
X0347440Y0274563D01*
X0348030Y0273973D01*
X0368769Y0257203D02*
X0369359Y0256613D01*
X0369949Y0256613D01*
X0370539Y0257203D01*
X0370539Y0260153D01*
X0369949Y0260153D02*
X0371129Y0260153D01*
X0372395Y0258973D02*
X0373575Y0260153D01*
X0373575Y0256613D01*
X0372395Y0256613D02*
X0374755Y0256613D01*
X0376020Y0258383D02*
X0378380Y0258383D01*
X0377790Y0256613D02*
X0377790Y0260153D01*
X0376020Y0258383D01*
X0367434Y0247401D02*
X0363894Y0247401D01*
X0365664Y0245631D01*
X0365664Y0247991D01*
X0367434Y0244366D02*
X0367434Y0242006D01*
X0367434Y0243186D02*
X0363894Y0243186D01*
X0365074Y0242006D01*
X0364484Y0240740D02*
X0363894Y0240150D01*
X0363894Y0238970D01*
X0364484Y0238380D01*
X0366844Y0238380D01*
X0367434Y0238970D01*
X0367434Y0240150D01*
X0366844Y0240740D01*
X0357986Y0221416D02*
X0358576Y0220826D01*
X0358576Y0219646D01*
X0357986Y0219056D01*
X0357396Y0219056D01*
X0356806Y0219646D01*
X0356806Y0220826D01*
X0357396Y0221416D01*
X0357986Y0221416D01*
X0356806Y0220826D02*
X0356216Y0221416D01*
X0355626Y0221416D01*
X0355036Y0220826D01*
X0355036Y0219646D01*
X0355626Y0219056D01*
X0356216Y0219056D01*
X0356806Y0219646D01*
X0358576Y0217791D02*
X0358576Y0215431D01*
X0358576Y0216611D02*
X0355036Y0216611D01*
X0356216Y0215431D01*
X0356806Y0214166D02*
X0357396Y0213576D01*
X0357396Y0211806D01*
X0357396Y0212986D02*
X0358576Y0214166D01*
X0356806Y0214166D02*
X0355626Y0214166D01*
X0355036Y0213576D01*
X0355036Y0211806D01*
X0358576Y0211806D01*
X0367831Y0205472D02*
X0371371Y0205472D01*
X0371371Y0204292D02*
X0371371Y0206652D01*
X0369011Y0204292D02*
X0367831Y0205472D01*
X0368421Y0203027D02*
X0367831Y0202437D01*
X0367831Y0201257D01*
X0368421Y0200667D01*
X0368421Y0199402D02*
X0369601Y0199402D01*
X0370191Y0198812D01*
X0370191Y0197042D01*
X0370191Y0198222D02*
X0371371Y0199402D01*
X0371371Y0200667D02*
X0369011Y0203027D01*
X0368421Y0203027D01*
X0371371Y0203027D02*
X0371371Y0200667D01*
X0368421Y0199402D02*
X0367831Y0198812D01*
X0367831Y0197042D01*
X0371371Y0197042D01*
X0340859Y0228144D02*
X0340859Y0229324D01*
X0340269Y0229914D01*
X0340859Y0231179D02*
X0340859Y0233539D01*
X0340859Y0232359D02*
X0337319Y0232359D01*
X0338499Y0231179D01*
X0337909Y0229914D02*
X0337319Y0229324D01*
X0337319Y0228144D01*
X0337909Y0227554D01*
X0340269Y0227554D01*
X0340859Y0228144D01*
X0340269Y0234804D02*
X0340859Y0235394D01*
X0340859Y0236574D01*
X0340269Y0237164D01*
X0339679Y0237164D01*
X0339089Y0236574D01*
X0339089Y0235984D01*
X0339089Y0236574D02*
X0338499Y0237164D01*
X0337909Y0237164D01*
X0337319Y0236574D01*
X0337319Y0235394D01*
X0337909Y0234804D01*
X0310496Y0182480D02*
X0309316Y0182480D01*
X0308726Y0181890D01*
X0307461Y0181890D02*
X0306871Y0182480D01*
X0305691Y0182480D01*
X0305101Y0181890D01*
X0305101Y0179530D01*
X0305691Y0178940D01*
X0306871Y0178940D01*
X0307461Y0179530D01*
X0308726Y0179530D02*
X0309316Y0178940D01*
X0310496Y0178940D01*
X0311086Y0179530D01*
X0311086Y0180120D01*
X0310496Y0180710D01*
X0309906Y0180710D01*
X0310496Y0180710D02*
X0311086Y0181300D01*
X0311086Y0181890D01*
X0310496Y0182480D01*
X0303864Y0182480D02*
X0302684Y0182480D01*
X0303274Y0182480D02*
X0303274Y0178940D01*
X0302684Y0178940D02*
X0303864Y0178940D01*
X0286532Y0138106D02*
X0284172Y0138106D01*
X0284172Y0136336D01*
X0285352Y0136926D01*
X0285942Y0136926D01*
X0286532Y0136336D01*
X0286532Y0135156D01*
X0285942Y0134566D01*
X0284762Y0134566D01*
X0284172Y0135156D01*
X0282907Y0135156D02*
X0282317Y0134566D01*
X0281137Y0134566D01*
X0280547Y0135156D01*
X0280547Y0137516D01*
X0281137Y0138106D01*
X0282317Y0138106D01*
X0282907Y0137516D01*
X0371098Y0086925D02*
X0372868Y0086925D01*
X0373458Y0086335D01*
X0373458Y0085155D01*
X0372868Y0084565D01*
X0371098Y0084565D01*
X0371098Y0083385D02*
X0371098Y0086925D01*
X0372278Y0084565D02*
X0373458Y0083385D01*
X0374724Y0083385D02*
X0377084Y0085745D01*
X0377084Y0086335D01*
X0376494Y0086925D01*
X0375314Y0086925D01*
X0374724Y0086335D01*
X0374724Y0083385D02*
X0377084Y0083385D01*
X0376494Y0017043D02*
X0375314Y0017043D01*
X0374724Y0016453D01*
X0373458Y0017043D02*
X0371098Y0017043D01*
X0371098Y0013503D01*
X0371098Y0015273D02*
X0372278Y0015273D01*
X0374724Y0013503D02*
X0377084Y0015863D01*
X0377084Y0016453D01*
X0376494Y0017043D01*
X0377084Y0013503D02*
X0374724Y0013503D01*
X0363304Y0014487D02*
X0360944Y0014487D01*
X0363304Y0016847D01*
X0363304Y0017437D01*
X0362714Y0018027D01*
X0361534Y0018027D01*
X0360944Y0017437D01*
X0359679Y0017437D02*
X0359089Y0018027D01*
X0357319Y0018027D01*
X0357319Y0014487D01*
X0359089Y0014487D01*
X0359679Y0015077D01*
X0359679Y0017437D01*
X0349525Y0014487D02*
X0347165Y0014487D01*
X0348345Y0014487D02*
X0348345Y0018027D01*
X0347165Y0016847D01*
X0345899Y0017437D02*
X0345309Y0018027D01*
X0343539Y0018027D01*
X0343539Y0014487D01*
X0345309Y0014487D01*
X0345899Y0015077D01*
X0345899Y0017437D01*
X0336729Y0013503D02*
X0334369Y0013503D01*
X0335549Y0013503D02*
X0335549Y0017043D01*
X0334369Y0015863D01*
X0333104Y0017043D02*
X0330744Y0017043D01*
X0330744Y0013503D01*
X0330744Y0015273D02*
X0331924Y0015273D01*
X0169599Y0029793D02*
X0169599Y0030383D01*
X0169009Y0030973D01*
X0166059Y0030973D01*
X0166059Y0030383D02*
X0166059Y0031563D01*
X0167239Y0032828D02*
X0166059Y0034008D01*
X0169599Y0034008D01*
X0169599Y0032828D02*
X0169599Y0035188D01*
X0169009Y0036453D02*
X0166649Y0038813D01*
X0169009Y0038813D01*
X0169599Y0038223D01*
X0169599Y0037043D01*
X0169009Y0036453D01*
X0166649Y0036453D01*
X0166059Y0037043D01*
X0166059Y0038223D01*
X0166649Y0038813D01*
X0169599Y0029793D02*
X0169009Y0029203D01*
X0115945Y0047949D02*
X0113585Y0045589D01*
X0113585Y0044999D01*
X0111730Y0045589D02*
X0111730Y0048539D01*
X0111140Y0048539D02*
X0112320Y0048539D01*
X0113585Y0048539D02*
X0115945Y0048539D01*
X0115945Y0047949D01*
X0111730Y0045589D02*
X0111140Y0044999D01*
X0110550Y0044999D01*
X0109960Y0045589D01*
X0071174Y0042160D02*
X0071174Y0040980D01*
X0070584Y0040390D01*
X0069404Y0040390D02*
X0068814Y0041570D01*
X0068814Y0042160D01*
X0069404Y0042750D01*
X0070584Y0042750D01*
X0071174Y0042160D01*
X0069404Y0040390D02*
X0067634Y0040390D01*
X0067634Y0042750D01*
X0067634Y0039125D02*
X0067634Y0037945D01*
X0067634Y0038535D02*
X0070584Y0038535D01*
X0071174Y0037945D01*
X0071174Y0037355D01*
X0070584Y0036765D01*
D14*
X0307594Y0069406D02*
X0311531Y0069406D01*
X0309563Y0067437D02*
X0309563Y0071374D01*
X0357791Y0049720D02*
X0361728Y0049720D01*
X0359760Y0051689D02*
X0359760Y0047752D01*
D15*
X0358283Y0030035D02*
X0363205Y0030035D01*
X0360744Y0026591D01*
X0358283Y0030035D01*
X0358462Y0029785D02*
X0363026Y0029785D01*
X0363697Y0030035D02*
X0360744Y0026098D01*
X0357791Y0030035D01*
X0363697Y0030035D01*
X0362464Y0028999D02*
X0359024Y0028999D01*
X0359585Y0028213D02*
X0361903Y0028213D01*
X0361342Y0027427D02*
X0360146Y0027427D01*
X0360708Y0026641D02*
X0360780Y0026641D01*
X0360744Y0026098D02*
X0357791Y0026098D01*
X0360744Y0026098D02*
X0363697Y0026098D01*
X0349917Y0026098D02*
X0344012Y0026098D01*
X0346965Y0030035D01*
X0349917Y0026098D01*
X0349425Y0026098D02*
X0344504Y0026098D01*
X0346965Y0029543D01*
X0349425Y0026098D01*
X0349037Y0026641D02*
X0344892Y0026641D01*
X0345453Y0027427D02*
X0348476Y0027427D01*
X0347915Y0028213D02*
X0346014Y0028213D01*
X0346576Y0028999D02*
X0347353Y0028999D01*
X0346965Y0030035D02*
X0349917Y0030035D01*
X0346965Y0030035D02*
X0344012Y0030035D01*
X0274130Y0094996D02*
X0274130Y0097949D01*
X0270193Y0100902D01*
X0270193Y0094996D01*
X0274130Y0097949D01*
X0274130Y0100902D01*
X0272243Y0098945D02*
X0270193Y0098945D01*
X0270193Y0098159D02*
X0273343Y0098159D01*
X0273638Y0097949D02*
X0270193Y0100409D01*
X0270193Y0095488D01*
X0273638Y0097949D01*
X0272832Y0097373D02*
X0270193Y0097373D01*
X0270193Y0096588D02*
X0271732Y0096588D01*
X0270632Y0095802D02*
X0270193Y0095802D01*
X0270193Y0099731D02*
X0271142Y0099731D01*
D16*
X0302984Y0107240D02*
X0325984Y0107240D01*
X0325984Y0177240D01*
X0318484Y0177240D01*
X0318482Y0177114D01*
X0318476Y0176989D01*
X0318466Y0176864D01*
X0318452Y0176739D01*
X0318435Y0176614D01*
X0318413Y0176490D01*
X0318388Y0176367D01*
X0318358Y0176245D01*
X0318325Y0176124D01*
X0318288Y0176004D01*
X0318248Y0175885D01*
X0318203Y0175768D01*
X0318155Y0175651D01*
X0318103Y0175537D01*
X0318048Y0175424D01*
X0317989Y0175313D01*
X0317927Y0175204D01*
X0317861Y0175097D01*
X0317792Y0174992D01*
X0317720Y0174889D01*
X0317645Y0174788D01*
X0317566Y0174690D01*
X0317484Y0174595D01*
X0317400Y0174502D01*
X0317312Y0174412D01*
X0317222Y0174324D01*
X0317129Y0174240D01*
X0317034Y0174158D01*
X0316936Y0174079D01*
X0316835Y0174004D01*
X0316732Y0173932D01*
X0316627Y0173863D01*
X0316520Y0173797D01*
X0316411Y0173735D01*
X0316300Y0173676D01*
X0316187Y0173621D01*
X0316073Y0173569D01*
X0315956Y0173521D01*
X0315839Y0173476D01*
X0315720Y0173436D01*
X0315600Y0173399D01*
X0315479Y0173366D01*
X0315357Y0173336D01*
X0315234Y0173311D01*
X0315110Y0173289D01*
X0314985Y0173272D01*
X0314860Y0173258D01*
X0314735Y0173248D01*
X0314610Y0173242D01*
X0314484Y0173240D01*
X0314358Y0173242D01*
X0314233Y0173248D01*
X0314108Y0173258D01*
X0313983Y0173272D01*
X0313858Y0173289D01*
X0313734Y0173311D01*
X0313611Y0173336D01*
X0313489Y0173366D01*
X0313368Y0173399D01*
X0313248Y0173436D01*
X0313129Y0173476D01*
X0313012Y0173521D01*
X0312895Y0173569D01*
X0312781Y0173621D01*
X0312668Y0173676D01*
X0312557Y0173735D01*
X0312448Y0173797D01*
X0312341Y0173863D01*
X0312236Y0173932D01*
X0312133Y0174004D01*
X0312032Y0174079D01*
X0311934Y0174158D01*
X0311839Y0174240D01*
X0311746Y0174324D01*
X0311656Y0174412D01*
X0311568Y0174502D01*
X0311484Y0174595D01*
X0311402Y0174690D01*
X0311323Y0174788D01*
X0311248Y0174889D01*
X0311176Y0174992D01*
X0311107Y0175097D01*
X0311041Y0175204D01*
X0310979Y0175313D01*
X0310920Y0175424D01*
X0310865Y0175537D01*
X0310813Y0175651D01*
X0310765Y0175768D01*
X0310720Y0175885D01*
X0310680Y0176004D01*
X0310643Y0176124D01*
X0310610Y0176245D01*
X0310580Y0176367D01*
X0310555Y0176490D01*
X0310533Y0176614D01*
X0310516Y0176739D01*
X0310502Y0176864D01*
X0310492Y0176989D01*
X0310486Y0177114D01*
X0310484Y0177240D01*
X0302984Y0177240D01*
X0302984Y0107240D01*
X0284567Y0069778D02*
X0284567Y0053285D01*
X0273595Y0052031D02*
X0273365Y0052143D01*
X0273138Y0052260D01*
X0272914Y0052382D01*
X0272693Y0052510D01*
X0272476Y0052644D01*
X0272261Y0052782D01*
X0272050Y0052926D01*
X0271843Y0053075D01*
X0271639Y0053229D01*
X0271439Y0053387D01*
X0271243Y0053551D01*
X0271051Y0053719D01*
X0270863Y0053892D01*
X0270679Y0054070D01*
X0270500Y0054251D01*
X0270325Y0054438D01*
X0270155Y0054628D01*
X0269990Y0054822D01*
X0269829Y0055021D01*
X0269673Y0055223D01*
X0269522Y0055429D01*
X0269376Y0055639D01*
X0269236Y0055852D01*
X0269100Y0056068D01*
X0268970Y0056288D01*
X0268845Y0056511D01*
X0268726Y0056736D01*
X0268612Y0056965D01*
X0268504Y0057196D01*
X0268401Y0057430D01*
X0268304Y0057666D01*
X0268213Y0057905D01*
X0268128Y0058145D01*
X0268048Y0058388D01*
X0267975Y0058633D01*
X0267907Y0058879D01*
X0267846Y0059127D01*
X0267791Y0059376D01*
X0267741Y0059626D01*
X0267698Y0059878D01*
X0267661Y0060131D01*
X0267630Y0060384D01*
X0267605Y0060638D01*
X0267586Y0060893D01*
X0267574Y0061148D01*
X0267568Y0061403D01*
X0267568Y0061659D01*
X0267574Y0061914D01*
X0267586Y0062169D01*
X0267605Y0062424D01*
X0267630Y0062678D01*
X0267661Y0062931D01*
X0267698Y0063184D01*
X0267741Y0063436D01*
X0267791Y0063686D01*
X0267846Y0063935D01*
X0267907Y0064183D01*
X0267975Y0064429D01*
X0268048Y0064674D01*
X0268128Y0064917D01*
X0268213Y0065157D01*
X0268304Y0065396D01*
X0268401Y0065632D01*
X0268504Y0065866D01*
X0268612Y0066097D01*
X0268726Y0066326D01*
X0268845Y0066551D01*
X0268970Y0066774D01*
X0269100Y0066994D01*
X0269236Y0067210D01*
X0269376Y0067423D01*
X0269522Y0067633D01*
X0269673Y0067839D01*
X0269829Y0068041D01*
X0269990Y0068240D01*
X0270155Y0068434D01*
X0270325Y0068624D01*
X0270500Y0068811D01*
X0270679Y0068992D01*
X0270863Y0069170D01*
X0271051Y0069343D01*
X0271243Y0069511D01*
X0271439Y0069675D01*
X0271639Y0069833D01*
X0271843Y0069987D01*
X0272050Y0070136D01*
X0272261Y0070280D01*
X0272476Y0070418D01*
X0272693Y0070552D01*
X0272914Y0070680D01*
X0273138Y0070802D01*
X0273365Y0070919D01*
X0273595Y0071031D01*
X0284566Y0053286D02*
X0284377Y0053140D01*
X0284184Y0052999D01*
X0283989Y0052862D01*
X0283790Y0052729D01*
X0283588Y0052601D01*
X0283383Y0052478D01*
X0283176Y0052359D01*
X0282966Y0052245D01*
X0282753Y0052136D01*
X0282538Y0052032D01*
X0284566Y0069777D02*
X0284369Y0069929D01*
X0284167Y0070076D01*
X0283963Y0070219D01*
X0283755Y0070356D01*
X0283544Y0070489D01*
X0283329Y0070617D01*
X0283112Y0070739D01*
X0282892Y0070856D01*
X0282669Y0070968D01*
X0282444Y0071075D01*
X0244162Y0051988D02*
X0243937Y0052095D01*
X0243714Y0052207D01*
X0243494Y0052324D01*
X0243277Y0052446D01*
X0243062Y0052574D01*
X0242851Y0052707D01*
X0242643Y0052844D01*
X0242439Y0052987D01*
X0242237Y0053134D01*
X0242040Y0053286D01*
X0242039Y0053285D02*
X0242039Y0069778D01*
X0253011Y0071031D02*
X0253241Y0070919D01*
X0253468Y0070802D01*
X0253692Y0070680D01*
X0253913Y0070552D01*
X0254130Y0070418D01*
X0254345Y0070280D01*
X0254556Y0070136D01*
X0254763Y0069987D01*
X0254967Y0069833D01*
X0255167Y0069675D01*
X0255363Y0069511D01*
X0255555Y0069343D01*
X0255743Y0069170D01*
X0255927Y0068992D01*
X0256106Y0068811D01*
X0256281Y0068624D01*
X0256451Y0068434D01*
X0256616Y0068240D01*
X0256777Y0068041D01*
X0256933Y0067839D01*
X0257084Y0067633D01*
X0257230Y0067423D01*
X0257370Y0067210D01*
X0257506Y0066994D01*
X0257636Y0066774D01*
X0257761Y0066551D01*
X0257880Y0066326D01*
X0257994Y0066097D01*
X0258102Y0065866D01*
X0258205Y0065632D01*
X0258302Y0065396D01*
X0258393Y0065157D01*
X0258478Y0064917D01*
X0258558Y0064674D01*
X0258631Y0064429D01*
X0258699Y0064183D01*
X0258760Y0063935D01*
X0258815Y0063686D01*
X0258865Y0063436D01*
X0258908Y0063184D01*
X0258945Y0062931D01*
X0258976Y0062678D01*
X0259001Y0062424D01*
X0259020Y0062169D01*
X0259032Y0061914D01*
X0259038Y0061659D01*
X0259038Y0061403D01*
X0259032Y0061148D01*
X0259020Y0060893D01*
X0259001Y0060638D01*
X0258976Y0060384D01*
X0258945Y0060131D01*
X0258908Y0059878D01*
X0258865Y0059626D01*
X0258815Y0059376D01*
X0258760Y0059127D01*
X0258699Y0058879D01*
X0258631Y0058633D01*
X0258558Y0058388D01*
X0258478Y0058145D01*
X0258393Y0057905D01*
X0258302Y0057666D01*
X0258205Y0057430D01*
X0258102Y0057196D01*
X0257994Y0056965D01*
X0257880Y0056736D01*
X0257761Y0056511D01*
X0257636Y0056288D01*
X0257506Y0056068D01*
X0257370Y0055852D01*
X0257230Y0055639D01*
X0257084Y0055429D01*
X0256933Y0055223D01*
X0256777Y0055021D01*
X0256616Y0054822D01*
X0256451Y0054628D01*
X0256281Y0054438D01*
X0256106Y0054251D01*
X0255927Y0054070D01*
X0255743Y0053892D01*
X0255555Y0053719D01*
X0255363Y0053551D01*
X0255167Y0053387D01*
X0254967Y0053229D01*
X0254763Y0053075D01*
X0254556Y0052926D01*
X0254345Y0052782D01*
X0254130Y0052644D01*
X0253913Y0052510D01*
X0253692Y0052382D01*
X0253468Y0052260D01*
X0253241Y0052143D01*
X0253011Y0052031D01*
X0242040Y0069777D02*
X0242229Y0069923D01*
X0242422Y0070064D01*
X0242617Y0070201D01*
X0242816Y0070334D01*
X0243018Y0070462D01*
X0243223Y0070585D01*
X0243430Y0070704D01*
X0243640Y0070818D01*
X0243853Y0070927D01*
X0244068Y0071031D01*
X0237791Y0166016D02*
X0237791Y0173516D01*
X0237917Y0173518D01*
X0238042Y0173524D01*
X0238167Y0173534D01*
X0238292Y0173548D01*
X0238417Y0173565D01*
X0238541Y0173587D01*
X0238664Y0173612D01*
X0238786Y0173642D01*
X0238907Y0173675D01*
X0239027Y0173712D01*
X0239146Y0173752D01*
X0239263Y0173797D01*
X0239380Y0173845D01*
X0239494Y0173897D01*
X0239607Y0173952D01*
X0239718Y0174011D01*
X0239827Y0174073D01*
X0239934Y0174139D01*
X0240039Y0174208D01*
X0240142Y0174280D01*
X0240243Y0174355D01*
X0240341Y0174434D01*
X0240436Y0174516D01*
X0240529Y0174600D01*
X0240619Y0174688D01*
X0240707Y0174778D01*
X0240791Y0174871D01*
X0240873Y0174966D01*
X0240952Y0175064D01*
X0241027Y0175165D01*
X0241099Y0175268D01*
X0241168Y0175373D01*
X0241234Y0175480D01*
X0241296Y0175589D01*
X0241355Y0175700D01*
X0241410Y0175813D01*
X0241462Y0175927D01*
X0241510Y0176044D01*
X0241555Y0176161D01*
X0241595Y0176280D01*
X0241632Y0176400D01*
X0241665Y0176521D01*
X0241695Y0176643D01*
X0241720Y0176766D01*
X0241742Y0176890D01*
X0241759Y0177015D01*
X0241773Y0177140D01*
X0241783Y0177265D01*
X0241789Y0177390D01*
X0241791Y0177516D01*
X0241789Y0177642D01*
X0241783Y0177767D01*
X0241773Y0177892D01*
X0241759Y0178017D01*
X0241742Y0178142D01*
X0241720Y0178266D01*
X0241695Y0178389D01*
X0241665Y0178511D01*
X0241632Y0178632D01*
X0241595Y0178752D01*
X0241555Y0178871D01*
X0241510Y0178988D01*
X0241462Y0179105D01*
X0241410Y0179219D01*
X0241355Y0179332D01*
X0241296Y0179443D01*
X0241234Y0179552D01*
X0241168Y0179659D01*
X0241099Y0179764D01*
X0241027Y0179867D01*
X0240952Y0179968D01*
X0240873Y0180066D01*
X0240791Y0180161D01*
X0240707Y0180254D01*
X0240619Y0180344D01*
X0240529Y0180432D01*
X0240436Y0180516D01*
X0240341Y0180598D01*
X0240243Y0180677D01*
X0240142Y0180752D01*
X0240039Y0180824D01*
X0239934Y0180893D01*
X0239827Y0180959D01*
X0239718Y0181021D01*
X0239607Y0181080D01*
X0239494Y0181135D01*
X0239380Y0181187D01*
X0239263Y0181235D01*
X0239146Y0181280D01*
X0239027Y0181320D01*
X0238907Y0181357D01*
X0238786Y0181390D01*
X0238664Y0181420D01*
X0238541Y0181445D01*
X0238417Y0181467D01*
X0238292Y0181484D01*
X0238167Y0181498D01*
X0238042Y0181508D01*
X0237917Y0181514D01*
X0237791Y0181516D01*
X0237791Y0189016D01*
X0277791Y0189016D01*
X0277791Y0166016D01*
X0237791Y0166016D01*
X0253858Y0208049D02*
X0253858Y0224541D01*
X0242886Y0225795D02*
X0242656Y0225683D01*
X0242429Y0225566D01*
X0242205Y0225444D01*
X0241984Y0225316D01*
X0241767Y0225182D01*
X0241552Y0225044D01*
X0241341Y0224900D01*
X0241134Y0224751D01*
X0240930Y0224597D01*
X0240730Y0224439D01*
X0240534Y0224275D01*
X0240342Y0224107D01*
X0240154Y0223934D01*
X0239970Y0223756D01*
X0239791Y0223575D01*
X0239616Y0223388D01*
X0239446Y0223198D01*
X0239281Y0223004D01*
X0239120Y0222805D01*
X0238964Y0222603D01*
X0238813Y0222397D01*
X0238667Y0222187D01*
X0238527Y0221974D01*
X0238391Y0221758D01*
X0238261Y0221538D01*
X0238136Y0221315D01*
X0238017Y0221090D01*
X0237903Y0220861D01*
X0237795Y0220630D01*
X0237692Y0220396D01*
X0237595Y0220160D01*
X0237504Y0219921D01*
X0237419Y0219681D01*
X0237339Y0219438D01*
X0237266Y0219193D01*
X0237198Y0218947D01*
X0237137Y0218699D01*
X0237082Y0218450D01*
X0237032Y0218200D01*
X0236989Y0217948D01*
X0236952Y0217695D01*
X0236921Y0217442D01*
X0236896Y0217188D01*
X0236877Y0216933D01*
X0236865Y0216678D01*
X0236859Y0216423D01*
X0236859Y0216167D01*
X0236865Y0215912D01*
X0236877Y0215657D01*
X0236896Y0215402D01*
X0236921Y0215148D01*
X0236952Y0214895D01*
X0236989Y0214642D01*
X0237032Y0214390D01*
X0237082Y0214140D01*
X0237137Y0213891D01*
X0237198Y0213643D01*
X0237266Y0213397D01*
X0237339Y0213152D01*
X0237419Y0212909D01*
X0237504Y0212669D01*
X0237595Y0212430D01*
X0237692Y0212194D01*
X0237795Y0211960D01*
X0237903Y0211729D01*
X0238017Y0211500D01*
X0238136Y0211275D01*
X0238261Y0211052D01*
X0238391Y0210832D01*
X0238527Y0210616D01*
X0238667Y0210403D01*
X0238813Y0210193D01*
X0238964Y0209987D01*
X0239120Y0209785D01*
X0239281Y0209586D01*
X0239446Y0209392D01*
X0239616Y0209202D01*
X0239791Y0209015D01*
X0239970Y0208834D01*
X0240154Y0208656D01*
X0240342Y0208483D01*
X0240534Y0208315D01*
X0240730Y0208151D01*
X0240930Y0207993D01*
X0241134Y0207839D01*
X0241341Y0207690D01*
X0241552Y0207546D01*
X0241767Y0207408D01*
X0241984Y0207274D01*
X0242205Y0207146D01*
X0242429Y0207024D01*
X0242656Y0206907D01*
X0242886Y0206795D01*
X0253858Y0224541D02*
X0253661Y0224693D01*
X0253459Y0224840D01*
X0253255Y0224983D01*
X0253047Y0225120D01*
X0252836Y0225253D01*
X0252621Y0225381D01*
X0252404Y0225503D01*
X0252184Y0225620D01*
X0251961Y0225732D01*
X0251736Y0225839D01*
X0253858Y0208049D02*
X0253669Y0207903D01*
X0253476Y0207762D01*
X0253281Y0207625D01*
X0253082Y0207492D01*
X0252880Y0207364D01*
X0252675Y0207241D01*
X0252468Y0207122D01*
X0252258Y0207008D01*
X0252045Y0206899D01*
X0251830Y0206795D01*
X0304953Y0225587D02*
X0312453Y0225587D01*
X0312455Y0225713D01*
X0312461Y0225838D01*
X0312471Y0225963D01*
X0312485Y0226088D01*
X0312502Y0226213D01*
X0312524Y0226337D01*
X0312549Y0226460D01*
X0312579Y0226582D01*
X0312612Y0226703D01*
X0312649Y0226823D01*
X0312689Y0226942D01*
X0312734Y0227059D01*
X0312782Y0227176D01*
X0312834Y0227290D01*
X0312889Y0227403D01*
X0312948Y0227514D01*
X0313010Y0227623D01*
X0313076Y0227730D01*
X0313145Y0227835D01*
X0313217Y0227938D01*
X0313292Y0228039D01*
X0313371Y0228137D01*
X0313453Y0228232D01*
X0313537Y0228325D01*
X0313625Y0228415D01*
X0313715Y0228503D01*
X0313808Y0228587D01*
X0313903Y0228669D01*
X0314001Y0228748D01*
X0314102Y0228823D01*
X0314205Y0228895D01*
X0314310Y0228964D01*
X0314417Y0229030D01*
X0314526Y0229092D01*
X0314637Y0229151D01*
X0314750Y0229206D01*
X0314864Y0229258D01*
X0314981Y0229306D01*
X0315098Y0229351D01*
X0315217Y0229391D01*
X0315337Y0229428D01*
X0315458Y0229461D01*
X0315580Y0229491D01*
X0315703Y0229516D01*
X0315827Y0229538D01*
X0315952Y0229555D01*
X0316077Y0229569D01*
X0316202Y0229579D01*
X0316327Y0229585D01*
X0316453Y0229587D01*
X0316579Y0229585D01*
X0316704Y0229579D01*
X0316829Y0229569D01*
X0316954Y0229555D01*
X0317079Y0229538D01*
X0317203Y0229516D01*
X0317326Y0229491D01*
X0317448Y0229461D01*
X0317569Y0229428D01*
X0317689Y0229391D01*
X0317808Y0229351D01*
X0317925Y0229306D01*
X0318042Y0229258D01*
X0318156Y0229206D01*
X0318269Y0229151D01*
X0318380Y0229092D01*
X0318489Y0229030D01*
X0318596Y0228964D01*
X0318701Y0228895D01*
X0318804Y0228823D01*
X0318905Y0228748D01*
X0319003Y0228669D01*
X0319098Y0228587D01*
X0319191Y0228503D01*
X0319281Y0228415D01*
X0319369Y0228325D01*
X0319453Y0228232D01*
X0319535Y0228137D01*
X0319614Y0228039D01*
X0319689Y0227938D01*
X0319761Y0227835D01*
X0319830Y0227730D01*
X0319896Y0227623D01*
X0319958Y0227514D01*
X0320017Y0227403D01*
X0320072Y0227290D01*
X0320124Y0227176D01*
X0320172Y0227059D01*
X0320217Y0226942D01*
X0320257Y0226823D01*
X0320294Y0226703D01*
X0320327Y0226582D01*
X0320357Y0226460D01*
X0320382Y0226337D01*
X0320404Y0226213D01*
X0320421Y0226088D01*
X0320435Y0225963D01*
X0320445Y0225838D01*
X0320451Y0225713D01*
X0320453Y0225587D01*
X0327953Y0225587D01*
X0327953Y0265587D01*
X0304953Y0265587D01*
X0304953Y0225587D01*
X0359524Y0264740D02*
X0359524Y0269740D01*
X0362024Y0272240D01*
X0359524Y0274740D01*
X0359524Y0279740D01*
X0362024Y0282240D01*
X0359524Y0284740D01*
X0359524Y0289740D01*
X0362024Y0292240D01*
X0359524Y0294740D01*
X0359524Y0299740D01*
X0362024Y0302240D01*
X0359524Y0304740D01*
X0359524Y0309740D01*
X0362024Y0312240D01*
X0367024Y0312240D01*
X0369524Y0309740D01*
X0372024Y0312240D01*
X0377024Y0312240D01*
X0379524Y0309740D01*
X0379524Y0304740D01*
X0377024Y0302240D01*
X0379524Y0299740D01*
X0379524Y0294740D01*
X0377024Y0292240D01*
X0379524Y0289740D01*
X0379524Y0284740D01*
X0377024Y0282240D01*
X0379524Y0279740D01*
X0379524Y0274740D01*
X0377024Y0272240D01*
X0379524Y0269740D01*
X0379524Y0264740D01*
X0377024Y0262240D01*
X0372024Y0262240D01*
X0369524Y0264740D01*
X0367024Y0262240D01*
X0362024Y0262240D01*
X0359524Y0264740D01*
X0381524Y0264740D02*
X0381524Y0269740D01*
X0321063Y0301138D02*
X0298063Y0301138D01*
X0298063Y0371138D01*
X0305563Y0371138D01*
X0305565Y0371012D01*
X0305571Y0370887D01*
X0305581Y0370762D01*
X0305595Y0370637D01*
X0305612Y0370512D01*
X0305634Y0370388D01*
X0305659Y0370265D01*
X0305689Y0370143D01*
X0305722Y0370022D01*
X0305759Y0369902D01*
X0305799Y0369783D01*
X0305844Y0369666D01*
X0305892Y0369549D01*
X0305944Y0369435D01*
X0305999Y0369322D01*
X0306058Y0369211D01*
X0306120Y0369102D01*
X0306186Y0368995D01*
X0306255Y0368890D01*
X0306327Y0368787D01*
X0306402Y0368686D01*
X0306481Y0368588D01*
X0306563Y0368493D01*
X0306647Y0368400D01*
X0306735Y0368310D01*
X0306825Y0368222D01*
X0306918Y0368138D01*
X0307013Y0368056D01*
X0307111Y0367977D01*
X0307212Y0367902D01*
X0307315Y0367830D01*
X0307420Y0367761D01*
X0307527Y0367695D01*
X0307636Y0367633D01*
X0307747Y0367574D01*
X0307860Y0367519D01*
X0307974Y0367467D01*
X0308091Y0367419D01*
X0308208Y0367374D01*
X0308327Y0367334D01*
X0308447Y0367297D01*
X0308568Y0367264D01*
X0308690Y0367234D01*
X0308813Y0367209D01*
X0308937Y0367187D01*
X0309062Y0367170D01*
X0309187Y0367156D01*
X0309312Y0367146D01*
X0309437Y0367140D01*
X0309563Y0367138D01*
X0309689Y0367140D01*
X0309814Y0367146D01*
X0309939Y0367156D01*
X0310064Y0367170D01*
X0310189Y0367187D01*
X0310313Y0367209D01*
X0310436Y0367234D01*
X0310558Y0367264D01*
X0310679Y0367297D01*
X0310799Y0367334D01*
X0310918Y0367374D01*
X0311035Y0367419D01*
X0311152Y0367467D01*
X0311266Y0367519D01*
X0311379Y0367574D01*
X0311490Y0367633D01*
X0311599Y0367695D01*
X0311706Y0367761D01*
X0311811Y0367830D01*
X0311914Y0367902D01*
X0312015Y0367977D01*
X0312113Y0368056D01*
X0312208Y0368138D01*
X0312301Y0368222D01*
X0312391Y0368310D01*
X0312479Y0368400D01*
X0312563Y0368493D01*
X0312645Y0368588D01*
X0312724Y0368686D01*
X0312799Y0368787D01*
X0312871Y0368890D01*
X0312940Y0368995D01*
X0313006Y0369102D01*
X0313068Y0369211D01*
X0313127Y0369322D01*
X0313182Y0369435D01*
X0313234Y0369549D01*
X0313282Y0369666D01*
X0313327Y0369783D01*
X0313367Y0369902D01*
X0313404Y0370022D01*
X0313437Y0370143D01*
X0313467Y0370265D01*
X0313492Y0370388D01*
X0313514Y0370512D01*
X0313531Y0370637D01*
X0313545Y0370762D01*
X0313555Y0370887D01*
X0313561Y0371012D01*
X0313563Y0371138D01*
X0321063Y0371138D01*
X0321063Y0301138D01*
X0231917Y0331669D02*
X0231917Y0336669D01*
X0229917Y0336669D02*
X0229917Y0331669D01*
X0227417Y0329169D01*
X0222417Y0329169D01*
X0219917Y0331669D01*
X0217417Y0329169D01*
X0212417Y0329169D01*
X0209917Y0331669D01*
X0209917Y0336669D01*
X0212417Y0339169D01*
X0209917Y0341669D01*
X0209917Y0346669D01*
X0212417Y0349169D01*
X0209917Y0351669D01*
X0209917Y0356669D01*
X0212417Y0359169D01*
X0217417Y0359169D01*
X0219917Y0356669D01*
X0222417Y0359169D01*
X0227417Y0359169D01*
X0229917Y0356669D01*
X0229917Y0351669D01*
X0227417Y0349169D01*
X0229917Y0346669D01*
X0229917Y0341669D01*
X0227417Y0339169D01*
X0229917Y0336669D01*
D17*
X0291846Y0371571D02*
X0295783Y0371571D01*
X0330232Y0225154D02*
X0334169Y0225154D01*
X0300705Y0177673D02*
X0296768Y0177673D01*
X0237358Y0163736D02*
X0237358Y0159799D01*
D18*
X0226831Y0238138D02*
X0224404Y0238138D01*
X0226831Y0240565D01*
X0226831Y0241172D01*
X0226224Y0241778D01*
X0225011Y0241778D01*
X0224404Y0241172D01*
X0221992Y0241778D02*
X0221992Y0238138D01*
X0220779Y0238138D02*
X0223206Y0238138D01*
X0220779Y0240565D02*
X0221992Y0241778D01*
X0219581Y0241172D02*
X0218974Y0241778D01*
X0217761Y0241778D01*
X0217154Y0241172D01*
X0217154Y0238745D01*
X0217761Y0238138D01*
X0218974Y0238138D01*
X0219581Y0238745D01*
M02*
